<?xml version="1.0" encoding="utf-8"?>
<!-- Generator: Adobe Illustrator 16.0.0, SVG Export Plug-In . SVG Version: 6.00 Build 0)  -->
<svg version="1.2" baseProfile="tiny" xmlns="http://www.w3.org/2000/svg" xmlns:xlink="http://www.w3.org/1999/xlink" x="0px"
	 y="0px" width="1735px" height="893px" viewBox="0 0 1735 893" xml:space="preserve">
<g id="Layer_1" display="none">
	<ellipse display="inline" fill="none" stroke="#000000" stroke-miterlimit="10" cx="300" cy="300" rx="79.602" ry="145"/>
	
		<ellipse transform="matrix(0.5 -0.866 0.866 0.5 -109.8076 409.8077)" display="inline" fill="none" stroke="#000000" stroke-miterlimit="10" cx="300" cy="300" rx="79.602" ry="145"/>
	
		<ellipse transform="matrix(-0.5 -0.866 0.866 -0.5 190.1919 709.8083)" display="inline" fill="none" stroke="#000000" stroke-miterlimit="10" cx="300" cy="300" rx="79.602" ry="144.999"/>
	<circle display="inline" cx="300" cy="300" r="12.5"/>
</g>
<g id="Layer_2" display="none">
	<g display="inline">
		<polygon fill="none" stroke="#000000" stroke-miterlimit="10" points="290,200.26 290,294.23 208.6,341.21 200.6,327.35 
			260.99,292.49 207.1,261.39 220.1,238.87 274,269.98 274,200.26 		"/>
		<polygon fill="none" stroke="#000000" stroke-miterlimit="10" points="290,200.26 290,294.23 208.6,341.21 200.6,327.35 
			260.99,292.49 207.1,261.39 220.1,238.87 274,269.98 274,200.26 		"/>
	</g>
</g>
<g id="Layer_6" display="none">
	<rect x="67" y="201" display="inline" fill="#27AAE1" width="1180" height="432"/>
</g>
<g id="Layer_3">
	<g>
		<path d="M276.668,308.891v85.297c-9.944,4.939-16.775,15.193-16.775,27.057c0,0.643,0.013,1.275,0.066,1.904l-73.876,42.635
			c-0.993-7.689-1.731-15.539-2.201-23.537l53.855-31.08l-52.179-30.115c0.713-6.32,1.611-12.533,2.672-18.613
			c4.736-3.959,9.662-7.838,14.762-11.609l52.204,30.129v-62.203C262.35,315.158,269.515,311.871,276.668,308.891z"/>
		<path d="M276.668,308.891v85.297c-9.944,4.939-16.775,15.193-16.775,27.057c0,0.643,0.013,1.275,0.066,1.904l-73.876,42.635
			c-0.993-7.689-1.731-15.539-2.201-23.537l53.855-31.08l-52.179-30.115c0.713-6.32,1.611-12.533,2.672-18.613
			c4.736-3.959,9.662-7.838,14.762-11.609l52.204,30.129v-62.203C262.35,315.158,269.515,311.871,276.668,308.891z"/>
	</g>
	<path d="M276.668,308.891v85.297c-9.944,4.939-16.775,15.193-16.775,27.057c0,0.643,0.013,1.275,0.066,1.904l-73.876,42.635
		c-0.993-7.689-1.731-15.539-2.201-23.537l53.855-31.08l-52.179-30.115c0.713-6.32,1.611-12.533,2.672-18.613
		c4.736-3.959,9.662-7.838,14.762-11.609l52.204,30.129v-62.203C262.35,315.158,269.515,311.871,276.668,308.891z"/>
	<path fill="#2E67B2" d="M276.668,308.891v85.297c-9.944,4.939-16.775,15.193-16.775,27.057c0,0.643,0.013,1.275,0.066,1.904
		l-73.876,42.635c-0.993-7.689-1.731-15.539-2.201-23.537l53.855-31.08l-52.179-30.115c0.713-6.32,1.611-12.533,2.672-18.613
		c4.736-3.959,9.662-7.838,14.762-11.609l52.204,30.129v-62.203C262.35,315.158,269.515,311.871,276.668,308.891z"/>
	<path fill="#2E67B2" d="M199.498,489.041l73.87-42.648c9.249,6.143,21.543,6.932,31.817,1.002c0.559-0.322,1.099-0.65,1.617-1.012
		l73.861,42.662c-6.164,4.705-12.593,9.27-19.284,13.676l-53.845-31.1l0.009,60.244c-5.829,2.545-11.66,4.871-17.455,6.994
		c-5.796-2.125-11.618-4.449-17.434-6.98l-0.011-60.275l-53.868,31.102C212.086,498.309,205.654,493.746,199.498,489.041z"/>
	<path fill="#2E67B2" d="M394.099,465.799l-73.87-42.65c0.694-11.082-4.769-22.123-15.043-28.055
		c-0.558-0.322-1.111-0.627-1.684-0.895l0.018-85.297c7.155,2.984,14.322,6.271,21.484,9.863l-0.01,62.18l52.167-30.131
		c5.118,3.777,10.049,7.664,14.784,11.621c1.061,6.082,1.955,12.285,2.672,18.588l-52.193,30.146l53.868,31.102
		C395.83,450.262,395.094,458.113,394.099,465.799z"/>
</g>
<g id="Layer_4">
	<g>
		<path fill="#FFFFFF" d="M289.938,581.913l-0.022-0.005l-2.021-0.071c-6.111-0.084-12.592-0.981-19.238-2.666l-2.359-0.619
			c-0.861-0.211-1.656-0.449-2.416-0.724l-4.596-1.569l-0.18-0.071c-2.945-1.208-5.992-2.456-8.876-3.984
			c-5.744-2.871-11.332-6.457-16.587-10.647c-9.875-7.849-18.613-17.701-25.974-29.284c-3.891-6.191-6.966-11.789-9.402-17.117
			l-1.032-2.175l-0.969-2.263c-0.221-0.527-0.444-1.045-0.668-1.563c-0.418-0.972-0.837-1.943-1.223-2.93l-0.551-1.45
			c-0.953-2.502-1.939-5.089-2.789-7.688c-3.959-11.552-6.93-23.865-9.078-37.633c-1.867-12.635-2.832-25.598-2.869-38.536
			l0.127-0.001l-0.127-0.001c-0.01-12.572,0.985-25.532,2.957-38.519c2.211-13.739,5.26-26.016,9.318-37.539
			c0.857-2.553,1.854-5.104,2.818-7.569l0.583-1.492c0.398-0.995,0.827-1.966,1.256-2.937c0.225-0.508,0.448-1.016,0.669-1.525
			l0.971-2.219l1.069-2.205c2.462-5.262,5.571-10.807,9.497-16.939c7.416-11.447,16.163-21.166,26-28.891
			c5.192-4.1,10.74-7.625,16.487-10.475c2.894-1.521,5.942-2.754,8.892-3.946l4.623-1.552c0.699-0.248,1.482-0.48,2.38-0.703
			l4.627-1.213l2.408-0.472l2.664-0.478c0.688-0.124,1.401-0.252,2.183-0.321l4.928-0.526l0.623-0.061l5.607-0.232
			c0.096-0.007,0.227-0.007,0.443-0.007c0.09,0,0.173,0.005,0.25,0.013V261.1l2.339,0.091c0.542,0.03,1.065,0.048,1.589,0.065
			c1.025,0.033,2.086,0.068,3.142,0.196l4.588,0.504c1.052,0.128,2.081,0.318,3.076,0.503c0.503,0.092,1.005,0.186,1.508,0.27
			c6.452,1.318,12.287,3.108,17.378,5.326c1.998,0.782,3.932,1.758,5.801,2.701c0.702,0.355,1.402,0.709,2.105,1.051l3.771,2.17
			l1.837,1.098l1.795,1.207c4.864,3.098,9.141,6.721,13.034,10.174c4.361,4.119,7.889,7.861,10.807,11.461
			c11.119,13.555,19.616,29.165,25.976,47.719l0.968,2.789l0.865,2.814c0.186,0.624,0.376,1.233,0.564,1.839
			c0.369,1.185,0.751,2.409,1.062,3.624l1.423,5.236l1.202,5.126c1.383,6.03,2.5,12.073,3.418,18.479l0.556,4.081
			c0.109,0.756,0.186,1.513,0.259,2.257c0.055,0.543,0.107,1.078,0.175,1.605l0.09,0.801c0.248,2.208,0.482,4.293,0.596,6.272
			c0.307,3.743,0.467,7.097,0.596,9.791l0.063,1.288c0.099,2.012,0.108,3.713,0.116,5.08c0.004,0.688,0.008,1.291,0.022,1.811
			l0.028,2.373l-0.721,0.014l0.721,0.013l-0.035,2.357c-0.015,0.532-0.021,1.138-0.027,1.826c-0.014,1.365-0.03,3.064-0.118,5.072
			c-0.274,8.199-1.028,16.985-2.241,26.104c-0.905,6.488-1.992,12.542-3.324,18.513c-0.261,1.079-0.501,2.163-0.746,3.261
			c-0.136,0.613-0.273,1.23-0.415,1.851l-1.399,5.303c-0.296,1.19-0.665,2.406-1.021,3.581c-0.188,0.622-0.379,1.248-0.562,1.881
			l-0.836,2.802l-0.96,2.841c-6.235,18.704-14.639,34.457-25.688,48.154c-2.939,3.681-6.468,7.477-10.782,11.599
			c-3.91,3.516-8.19,7.189-13.141,10.377l-1.74,1.184l-1.881,1.139c-1.243,0.742-2.498,1.468-3.765,2.188
			c-0.75,0.372-1.446,0.727-2.144,1.082c-1.897,0.967-3.86,1.967-5.925,2.784c-0.408,0.167-0.825,0.348-1.242,0.528
			c-0.953,0.412-1.938,0.839-2.975,1.169l-4.267,1.453c-0.987,0.332-1.995,0.589-2.971,0.838c-0.498,0.127-0.997,0.254-1.494,0.391
			l-2.242,0.581l-2.33,0.454c-0.533,0.093-1.038,0.188-1.543,0.283c-1.003,0.189-2.039,0.386-3.14,0.525l-0.563,0.064
			c-1.454,0.168-2.916,0.337-4.382,0.476l-0.413,0.041c-0.303,0.031-0.606,0.062-0.853,0.069l-5.257,0.2v-0.013
			c-0.211,0.026-0.421,0.026-0.597,0.026H289.938z M181.088,420.922c0.084,13.279,1.549,26.014,4.355,37.854
			c3.096,12.895,7.434,24.748,12.893,35.23c1.035,2.145,2.232,4.227,3.391,6.238c0.36,0.625,0.719,1.248,1.073,1.873
			c0.49,0.838,1.017,1.668,1.543,2.497c0.294,0.463,0.587,0.925,0.874,1.39l1.219,1.939l1.275,1.857
			c3.004,4.526,6.497,9.03,11.002,14.185c8.086,9.042,16.807,16.496,25.915,22.146c4.074,2.654,8.607,5.007,14.284,7.415
			c1.758,0.788,3.593,1.409,5.367,2.009c0.663,0.224,1.324,0.447,1.98,0.679l3.68,1.035c0.524,0.164,1.07,0.3,1.799,0.446
			l1.893,0.417c5.498,1.138,10.334,1.703,14.772,1.725l1.646,0.055l5.126-0.16c0.198-0.004,0.345-0.023,0.491-0.042
			c0.11-0.014,0.221-0.027,0.342-0.038c0.959-0.111,1.943-0.197,2.928-0.283l0.471-0.041c0.669-0.065,1.384-0.186,2.14-0.313
			c0.463-0.078,0.926-0.156,1.381-0.222l1.792-0.27l1.701-0.383c0.441-0.104,0.895-0.201,1.348-0.298
			c0.716-0.152,1.43-0.304,2.133-0.497l3.463-0.979c0.589-0.147,1.154-0.35,1.641-0.527l1.72-0.587
			c1.555-0.474,3.065-1.106,4.525-1.72c0.698-0.292,1.396-0.584,2.097-0.861l3.142-1.517l1.616-0.761c0,0,2.309-1.261,2.713-1.479
			c0.631-0.34,1.261-0.68,1.883-1.033l2.963-1.841c0.223-0.143,0.461-0.284,0.699-0.427c0.262-0.156,0.523-0.313,0.778-0.479
			l4.328-2.952c3.877-2.947,7.38-5.657,10.556-8.663c12.039-10.947,22.185-24.478,30.171-40.229
			c6.081-12.054,10.522-24.7,13.2-37.586l0.307-1.471c0.461-2.201,0.896-4.279,1.17-6.271l0.205-1.299
			c0.315-1.979,0.613-3.846,0.774-5.605c0.081-0.787,0.17-1.543,0.256-2.277c0.154-1.309,0.299-2.545,0.372-3.707l0.337-5.024
			c0.099-1.162,0.12-2.226,0.139-3.163l0.134-5.99l-0.06-2.334c-0.021-0.515-0.033-1.133-0.046-1.836
			c-0.026-1.348-0.058-3.025-0.181-4.992l-0.313-5.021c-0.068-1.159-0.215-2.393-0.37-3.697c-0.088-0.737-0.178-1.496-0.259-2.275
			c-0.186-1.923-0.499-3.971-0.831-6.139l-0.116-0.766c-0.26-1.994-0.682-4.051-1.128-6.227l-0.314-1.545
			c-2.634-12.926-6.996-25.613-12.965-37.707c-7.876-15.886-17.926-29.561-29.872-40.646c-3.254-3.136-6.876-5.982-10.613-8.866
			l-4.316-2.996c-0.243-0.162-0.51-0.324-0.777-0.486c-0.234-0.143-0.47-0.286-0.7-0.436l-3.004-1.895
			c-0.597-0.344-1.236-0.693-1.876-1.045c-0.402-0.221-2.773-1.535-2.773-1.535l-1.569-0.75l-3.247-1.588
			c-0.639-0.253-1.34-0.551-2.042-0.85c-1.48-0.63-3.011-1.281-4.557-1.761l-1.752-0.608c-0.516-0.191-1.089-0.4-1.653-0.547
			l-3.544-1.031c-0.701-0.2-1.417-0.352-2.174-0.512c-0.453-0.096-0.907-0.191-1.358-0.299l-1.788-0.397l-1.759-0.262
			c-0.46-0.069-0.919-0.148-1.378-0.229c-0.772-0.135-1.501-0.262-2.243-0.339l-3.705-0.355c-0.756-0.088-1.501-0.1-2.291-0.111
			c-0.471-0.007-0.942-0.014-1.414-0.037l-2.012-0.057l-5.313,0.148l-0.371,0.043l-3.582,0.355c-0.49,0.029-0.991,0.115-1.522,0.206
			l-2.175,0.362l-1.928,0.293l-1.83,0.41c-4.783,0.982-9.797,2.573-14.916,4.731c-5.588,2.399-10.293,4.88-14.376,7.579
			c-9.155,5.781-17.87,13.367-25.917,22.557c-4.461,5.208-7.922,9.762-10.886,14.324l-1.29,1.921l-1.186,1.927
			c-0.281,0.467-0.574,0.938-0.866,1.408c-0.517,0.832-1.034,1.666-1.521,2.518c-0.341,0.616-0.694,1.244-1.048,1.873
			c-1.142,2.027-2.321,4.125-3.328,6.256c-5.379,10.563-9.641,22.459-12.678,35.383c-0.239,0.994-0.438,1.99-0.636,2.988
			c-0.11,0.558-0.222,1.115-0.339,1.672c-0.089,0.454-0.186,0.924-0.282,1.393c-0.22,1.066-0.448,2.17-0.604,3.252l-0.196,1.291
			c-0.41,2.676-0.833,5.445-1.1,8.176c-0.795,6.183-0.949,12.521-1.098,18.652L181.088,420.922z"/>
		<path fill="#99CA3C" d="M400.081,420.914c0,0-0.021-0.802-0.06-2.355c-0.063-1.554-0.041-3.863-0.229-6.867
			c-0.094-1.5-0.198-3.176-0.313-5.021c-0.109-1.844-0.408-3.845-0.632-6.012c-0.21-2.17-0.578-4.484-0.954-6.953
			c-0.322-2.477-0.897-5.072-1.45-7.818c-2.233-10.961-6.207-24.09-13.049-37.952c-6.841-13.799-16.611-28.431-30.089-40.936
			c-3.302-3.183-6.967-6.058-10.682-8.925c-0.962-0.668-1.93-1.338-2.901-2.013l-1.455-1.013c-0.491-0.328-1.009-0.619-1.506-0.94
			c-1-0.631-2.005-1.265-3.014-1.901c-1.03-0.595-2.085-1.154-3.128-1.738l-1.57-0.869l-1.621-0.778
			c-1.076-0.526-2.156-1.054-3.24-1.585c-2.233-0.895-4.421-1.945-6.741-2.666l-1.721-0.598c-0.569-0.213-1.142-0.419-1.731-0.571
			c-1.168-0.339-2.339-0.681-3.515-1.022c-1.176-0.337-2.387-0.541-3.581-0.824l-1.801-0.4l-1.828-0.274
			c-1.219-0.183-2.432-0.444-3.665-0.573c-1.233-0.119-2.472-0.238-3.715-0.357c-1.24-0.144-2.498-0.09-3.75-0.15l-1.886-0.056
			c-0.354,0.003,0.22-0.015,0.062-0.009l-0.266,0.008l-0.529,0.014l-1.061,0.029l-2.125,0.061l-1.064,0.029l-0.533,0.015
			l-0.447,0.048c-1.189,0.117-2.381,0.236-3.576,0.355c-0.586,0.033-1.227,0.154-1.859,0.261l-1.902,0.315l-1.914,0.291
			l-1.898,0.422c-5.088,1.045-10.129,2.697-15.086,4.787c-4.938,2.121-9.872,4.581-14.539,7.666
			c-9.461,5.975-18.25,13.746-26.119,22.732c-3.882,4.533-7.638,9.307-10.971,14.438l-1.282,1.908l-1.206,1.961
			c-0.797,1.314-1.637,2.612-2.404,3.953c-1.496,2.699-3.082,5.381-4.413,8.198c-5.664,11.122-9.83,23.171-12.747,35.581
			c-0.373,1.549-0.649,3.12-0.979,4.682c-0.306,1.567-0.67,3.127-0.897,4.709c-0.479,3.16-0.99,6.323-1.301,9.513
			c-0.818,6.362-0.958,12.79-1.114,19.204c0.08,12.836,1.44,25.682,4.382,38.092c2.976,12.392,7.222,24.406,12.979,35.462
			c1.352,2.802,2.963,5.464,4.481,8.144c0.778,1.33,1.63,2.616,2.437,3.92l1.223,1.944l1.297,1.892
			c3.374,5.084,7.164,9.803,11.074,14.277c7.926,8.863,16.727,16.498,26.141,22.338c4.642,3.023,9.539,5.414,14.421,7.486
			c2.429,1.088,4.95,1.844,7.406,2.709c1.25,0.354,2.497,0.705,3.74,1.055c0.616,0.193,1.243,0.338,1.872,0.465l1.877,0.412
			c5,1.035,10.004,1.725,14.981,1.748l0.931,0.031l0.465,0.016l0.232,0.008c0.147,0.004-0.482,0.01-0.089,0.002l2.112-0.064
			l2.105-0.064l1.051-0.033c0.357-0.008,0.588-0.057,0.889-0.084c1.135-0.131,2.268-0.225,3.399-0.324
			c1.144-0.111,2.389-0.369,3.574-0.539l1.799-0.271l1.771-0.396c1.177-0.277,2.366-0.486,3.527-0.807
			c1.161-0.328,2.317-0.654,3.47-0.98c0.583-0.146,1.148-0.344,1.712-0.551l1.699-0.58c2.292-0.697,4.456-1.725,6.666-2.596
			c1.074-0.518,2.144-1.033,3.209-1.547l1.607-0.758l1.559-0.85c1.035-0.57,2.082-1.115,3.105-1.697
			c1.003-0.623,2.002-1.244,2.996-1.861c0.494-0.314,1.01-0.598,1.499-0.92l1.449-0.99c0.969-0.66,1.933-1.316,2.893-1.971
			c3.703-2.813,7.371-5.631,10.681-8.764c13.518-12.291,23.42-26.785,30.375-40.502c6.953-13.783,11.013-26.887,13.288-37.835
			c0.565-2.743,1.147-5.336,1.487-7.81c0.387-2.467,0.786-4.777,0.985-6.949c0.224-2.167,0.514-4.168,0.63-6.012
			c0.124-1.846,0.236-3.521,0.337-5.021c0.127-1.5,0.127-2.83,0.157-3.977c0.025-1.146,0.047-2.111,0.064-2.889
			C400.063,421.717,400.081,420.914,400.081,420.914z M400.081,420.914c0,0-0.012,0.803-0.035,2.357
			c-0.042,1.554-0.013,3.863-0.145,6.869c-0.201,6.018-0.746,14.836-2.233,26.018c-0.779,5.584-1.821,11.756-3.309,18.426
			c-0.401,1.66-0.764,3.369-1.16,5.107c-0.455,1.724-0.919,3.48-1.392,5.27c-0.448,1.801-1.043,3.59-1.577,5.439
			c-0.275,0.924-0.553,1.854-0.833,2.793c-0.313,0.928-0.63,1.863-0.949,2.807c-5.032,15.096-12.684,31.936-25.52,47.848
			c-3.183,3.984-6.806,7.787-10.694,11.504c-4,3.596-8.22,7.186-12.991,10.258l-1.762,1.197l-1.836,1.111
			c-1.232,0.734-2.48,1.457-3.741,2.174c-2.604,1.283-5.176,2.709-7.942,3.805c-1.375,0.563-2.721,1.219-4.152,1.676
			c-1.424,0.484-2.852,0.971-4.285,1.459c-1.438,0.482-2.933,0.803-4.408,1.211l-2.228,0.576l-2.27,0.441
			c-1.537,0.264-3.003,0.592-4.618,0.797c-1.63,0.188-3.269,0.381-4.914,0.537c-0.396,0.035-0.858,0.096-1.2,0.105l-1.049,0.041
			l-2.105,0.08l-2.111,0.08c0.217-0.004-0.589,0.02-0.618,0.012l-0.297-0.01l-0.594-0.021l-1.188-0.043
			c-6.351-0.088-12.762-1.047-19.029-2.637l-2.351-0.615c-0.788-0.193-1.565-0.422-2.329-0.697
			c-1.534-0.525-3.072-1.049-4.613-1.576c-3.008-1.232-6.031-2.467-8.91-3.992c-5.829-2.914-11.341-6.486-16.432-10.547
			c-10.215-8.117-18.81-18.109-25.754-29.037c-3.445-5.484-6.646-11.117-9.337-16.998l-1.038-2.188l-0.953-2.228
			c-0.625-1.489-1.291-2.958-1.878-4.462c-1.145-3.021-2.318-6.021-3.321-9.086c-4.18-12.198-7.061-24.785-9.041-37.476
			c-1.879-12.712-2.82-25.548-2.856-38.386c-0.01-12.841,1.019-25.672,2.946-38.367c2.039-12.673,5-25.227,9.272-37.357
			c1.024-3.049,2.224-6.029,3.39-9.031c0.599-1.492,1.275-2.951,1.911-4.43l0.97-2.211l1.053-2.17
			c2.729-5.834,5.967-11.412,9.439-16.837c7.002-10.808,15.607-20.659,25.775-28.644c5.064-4,10.541-7.503,16.313-10.365
			c2.854-1.5,5.846-2.711,8.823-3.915c1.525-0.511,3.047-1.021,4.565-1.53c0.755-0.27,1.525-0.488,2.303-0.682l2.321-0.611
			l2.316-0.604l2.348-0.459l2.349-0.42c0.782-0.139,1.55-0.289,2.396-0.363c1.652-0.178,3.302-0.354,4.945-0.528l0.614-0.061
			l0.532-0.022l1.065-0.043l2.124-0.088l1.06-0.043l0.529-0.022l0.265-0.011c0.018-0.006,0.768-0.006,0.59,0l2.338,0.09
			c1.555,0.088,3.111,0.07,4.649,0.256c1.537,0.169,3.07,0.338,4.599,0.506c1.524,0.186,3.023,0.512,4.527,0.764
			c5.97,1.221,11.761,2.912,17.145,5.258c2.739,1.072,5.285,2.475,7.867,3.734c1.242,0.715,2.479,1.428,3.71,2.137l1.822,1.09
			l1.75,1.178c4.738,3.018,8.938,6.553,12.93,10.092c3.877,3.663,7.503,7.408,10.693,11.343c12.876,15.698,20.66,32.4,25.806,47.414
			c0.325,0.938,0.648,1.87,0.97,2.793c0.286,0.935,0.571,1.86,0.854,2.779c0.548,1.841,1.154,3.623,1.613,5.417
			c0.484,1.783,0.96,3.533,1.427,5.251c0.406,1.73,0.804,3.429,1.193,5.092c1.525,6.653,2.603,12.815,3.401,18.394
			c0.19,1.395,0.375,2.754,0.555,4.074c0.191,1.316,0.274,2.61,0.433,3.854c0.278,2.49,0.555,4.821,0.68,7.004
			c0.356,4.354,0.51,8.064,0.657,11.071s0.095,5.315,0.138,6.869C400.071,420.112,400.081,420.914,400.081,420.914z"/>
	</g>
	<g>
		<path fill="#FFFFFF" d="M429.081,341.429l0.007,0.021l0.949,1.787c2.983,5.335,5.446,11.396,7.311,17.994l0.643,2.353
			c0.248,0.851,0.439,1.658,0.582,2.454l0.938,4.765l0.028,0.191c0.427,3.154,0.869,6.417,0.987,9.679
			c0.386,6.41,0.074,13.042-0.927,19.688c-1.86,12.477-6.023,24.971-12.375,37.136c-3.416,6.466-6.727,11.927-10.123,16.701
			l-1.367,1.981l-1.475,1.971c-0.347,0.455-0.684,0.906-1.02,1.358c-0.632,0.849-1.264,1.697-1.926,2.524l-0.98,1.203
			c-1.689,2.076-3.438,4.224-5.264,6.259c-8.025,9.204-17.203,17.935-28.052,26.678c-10.009,7.936-20.753,15.253-31.938,21.753
			l-0.064-0.109l0.063,0.111c-10.883,6.294-22.604,11.912-34.838,16.698c-13.003,4.954-25.158,8.453-37.168,10.699
			c-2.639,0.534-5.347,0.945-7.965,1.344l-1.583,0.241c-1.062,0.152-2.116,0.268-3.171,0.381c-0.553,0.06-1.104,0.119-1.656,0.185
			l-2.406,0.267l-2.443,0.177c-5.789,0.499-12.146,0.579-19.42,0.245c-13.622-0.699-26.412-3.414-38.02-8.071
			c-6.147-2.446-11.974-5.487-17.315-9.04c-2.764-1.746-5.356-3.77-7.863-5.729l-3.655-3.228c-0.564-0.48-1.157-1.044-1.799-1.709
			l-3.363-3.4l-1.613-1.851l-1.745-2.068c-0.452-0.534-0.92-1.087-1.37-1.729l-2.919-4.005l-0.364-0.508l-3.006-4.74
			c-0.053-0.08-0.119-0.193-0.228-0.381c-0.044-0.078-0.082-0.151-0.113-0.223l-0.007,0.003l-1.091-2.069
			c-0.244-0.484-0.491-0.946-0.738-1.408c-0.483-0.905-0.983-1.842-1.4-2.82l-1.857-4.225c-0.415-0.976-0.765-1.961-1.103-2.915
			c-0.172-0.482-0.342-0.964-0.521-1.441c-2.085-6.247-3.452-12.194-4.076-17.713c-0.321-2.121-0.444-4.284-0.562-6.374
			c-0.043-0.785-0.088-1.568-0.143-2.349l-0.006-4.351l0.032-2.14l0.147-2.157c0.25-5.762,1.25-11.277,2.293-16.375
			c1.388-5.837,2.865-10.763,4.522-15.09c6.18-16.406,15.45-31.57,28.339-46.355l1.932-2.232l2.004-2.156
			c0.447-0.473,0.881-0.941,1.311-1.408c0.842-0.912,1.711-1.855,2.607-2.731l3.824-3.851l3.838-3.604
			c4.531-4.213,9.206-8.202,14.295-12.199l3.256-2.522c0.6-0.473,1.218-0.917,1.826-1.353c0.441-0.318,0.879-0.632,1.302-0.954
			l0.648-0.478c1.788-1.319,3.478-2.565,5.135-3.652c3.089-2.138,5.913-3.953,8.181-5.412l1.086-0.698
			c1.691-1.091,3.16-1.95,4.34-2.64c0.594-0.348,1.115-0.653,1.557-0.926l2.041-1.21l0.372,0.617l-0.349-0.631l2.059-1.148
			c0.469-0.253,0.996-0.552,1.596-0.89c1.189-0.67,2.669-1.506,4.451-2.434c7.238-3.861,15.225-7.602,23.729-11.111
			c6.071-2.46,11.857-4.546,17.694-6.377c1.065-0.314,2.124-0.648,3.196-0.984c0.6-0.189,1.203-0.379,1.811-0.566l5.293-1.439
			c1.179-0.339,2.416-0.627,3.611-0.906c0.633-0.147,1.271-0.295,1.91-0.453l2.844-0.678l2.941-0.589
			c19.314-3.952,37.159-4.551,54.546-1.83c4.657,0.705,9.709,1.862,15.437,3.538c4.999,1.629,10.32,3.498,15.557,6.191l1.895,0.916
			l1.927,1.059c1.265,0.706,2.521,1.43,3.776,2.167c0.697,0.464,1.354,0.89,2.01,1.315c1.785,1.16,3.633,2.359,5.373,3.739
			c0.35,0.271,0.714,0.54,1.078,0.812c0.834,0.619,1.696,1.26,2.5,1.992l3.393,2.968c0.781,0.688,1.507,1.433,2.211,2.153
			c0.358,0.368,0.718,0.736,1.085,1.1l1.624,1.65l1.559,1.791c0.347,0.416,0.682,0.805,1.017,1.195
			c0.665,0.773,1.354,1.572,2.024,2.455l0.338,0.457c0.873,1.175,1.75,2.356,2.604,3.557l0.242,0.337
			c0.178,0.246,0.355,0.495,0.486,0.704l2.801,4.452l-0.011,0.007c0.128,0.168,0.233,0.351,0.321,0.503L429.081,341.429z
			 M344.084,516.191c11.457-6.712,21.754-14.349,30.604-22.698c9.619-9.128,17.717-18.812,24.064-28.78
			c1.341-1.969,2.544-4.047,3.707-6.057c0.361-0.623,0.723-1.246,1.086-1.865c0.48-0.843,0.937-1.715,1.391-2.584
			c0.255-0.486,0.509-0.972,0.768-1.453l1.069-2.024l0.972-2.032c2.418-4.865,4.571-10.143,6.783-16.621
			c3.787-11.523,5.882-22.804,6.222-33.517c0.261-4.855,0.032-9.958-0.721-16.078c-0.196-1.916-0.576-3.815-0.944-5.652
			c-0.137-0.687-0.274-1.37-0.402-2.055l-0.943-3.704c-0.119-0.536-0.275-1.076-0.513-1.781l-0.585-1.848
			c-1.764-5.33-3.692-9.801-5.893-13.655l-0.775-1.452l-2.701-4.359c-0.104-0.17-0.193-0.287-0.282-0.404
			c-0.067-0.089-0.134-0.178-0.204-0.276c-0.576-0.775-1.143-1.585-1.709-2.395l-0.271-0.388c-0.391-0.546-0.853-1.105-1.34-1.696
			c-0.299-0.362-0.599-0.724-0.883-1.085l-1.129-1.417l-1.183-1.282c-0.312-0.33-0.622-0.674-0.932-1.018
			c-0.489-0.544-0.978-1.086-1.497-1.6l-2.58-2.508c-0.422-0.438-0.879-0.826-1.276-1.158l-1.368-1.195
			c-1.188-1.109-2.491-2.102-3.752-3.06c-0.602-0.458-1.203-0.917-1.795-1.385l-2.884-1.962l-1.467-1.02c0,0-2.246-1.369-2.638-1.61
			c-0.609-0.376-1.219-0.752-1.836-1.114l-3.076-1.645c-0.234-0.122-0.477-0.258-0.719-0.393c-0.267-0.148-0.533-0.297-0.805-0.435
			l-4.721-2.272c-4.49-1.883-8.59-3.563-12.78-4.81c-15.5-4.952-32.29-6.974-49.925-6.015c-13.479,0.761-26.652,3.238-39.15,7.361
			l-1.428,0.471c-2.135,0.7-4.152,1.363-6.016,2.122l-1.227,0.472c-1.871,0.716-3.638,1.392-5.242,2.132
			c-0.723,0.323-1.421,0.624-2.1,0.917c-1.211,0.521-2.354,1.014-3.396,1.531l-4.52,2.221c-1.057,0.496-1.988,1.009-2.809,1.461
			l-5.256,2.88l-1.99,1.218c-0.436,0.275-0.965,0.596-1.568,0.959c-1.154,0.696-2.59,1.563-4.232,2.652l-4.191,2.781
			c-0.971,0.639-1.965,1.383-3.018,2.17c-0.594,0.445-1.206,0.901-1.841,1.361c-1.573,1.123-3.189,2.418-4.901,3.79l-0.605,0.483
			c-1.597,1.222-3.166,2.615-4.827,4.09l-1.181,1.045c-9.878,8.743-18.685,18.865-26.174,30.081
			c-9.818,14.764-16.637,30.305-20.264,46.192c-1.088,4.387-1.742,8.946-2.371,13.625l-0.436,5.235
			c-0.02,0.292-0.026,0.604-0.033,0.917c-0.008,0.274-0.014,0.55-0.027,0.824l-0.139,3.549c0,0.688,0.018,1.417,0.033,2.146
			c0.01,0.459,0.057,3.17,0.057,3.17l0.135,1.734l0.249,3.605c0.101,0.68,0.192,1.437,0.284,2.193
			c0.195,1.598,0.396,3.248,0.754,4.826l0.35,1.821c0.092,0.543,0.197,1.144,0.354,1.706l0.879,3.584
			c0.177,0.708,0.403,1.403,0.644,2.139c0.144,0.44,0.288,0.882,0.421,1.326l0.549,1.747l0.652,1.654
			c0.171,0.433,0.332,0.87,0.492,1.308c0.27,0.736,0.523,1.431,0.827,2.112l1.545,3.386c0.302,0.698,0.665,1.35,1.049,2.039
			c0.229,0.412,0.46,0.824,0.675,1.244l0.958,1.771l2.784,4.526l0.222,0.3l2.101,2.925c0.27,0.409,0.594,0.801,0.939,1.215
			l1.4,1.702l1.218,1.523l1.271,1.381c3.242,3.65,7.127,7.196,11.556,10.55c4.872,3.641,9.372,6.475,13.751,8.662
			c9.586,5.038,20.512,8.791,32.494,11.166c6.74,1.26,12.414,1.979,17.848,2.266l2.309,0.156l2.262,0.063
			c0.545,0.011,1.099,0.028,1.652,0.047c0.979,0.03,1.959,0.063,2.941,0.059c0.704-0.012,1.424-0.021,2.146-0.028
			c2.327-0.025,4.732-0.053,7.081-0.246c11.838-0.623,24.271-2.881,36.981-6.713c0.98-0.289,1.943-0.616,2.907-0.943
			c0.537-0.183,1.075-0.366,1.616-0.542c0.438-0.15,0.893-0.301,1.347-0.452c1.034-0.343,2.104-0.696,3.118-1.103l1.217-0.476
			c2.522-0.983,5.132-2.002,7.631-3.136c5.751-2.403,11.317-5.439,16.701-8.375L344.084,516.191z"/>
		<path fill="#99CA3C" d="M234.581,326.542c0,0-0.685,0.419-2.011,1.229c-1.314,0.832-3.326,1.968-5.832,3.631
			c-1.253,0.832-2.652,1.761-4.192,2.782c-1.543,1.018-3.126,2.276-4.892,3.554c-1.773,1.267-3.594,2.742-5.544,4.303
			c-1.983,1.518-3.944,3.313-6.045,5.165c-8.376,7.414-17.76,17.421-26.344,30.276c-8.53,12.824-16.315,28.602-20.407,46.525
			c-1.105,4.451-1.763,9.063-2.388,13.713c-0.098,1.168-0.194,2.341-0.292,3.52l-0.149,1.767c-0.038,0.589-0.032,1.183-0.062,1.774
			c-0.047,1.182-0.094,2.369-0.141,3.561c0,1.189,0.043,2.383,0.059,3.578l0.032,1.795l0.137,1.793
			c0.083,1.194,0.165,2.394,0.248,3.598c0.343,2.382,0.524,4.802,1.062,7.172l0.342,1.789c0.101,0.6,0.209,1.197,0.372,1.785
			c0.29,1.181,0.58,2.365,0.872,3.555c0.296,1.187,0.725,2.337,1.076,3.513l0.554,1.761l0.677,1.72
			c0.451,1.147,0.83,2.328,1.336,3.461c0.514,1.128,1.029,2.26,1.548,3.396c0.495,1.146,1.171,2.208,1.744,3.323l0.896,1.661
			c0.18,0.304-0.123-0.184-0.038-0.049l0.139,0.226l0.277,0.451l0.556,0.903l1.113,1.811l0.559,0.908l0.279,0.454l0.265,0.364
			c0.697,0.97,1.396,1.943,2.097,2.918c0.321,0.491,0.746,0.985,1.155,1.48l1.225,1.489l1.209,1.513l1.315,1.433
			c3.448,3.883,7.398,7.424,11.688,10.672c4.306,3.216,8.903,6.259,13.909,8.758c9.904,5.207,21.029,8.932,32.746,11.253
			c5.866,1.096,11.878,1.962,17.988,2.283l2.294,0.155l2.302,0.064c1.536,0.032,3.08,0.112,4.625,0.106
			c3.086-0.055,6.201-0.021,9.307-0.277c12.464-0.656,24.981-3.073,37.187-6.752c1.529-0.451,3.027-0.998,4.545-1.492
			c1.51-0.52,3.043-0.983,4.527-1.578c2.977-1.165,5.971-2.304,8.889-3.629c5.919-2.473,11.555-5.565,17.188-8.638
			c11.075-6.486,21.521-14.089,30.797-22.841c9.243-8.772,17.526-18.457,24.222-28.971c1.75-2.57,3.25-5.297,4.812-7.952
			c0.763-1.34,1.451-2.72,2.177-4.071l1.072-2.029l0.99-2.069c2.715-5.464,4.907-11.106,6.827-16.729
			c3.713-11.296,5.925-22.734,6.274-33.808c0.299-5.531-0.08-10.968-0.727-16.231c-0.271-2.646-0.879-5.209-1.357-7.77
			c-0.318-1.259-0.638-2.514-0.957-3.766c-0.141-0.631-0.328-1.246-0.533-1.854l-0.581-1.832c-1.604-4.848-3.509-9.526-5.978-13.848
			l-0.438-0.822l-0.22-0.41l-0.109-0.205c-0.069-0.13,0.25,0.412,0.047,0.076l-1.112-1.797l-1.108-1.792l-0.554-0.893
			c-0.187-0.307-0.344-0.481-0.518-0.728c-0.681-0.918-1.328-1.852-1.98-2.783c-0.668-0.934-1.514-1.883-2.254-2.825l-1.135-1.422
			l-1.229-1.336c-0.829-0.88-1.604-1.806-2.463-2.651c-0.864-0.842-1.725-1.68-2.584-2.515c-0.418-0.433-0.871-0.823-1.332-1.208
			l-1.353-1.182c-1.75-1.636-3.722-2.996-5.581-4.475c-0.985-0.672-1.967-1.34-2.943-2.006l-1.461-1.013l-1.515-0.925
			c-1.012-0.611-2.007-1.246-3.022-1.841c-1.041-0.558-2.078-1.112-3.11-1.664c-0.52-0.271-1.022-0.575-1.546-0.839l-1.582-0.76
			c-1.057-0.508-2.107-1.016-3.153-1.52c-4.287-1.801-8.562-3.568-12.931-4.867c-17.402-5.562-34.905-6.891-50.263-6.055
			c-15.413,0.869-28.79,3.906-39.409,7.409c-2.658,0.882-5.195,1.675-7.508,2.617c-2.33,0.898-4.531,1.708-6.51,2.621
			c-1.989,0.89-3.867,1.639-5.522,2.461c-1.659,0.814-3.167,1.555-4.517,2.218c-1.363,0.641-2.514,1.306-3.523,1.853
			c-1.006,0.552-1.852,1.016-2.533,1.389C235.285,326.156,234.581,326.542,234.581,326.542z M234.581,326.542
			c0,0,0.7-0.392,2.059-1.147c1.366-0.741,3.352-1.921,6.021-3.311c5.312-2.834,13.221-6.771,23.647-11.074
			c5.227-2.117,11.093-4.301,17.613-6.348c1.637-0.482,3.299-1.023,5.002-1.549c1.721-0.468,3.475-0.944,5.26-1.43
			c1.783-0.512,3.631-0.892,5.5-1.354c0.938-0.223,1.881-0.448,2.835-0.675c0.96-0.192,1.929-0.386,2.905-0.581
			c15.589-3.189,33.998-4.983,54.196-1.823c5.042,0.764,10.147,2,15.31,3.51c5.114,1.666,10.333,3.525,15.379,6.122l1.918,0.927
			l1.881,1.034c1.252,0.7,2.502,1.42,3.753,2.153c2.413,1.613,4.935,3.128,7.267,4.977c1.174,0.908,2.416,1.746,3.527,2.758
			c1.131,0.99,2.266,1.984,3.406,2.981c1.137,1.003,2.161,2.138,3.252,3.212l1.613,1.641l1.518,1.745
			c0.996,1.199,2.014,2.305,2.998,3.601c0.979,1.318,1.965,2.641,2.923,3.988c0.228,0.324,0.513,0.695,0.691,0.986l0.561,0.889
			l1.122,1.782l1.125,1.788c-0.112-0.186,0.311,0.5,0.318,0.529l0.141,0.263l0.277,0.524l0.558,1.051
			c3.099,5.544,5.474,11.576,7.231,17.799l0.643,2.343c0.227,0.779,0.417,1.567,0.561,2.366c0.313,1.591,0.627,3.185,0.941,4.783
			c0.437,3.221,0.879,6.456,0.998,9.713c0.391,6.504,0.053,13.064-0.918,19.504c-1.923,12.904-6.279,25.344-12.271,36.82
			c-3.026,5.727-6.304,11.316-10.052,16.586l-1.376,1.992l-1.452,1.939c-0.978,1.286-1.917,2.598-2.925,3.857
			c-2.044,2.502-4.056,5.019-6.209,7.42c-8.474,9.719-17.935,18.507-27.934,26.566c-10.07,7.983-20.716,15.217-31.814,21.667
			c-11.116,6.429-22.743,11.954-34.701,16.633c-11.994,4.569-24.346,8.283-36.987,10.647c-3.153,0.639-6.334,1.09-9.517,1.58
			c-1.593,0.229-3.193,0.371-4.792,0.561l-2.399,0.266l-2.405,0.174c-6.418,0.553-12.867,0.539-19.302,0.243
			c-12.86-0.659-25.695-3.188-37.693-8.001c-5.997-2.386-11.769-5.377-17.134-8.944c-2.726-1.722-5.271-3.707-7.802-5.684
			c-1.206-1.066-2.408-2.129-3.608-3.188c-0.61-0.521-1.186-1.077-1.742-1.654l-1.689-1.704l-1.682-1.705l-1.57-1.804l-1.538-1.824
			c-0.512-0.606-1.025-1.197-1.513-1.892c-0.979-1.344-1.956-2.684-2.93-4.019l-0.359-0.502l-0.286-0.451l-0.57-0.9l-1.138-1.795
			l-0.567-0.896l-0.284-0.447l-0.141-0.224c-0.014-0.013-0.39-0.661-0.295-0.511l-1.091-2.07c-0.702-1.391-1.495-2.729-2.104-4.154
			c-0.622-1.415-1.243-2.827-1.862-4.234c-0.601-1.414-1.068-2.875-1.602-4.304c-1.928-5.78-3.359-11.641-4.019-17.476
			c-0.441-2.908-0.499-5.814-0.7-8.681c-0.002-1.434-0.003-2.86-0.004-4.282l0.033-2.123l0.145-2.104
			c0.244-5.612,1.205-11.018,2.274-16.244c1.233-5.188,2.664-10.201,4.477-14.932c7.157-19,17.729-34.092,28.159-46.055
			c0.65-0.752,1.295-1.497,1.934-2.236c0.666-0.716,1.326-1.426,1.98-2.129c1.32-1.396,2.561-2.812,3.885-4.106
			c1.301-1.311,2.58-2.598,3.834-3.86c1.295-1.217,2.566-2.41,3.813-3.58c4.999-4.647,9.797-8.661,14.229-12.142
			c1.113-0.863,2.197-1.702,3.251-2.518c1.046-0.824,2.124-1.544,3.121-2.302c2.018-1.486,3.898-2.891,5.726-4.091
			c3.594-2.485,6.729-4.474,9.26-6.104c2.529-1.631,4.556-2.739,5.88-3.555C233.891,326.951,234.581,326.542,234.581,326.542z"/>
	</g>
	<g>
		<path fill="#FFFFFF" d="M151.313,341.156l0.015-0.017l1.074-1.716c3.128-5.251,7.145-10.414,11.928-15.328l1.716-1.732
			c0.612-0.641,1.216-1.21,1.835-1.731l3.656-3.194l0.152-0.121c2.518-1.946,5.122-3.961,7.888-5.693
			c5.358-3.54,11.258-6.586,17.515-9.043c11.734-4.627,24.637-7.268,38.348-7.85c7.308-0.275,13.691-0.139,19.525,0.416l2.399,0.193
			l2.444,0.291c0.566,0.072,1.126,0.139,1.686,0.204c1.051,0.123,2.102,0.245,3.149,0.405l1.532,0.248
			c2.643,0.425,5.377,0.865,8.052,1.429c11.983,2.349,24.134,5.931,37.13,10.954c11.877,4.701,23.586,10.347,34.808,16.783
			l-0.063,0.111l0.065-0.109c10.892,6.277,21.618,13.619,31.88,21.82c10.792,8.784,19.899,17.562,27.85,26.84
			c1.782,2.018,3.492,4.157,5.146,6.225l1.001,1.251c0.662,0.843,1.29,1.698,1.916,2.556c0.327,0.448,0.655,0.896,0.987,1.342
			l1.434,1.951l1.375,2.027c3.326,4.764,6.574,10.229,9.922,16.695c6.206,12.146,10.25,24.58,12.021,36.962
			c0.955,6.547,1.234,13.112,0.829,19.515c-0.131,3.268-0.587,6.524-1.029,9.675l-0.969,4.779c-0.133,0.729-0.324,1.524-0.58,2.413
			l-1.263,4.613l-0.796,2.321l-0.919,2.546c-0.237,0.658-0.481,1.34-0.813,2.051l-2.008,4.53l-0.258,0.569l-2.603,4.974
			c-0.043,0.086-0.108,0.199-0.216,0.388c-0.046,0.077-0.09,0.146-0.137,0.209l0.006,0.004l-1.246,1.98
			c-0.298,0.453-0.574,0.898-0.851,1.343c-0.542,0.872-1.104,1.772-1.742,2.623l-2.729,3.722c-0.638,0.846-1.316,1.643-1.974,2.412
			c-0.332,0.39-0.664,0.777-0.988,1.171c-4.368,4.929-8.835,9.087-13.302,12.387c-1.676,1.339-3.488,2.526-5.239,3.673
			c-0.658,0.431-1.314,0.86-1.963,1.298l-3.765,2.181l-1.869,1.042l-1.941,0.951c-5.115,2.663-10.392,4.556-15.328,6.201
			c-5.748,1.717-10.753,2.9-15.329,3.628c-17.298,2.852-35.065,2.406-54.314-1.363l-2.899-0.557l-2.869-0.658
			c-0.634-0.15-1.256-0.291-1.875-0.431c-1.211-0.272-2.463-0.554-3.669-0.893l-5.247-1.386l-5.039-1.521
			c-5.914-1.818-11.707-3.873-17.713-6.281l-3.813-1.559c-0.709-0.283-1.402-0.596-2.084-0.904c-0.497-0.225-0.987-0.446-1.478-0.65
			l-0.737-0.323c-2.037-0.89-3.961-1.729-5.73-2.62c-3.396-1.607-6.38-3.145-8.778-4.38l-1.146-0.591
			c-1.791-0.92-3.27-1.762-4.456-2.438c-0.599-0.34-1.124-0.64-1.581-0.886l-2.067-1.162l0.348-0.631l-0.371,0.617l-2.024-1.209
			c-0.453-0.278-0.976-0.586-1.568-0.937c-1.175-0.694-2.639-1.558-4.333-2.638c-6.964-4.338-14.195-9.385-21.487-14.994
			c-5.166-4.027-9.865-7.996-14.37-12.135c-0.805-0.766-1.623-1.516-2.45-2.277c-0.464-0.423-0.93-0.852-1.396-1.284l-3.893-3.863
			c-0.883-0.852-1.752-1.779-2.592-2.675c-0.443-0.475-0.891-0.953-1.347-1.428l-2.009-2.124l-1.98-2.253
			c-13.08-14.75-22.521-29.905-28.858-46.322c-1.718-4.387-3.241-9.34-4.653-15.139c-1.09-5.143-2.131-10.686-2.417-16.567
			l-0.154-2.099l-0.046-2.198c-0.021-1.448-0.022-2.897-0.012-4.354c0.053-0.835,0.094-1.616,0.134-2.397
			c0.112-2.126,0.228-4.325,0.552-6.522c0.06-0.438,0.111-0.889,0.164-1.34c0.119-1.031,0.242-2.1,0.475-3.161l0.875-4.422
			c0.205-1.021,0.486-2.021,0.759-2.991c0.14-0.494,0.278-0.99,0.409-1.49l0.618-2.23l0.771-2.246
			c0.187-0.508,0.356-0.992,0.526-1.479c0.338-0.962,0.686-1.957,1.114-2.98l0.228-0.521c0.58-1.343,1.166-2.693,1.777-4.032
			l0.172-0.378c0.123-0.277,0.25-0.556,0.366-0.773l2.455-4.652l0.011,0.006c0.082-0.194,0.188-0.377,0.275-0.529L151.313,341.156z
			 M345.161,327.385c-11.542-6.566-23.304-11.665-34.959-15.154c-12.715-3.767-25.149-5.938-36.957-6.45
			c-2.375-0.177-4.776-0.18-7.099-0.183c-0.721-0.001-1.44-0.002-2.158-0.008c-0.971,0.006-1.953,0.047-2.934,0.088
			c-0.549,0.022-1.096,0.045-1.642,0.063l-2.288,0.086L254.879,306c-5.422,0.339-11.068,1.113-17.785,2.437
			c-11.873,2.481-22.689,6.308-32.138,11.37c-4.335,2.202-8.64,4.951-13.563,8.663c-1.561,1.128-3.016,2.407-4.423,3.644
			c-0.526,0.463-1.05,0.924-1.578,1.377l-2.736,2.668c-0.405,0.371-0.794,0.777-1.286,1.335l-1.308,1.431
			c-3.734,4.192-6.642,8.098-8.88,11.931l-0.869,1.397l-2.426,4.52c-0.095,0.174-0.151,0.311-0.209,0.446
			c-0.043,0.103-0.086,0.204-0.137,0.315c-0.383,0.887-0.801,1.781-1.219,2.677l-0.201,0.429c-0.277,0.611-0.531,1.291-0.799,2.009
			c-0.164,0.44-0.327,0.88-0.498,1.307l-0.662,1.687l-0.52,1.665c-0.131,0.435-0.272,0.876-0.416,1.315
			c-0.227,0.695-0.451,1.39-0.637,2.097l-0.881,3.488c-0.168,0.584-0.276,1.175-0.365,1.685l-0.352,1.782
			c-0.367,1.583-0.574,3.208-0.773,4.779c-0.096,0.75-0.192,1.501-0.302,2.247l-0.257,3.479l-0.15,1.779c0,0-0.063,2.63-0.075,3.09
			c-0.021,0.716-0.042,1.432-0.047,2.146l0.114,3.486c0.012,0.265,0.015,0.542,0.02,0.819c0.004,0.306,0.009,0.61,0.025,0.914
			l0.393,5.225c0.614,4.83,1.209,9.22,2.225,13.473c3.461,15.899,10.105,31.45,19.754,46.243
			c7.398,11.293,16.13,21.463,25.95,30.225l1.121,1.001c1.674,1.499,3.257,2.915,4.846,4.149l1.022,0.826
			c1.555,1.263,3.023,2.455,4.467,3.474c0.641,0.464,1.251,0.919,1.844,1.36c1.057,0.787,2.055,1.531,3.024,2.176l4.184,2.804
			c0.957,0.667,1.867,1.217,2.669,1.702l5.122,3.111l2.05,1.115c0.456,0.239,0.998,0.537,1.614,0.877
			c1.181,0.652,2.648,1.463,4.413,2.34l4.505,2.24c1.038,0.521,2.18,1.01,3.388,1.527c0.683,0.293,1.384,0.594,2.1,0.914
			c1.759,0.801,3.688,1.553,5.732,2.35l0.722,0.282c1.856,0.772,3.848,1.435,5.956,2.136l1.494,0.5
			c12.512,4.184,25.681,6.749,39.139,7.627c17.695,1.121,34.563-0.744,50.136-5.548c4.343-1.251,8.619-2.964,12.985-4.759
			l4.752-2.24c0.262-0.129,0.535-0.279,0.811-0.43c0.241-0.131,0.482-0.264,0.727-0.389l3.144-1.654
			c0.596-0.345,1.218-0.723,1.842-1.102c0.393-0.238,2.717-1.635,2.717-1.635l1.435-0.983l2.998-2.019
			c0.539-0.426,1.148-0.885,1.757-1.344c1.286-0.967,2.615-1.967,3.803-3.065l1.403-1.214c0.424-0.35,0.892-0.742,1.301-1.158
			l2.664-2.553c0.525-0.508,1.014-1.051,1.53-1.627c0.31-0.346,0.62-0.689,0.938-1.027l1.238-1.35l1.106-1.393
			c0.289-0.363,0.588-0.721,0.887-1.078c0.503-0.602,0.978-1.17,1.415-1.773l2.16-3.031c0.453-0.609,0.836-1.25,1.241-1.928
			c0.242-0.404,0.484-0.81,0.74-1.206l1.054-1.715l2.528-4.675l0.149-0.342l1.482-3.281c0.219-0.438,0.396-0.915,0.582-1.421
			l0.773-2.063l0.711-1.816l0.561-1.791c1.541-4.633,2.669-9.771,3.359-15.283c0.717-6.039,0.92-11.354,0.625-16.24
			c-0.43-10.82-2.643-22.158-6.576-33.723c-2.279-6.467-4.493-11.741-6.962-16.589l-1.019-2.078l-1.078-1.989
			c-0.263-0.479-0.523-0.967-0.785-1.455c-0.463-0.862-0.926-1.728-1.42-2.576c-0.361-0.604-0.729-1.223-1.098-1.844
			c-1.185-2.003-2.411-4.072-3.753-6.01c-6.458-9.94-14.63-19.578-24.304-28.67c-0.741-0.705-1.506-1.375-2.271-2.047
			c-0.426-0.373-0.854-0.748-1.277-1.129c-0.35-0.305-0.707-0.622-1.064-0.939c-0.814-0.725-1.655-1.474-2.514-2.149l-1.021-0.815
			c-2.112-1.693-4.299-3.443-6.53-5.041c-4.957-3.779-10.37-7.082-15.604-10.276L345.161,327.385z"/>
		<path fill="#99CA3C" d="M235.672,517.041c0,0,0.705,0.385,2.069,1.128c1.378,0.722,3.367,1.896,6.061,3.235
			c1.347,0.668,2.851,1.416,4.506,2.238c1.652,0.828,3.534,1.569,5.523,2.459c1.983,0.903,4.171,1.742,6.498,2.65
			c2.307,0.96,4.842,1.76,7.495,2.652c10.609,3.547,23.967,6.67,39.393,7.677c15.371,0.976,32.928-0.171,50.495-5.59
			c4.408-1.269,8.729-3.005,13.069-4.788c1.061-0.5,2.125-1.002,3.195-1.507l1.604-0.755c0.529-0.26,1.041-0.563,1.568-0.833
			c1.047-0.55,2.098-1.104,3.153-1.659c1.03-0.595,2.042-1.229,3.069-1.84l1.539-0.925l1.484-1.015
			c0.992-0.67,1.989-1.34,2.991-2.014c1.892-1.488,3.896-2.855,5.681-4.505l1.378-1.191c0.47-0.387,0.933-0.779,1.36-1.214
			c0.877-0.842,1.758-1.686,2.643-2.533c0.879-0.85,1.661-1.796,2.503-2.689l1.249-1.359l1.15-1.445
			c0.768-0.965,1.601-1.883,2.33-2.887c0.72-1.01,1.441-2.022,2.166-3.039c0.744-1.002,1.326-2.118,2.006-3.172l0.991-1.605
			c0.173-0.309-0.098,0.197-0.023,0.057l0.126-0.232l0.252-0.467l0.504-0.933l1.012-1.869l0.508-0.938l0.254-0.469l0.183-0.411
			c0.491-1.089,0.985-2.181,1.479-3.274c0.265-0.523,0.48-1.139,0.704-1.74l0.678-1.806l0.705-1.804l0.584-1.855
			c1.639-4.928,2.729-10.119,3.398-15.457c0.632-5.337,0.969-10.84,0.629-16.425c-0.442-11.181-2.779-22.678-6.627-33.985
			c-1.984-5.629-4.24-11.268-7.018-16.721l-1.013-2.064l-1.095-2.025c-0.74-1.346-1.442-2.723-2.221-4.059
			c-1.59-2.645-3.119-5.359-4.893-7.92c-6.801-10.467-15.152-20.099-24.441-28.829c-1.154-1.099-2.377-2.122-3.564-3.19
			c-1.205-1.047-2.373-2.143-3.63-3.131c-2.497-1.996-4.98-4.02-7.587-5.884c-5.102-3.89-10.598-7.224-16.075-10.567
			c-11.155-6.348-22.962-11.592-35.179-15.25c-12.219-3.619-24.748-5.949-37.201-6.491c-3.1-0.23-6.211-0.166-9.292-0.19
			c-1.542,0.01-3.081,0.104-4.614,0.15l-2.293,0.086l-2.287,0.178c-6.09,0.38-12.072,1.303-17.902,2.451
			c-11.639,2.433-22.65,6.236-32.416,11.471c-4.939,2.506-9.457,5.553-13.693,8.744c-2.156,1.559-4.071,3.366-6.049,5.061
			c-0.932,0.905-1.859,1.81-2.783,2.712c-0.477,0.437-0.915,0.907-1.339,1.389l-1.296,1.419c-3.396,3.813-6.496,7.802-9.004,12.101
			l-0.493,0.79l-0.245,0.396l-0.123,0.197c-0.078,0.125,0.232-0.423,0.043-0.079l-1,1.861l-0.998,1.856l-0.496,0.926
			c-0.172,0.315-0.245,0.538-0.371,0.812c-0.455,1.049-0.939,2.076-1.42,3.107c-0.475,1.045-0.874,2.252-1.32,3.365l-0.664,1.693
			l-0.543,1.731c-0.348,1.158-0.762,2.292-1.064,3.458c-0.297,1.17-0.592,2.334-0.886,3.496c-0.165,0.578-0.277,1.166-0.38,1.758
			l-0.348,1.762c-0.541,2.334-0.733,4.721-1.084,7.07c-0.09,1.189-0.178,2.373-0.266,3.553l-0.146,1.771l-0.043,1.773
			c-0.023,1.182-0.076,2.361-0.084,3.538c0.038,1.181,0.076,2.356,0.114,3.526c0.026,0.584,0.013,1.172,0.047,1.758l0.133,1.75
			c0.089,1.168,0.175,2.332,0.261,3.49c0.584,4.613,1.19,9.199,2.25,13.632c3.885,17.852,11.485,33.675,19.889,46.556
			c8.458,12.914,17.777,22.98,26.121,30.426c2.093,1.861,4.047,3.662,6.021,5.193c1.942,1.568,3.744,3.069,5.524,4.327
			c1.765,1.277,3.353,2.528,4.893,3.552c1.535,1.029,2.93,1.965,4.179,2.803c1.236,0.859,2.388,1.524,3.366,2.125
			c0.98,0.595,1.805,1.096,2.469,1.5C234.985,516.625,235.672,517.041,235.672,517.041z M235.672,517.041c0,0-0.69-0.41-2.023-1.209
			c-1.325-0.813-3.34-1.941-5.878-3.559c-5.11-3.184-12.475-8.064-21.415-14.943c-4.446-3.467-9.271-7.455-14.303-12.078
			c-1.237-1.178-2.536-2.346-3.843-3.559c-1.266-1.256-2.555-2.536-3.868-3.84c-1.335-1.289-2.588-2.699-3.923-4.086
			c-0.661-0.701-1.329-1.404-2.002-2.117c-0.646-0.736-1.298-1.479-1.956-2.227c-10.557-11.905-21.314-26.951-28.677-46.023
			c-1.86-4.748-3.342-9.787-4.615-15.014c-1.114-5.262-2.113-10.711-2.388-16.379l-0.156-2.125l-0.045-2.146
			c-0.02-1.435-0.021-2.876-0.012-4.327c0.191-2.896,0.242-5.837,0.677-8.781c0.199-1.471,0.304-2.965,0.624-4.434
			c0.293-1.475,0.586-2.954,0.879-4.44c0.301-1.485,0.771-2.94,1.156-4.423l0.614-2.217l0.753-2.187
			c0.54-1.462,0.988-2.896,1.619-4.397c0.652-1.506,1.304-3.021,1.992-4.525c0.166-0.358,0.346-0.791,0.508-1.092l0.49-0.93
			l0.982-1.863l0.985-1.867c-0.104,0.189,0.278-0.52,0.3-0.541l0.156-0.253l0.316-0.503l0.631-1.008
			c3.252-5.455,7.289-10.528,11.799-15.162l1.707-1.728c0.563-0.586,1.148-1.146,1.77-1.669c1.221-1.066,2.443-2.135,3.672-3.207
			c2.57-1.988,5.15-3.988,7.912-5.721c5.438-3.59,11.287-6.578,17.35-8.957c12.137-4.787,25.088-7.233,38.022-7.783
			c6.473-0.242,12.952-0.199,19.39,0.412l2.414,0.195l2.405,0.288c1.603,0.204,3.208,0.361,4.803,0.604
			c3.188,0.52,6.374,1.003,9.53,1.667c12.654,2.479,24.995,6.278,36.975,10.907c11.949,4.73,23.535,10.332,34.671,16.719
			c11.126,6.413,21.724,13.72,31.755,21.736c9.955,8.103,19.347,16.942,27.715,26.709c2.13,2.41,4.111,4.939,6.127,7.451
			c0.994,1.264,1.918,2.58,2.881,3.869l1.43,1.945l1.354,1.996c3.688,5.281,6.9,10.873,9.861,16.594
			c5.859,11.467,10.088,23.848,11.918,36.645c0.932,6.387,1.228,12.881,0.82,19.311c-0.128,3.221-0.574,6.418-1.021,9.598
			c-0.32,1.578-0.639,3.15-0.957,4.719c-0.145,0.789-0.34,1.566-0.562,2.336l-0.63,2.316l-0.637,2.309l-0.776,2.262l-0.812,2.244
			c-0.27,0.746-0.523,1.486-0.881,2.256c-0.674,1.52-1.347,3.035-2.016,4.547l-0.255,0.563l-0.248,0.473l-0.495,0.943l-0.984,1.883
			l-0.493,0.94l-0.246,0.47l-0.122,0.234c-0.005,0.018-0.379,0.667-0.295,0.51l-1.248,1.98c-0.854,1.303-1.615,2.658-2.546,3.898
			c-0.914,1.246-1.827,2.49-2.736,3.729c-0.924,1.228-1.956,2.363-2.926,3.538c-4.042,4.561-8.402,8.73-13.126,12.219
			c-2.297,1.836-4.785,3.34-7.167,4.947c-1.24,0.718-2.476,1.433-3.706,2.145l-1.855,1.033l-1.894,0.926
			c-4.982,2.596-10.145,4.465-15.206,6.152c-5.109,1.525-10.166,2.793-15.169,3.59c-20.033,3.301-38.39,1.691-53.964-1.359
			c-0.977-0.188-1.944-0.373-2.904-0.557c-0.953-0.219-1.897-0.436-2.834-0.65c-1.868-0.446-3.715-0.813-5.498-1.312
			c-1.786-0.472-3.539-0.936-5.26-1.39c-1.702-0.514-3.371-1.019-5.008-1.513c-6.523-2.005-12.398-4.153-17.629-6.251
			c-1.304-0.533-2.572-1.052-3.805-1.557c-1.237-0.493-2.4-1.067-3.555-1.553c-2.296-1.004-4.453-1.93-6.405-2.913
			c-3.949-1.868-7.239-3.591-9.917-4.966c-2.677-1.376-4.65-2.576-6.018-3.315C236.37,517.435,235.672,517.041,235.672,517.041z"/>
	</g>
	<circle fill="#F26739" cx="290.088" cy="421.914" r="20"/>
</g>
<g id="Layer_5">
	<g>
		<path fill="#2E67B2" d="M616.033,395.417c0,15.12-2.242,28.268-6.721,39.438c-4.48,11.175-10.841,20.498-19.079,27.972
			c-8.243,7.478-18.161,13.021-29.761,16.632c-11.602,3.611-24.441,5.418-38.52,5.418c-6.72,0-14.321-0.295-22.8-0.882
			c-8.482-0.591-16.56-1.803-24.24-3.653V310.745c7.681-1.847,15.84-3.023,24.479-3.527c8.641-0.505,16.32-0.757,23.041-0.757
			c13.92,0,26.64,1.725,38.16,5.166c11.52,3.445,21.396,8.82,29.64,16.128c8.238,7.309,14.599,16.55,19.079,27.721
			C613.791,366.65,616.033,379.963,616.033,395.417z M505.153,456.653c1.759,0.169,4.08,0.295,6.96,0.378
			c2.88,0.087,6.799,0.126,11.76,0.126c20.317,0,35.479-5.418,45.48-16.254c9.997-10.836,15-25.995,15-45.486
			c0-19.821-4.883-35.027-14.641-45.611c-9.761-10.584-24.881-15.876-45.359-15.876c-8.963,0-15.36,0.252-19.2,0.756V456.653z"/>
		<path fill="#2E67B2" d="M619.152,417.594c0-11.593,1.639-21.755,4.92-30.492c3.277-8.733,7.639-16.002,13.08-21.798
			c5.438-5.796,11.678-10.163,18.721-13.104c7.039-2.938,14.238-4.41,21.6-4.41c17.28,0,30.758,5.631,40.439,16.885
			c9.68,11.257,14.521,28.059,14.521,50.399c0,1.682-0.041,3.571-0.12,5.67c-0.082,2.103-0.202,3.993-0.359,5.67h-82.801
			c0.799,10.584,4.357,18.774,10.681,24.57c6.318,5.796,15.479,8.694,27.479,8.694c7.039,0,13.479-0.67,19.32-2.017
			c5.839-1.343,10.439-2.771,13.8-4.284l3.841,24.948c-1.602,0.843-3.803,1.725-6.601,2.646c-2.802,0.925-6,1.764-9.601,2.52
			c-3.6,0.756-7.48,1.386-11.64,1.89c-4.162,0.505-8.399,0.757-12.72,0.757c-11.04,0-20.641-1.725-28.801-5.166
			c-8.159-3.441-14.879-8.229-20.159-14.364c-5.28-6.131-9.202-13.356-11.761-21.672
			C620.432,436.619,619.152,427.508,619.152,417.594z M703.393,403.985c0-4.197-0.563-8.19-1.68-11.97
			c-1.121-3.78-2.76-7.057-4.92-9.828c-2.16-2.772-4.801-4.953-7.92-6.552c-3.12-1.595-6.84-2.395-11.16-2.395
			c-4.481,0-8.4,0.882-11.76,2.646c-3.36,1.764-6.203,4.075-8.521,6.93c-2.321,2.858-4.121,6.135-5.399,9.828
			c-1.283,3.697-2.16,7.478-2.641,11.34H703.393z"/>
		<path fill="#2E67B2" d="M807.072,306.461c24.157,0,42.679,4.623,55.56,13.86c12.878,9.241,19.32,23.688,19.32,43.344
			c0,10.25-1.721,19.026-5.16,26.334c-3.442,7.309-8.441,13.273-15,17.893c-6.563,4.622-14.561,8.024-24,10.206
			c-9.442,2.185-20.242,3.275-32.399,3.275h-15.12v61.488h-30.24V310.745c7.039-1.677,14.839-2.812,23.4-3.401
			C791.99,306.757,799.872,306.461,807.072,306.461z M809.232,333.93c-7.68,0-14.003,0.252-18.96,0.756v59.472h14.64
			c14.558,0,25.759-2.142,33.601-6.426c7.837-4.284,11.76-12.388,11.76-24.318c0-5.709-1.043-10.497-3.12-14.363
			c-2.081-3.863-4.961-6.887-8.64-9.072c-3.683-2.182-8.04-3.737-13.08-4.662C820.393,334.394,814.992,333.93,809.232,333.93z"/>
		<path fill="#2E67B2" d="M886.27,482.861V292.35l29.039-5.04v65.268c3.199-1.173,6.919-2.182,11.16-3.023
			c4.238-0.839,8.438-1.261,12.601-1.261c10.08,0,18.438,1.473,25.08,4.41c6.637,2.941,11.958,7.057,15.96,12.349
			c3.997,5.292,6.84,11.635,8.52,19.025c1.68,7.395,2.521,15.624,2.521,24.696v74.088h-29.04v-69.3
			c0-7.057-0.442-13.061-1.32-18.019c-0.881-4.953-2.321-8.985-4.32-12.096c-2.002-3.106-4.68-5.375-8.04-6.804
			c-3.359-1.426-7.522-2.143-12.479-2.143c-3.84,0-7.763,0.422-11.76,1.261c-4.002,0.842-6.96,1.599-8.881,2.268v104.832H886.27z"/>
		<path fill="#2E67B2" d="M1102.506,351.065c-12.938,50.065-27.952,95.425-45.037,136.08c-3.203,7.56-6.488,14.025-9.852,19.404
			c-3.364,5.374-7.129,9.827-11.291,13.355c-4.167,3.528-8.813,6.088-13.936,7.687c-5.126,1.594-11.051,2.394-17.778,2.394
			c-4.485,0-8.933-0.504-13.335-1.512c-4.406-1.009-7.729-2.103-9.972-3.276l5.28-24.444c5.786,2.352,11.494,3.528,17.119,3.528
			c7.552,0,13.458-1.89,17.719-5.67c4.26-3.78,7.994-9.619,11.212-17.514c-9.161-18.479-17.959-38.639-26.396-60.48
			c-8.438-21.837-15.948-45.021-22.533-69.552h30.96c1.604,7.056,3.57,14.702,5.902,22.932c2.329,8.233,4.86,16.593,7.59,25.074
			c2.73,8.485,5.618,16.928,8.67,25.326c3.053,8.402,6.105,16.215,9.158,23.436c5.096-14.95,9.873-30.87,14.336-47.754
			c4.459-16.884,8.52-33.221,12.184-49.014H1102.506z"/>
	</g>
	<g>
		<path fill="#58595B" d="M504.984,498.127h-11.816v30.785h-6.526v-30.785h-11.816v-4.762h30.159V498.127z"/>
		<path fill="#58595B" d="M541.975,512.922h-17.106v11.23h19.847v4.76h-26.373v-35.547h26.185v4.762h-19.658v10.033h17.106V512.922z
			"/>
		<path fill="#58595B" d="M586.111,517.121l0.053,0.146c0.072,3.597-1.213,6.522-3.854,8.776c-2.641,2.255-6.217,3.382-10.729,3.382
			c-4.565,0-8.276-1.396-11.132-4.188s-4.283-6.359-4.283-10.705v-6.764c0-4.328,1.41-7.897,4.229-10.705
			c2.82-2.808,6.486-4.211,10.998-4.211c4.619,0,8.258,1.103,10.916,3.308c2.659,2.206,3.952,5.172,3.881,8.899l-0.054,0.146h-6.312
			c0-2.393-0.711-4.256-2.135-5.592c-1.423-1.334-3.522-2.002-6.297-2.002c-2.668,0-4.785,0.96-6.352,2.879
			c-1.567,1.918-2.35,4.325-2.35,7.22v6.806c0,2.928,0.801,5.35,2.403,7.269c1.602,1.919,3.764,2.878,6.485,2.878
			c2.703,0,4.754-0.656,6.15-1.971s2.094-3.172,2.094-5.572H586.111z"/>
		<path fill="#58595B" d="M630.917,528.912h-6.499v-15.16h-17.51v15.16h-6.526v-35.547h6.526v15.625h17.51v-15.625h6.499V528.912z"
			/>
		<path fill="#58595B" d="M677.581,528.912h-6.499l-17.349-25.951l-0.161,0.049v25.902h-6.526v-35.547h6.526l17.349,25.928
			l0.161-0.049v-25.879h6.499V528.912z"/>
		<path fill="#58595B" d="M724.411,514.338c0,4.346-1.5,7.946-4.498,10.803c-2.999,2.856-6.889,4.285-11.669,4.285
			c-4.69,0-8.5-1.429-11.427-4.285c-2.928-2.856-4.392-6.457-4.392-10.803v-6.396c0-4.33,1.464-7.927,4.392-10.791
			c2.927-2.865,6.728-4.297,11.399-4.297c4.781,0,8.675,1.432,11.683,4.297c3.008,2.864,4.512,6.461,4.512,10.791V514.338z
			 M717.912,507.893c0-2.963-0.873-5.396-2.618-7.301c-1.746-1.904-4.104-2.855-7.077-2.855c-2.864,0-5.129,0.951-6.794,2.855
			s-2.497,4.338-2.497,7.301v6.445c0,2.994,0.832,5.448,2.497,7.36c1.665,1.913,3.938,2.868,6.821,2.868
			c2.99,0,5.349-0.951,7.076-2.855s2.592-4.362,2.592-7.373V507.893z"/>
		<path fill="#58595B" d="M745.794,524.152h17.966v4.76h-24.492v-35.547h6.526V524.152z"/>
		<path fill="#58595B" d="M806.919,514.338c0,4.346-1.5,7.946-4.498,10.803c-2.999,2.856-6.889,4.285-11.669,4.285
			c-4.69,0-8.5-1.429-11.427-4.285c-2.928-2.856-4.392-6.457-4.392-10.803v-6.396c0-4.33,1.464-7.927,4.392-10.791
			c2.927-2.865,6.728-4.297,11.399-4.297c4.781,0,8.675,1.432,11.683,4.297c3.008,2.864,4.512,6.461,4.512,10.791V514.338z
			 M800.42,507.893c0-2.963-0.873-5.396-2.618-7.301c-1.746-1.904-4.104-2.855-7.077-2.855c-2.864,0-5.129,0.951-6.794,2.855
			s-2.497,4.338-2.497,7.301v6.445c0,2.994,0.832,5.448,2.497,7.36c1.665,1.913,3.938,2.868,6.821,2.868
			c2.99,0,5.349-0.951,7.076-2.855s2.592-4.362,2.592-7.373V507.893z"/>
		<path fill="#58595B" d="M851.018,524.104c-1.038,1.351-2.744,2.575-5.116,3.674s-5.42,1.648-9.144,1.648
			c-4.709,0-8.585-1.355-11.629-4.065s-4.565-6.214-4.565-10.511v-7.422c0-4.297,1.437-7.8,4.311-10.51
			c2.873-2.71,6.584-4.064,11.132-4.064c4.601,0,8.177,1.029,10.729,3.088c2.551,2.059,3.854,4.74,3.907,8.045l-0.054,0.146h-6.177
			c-0.144-1.953-0.909-3.528-2.296-4.725c-1.388-1.196-3.397-1.795-6.029-1.795c-2.703,0-4.884,0.92-6.539,2.757
			c-1.656,1.838-2.484,4.171-2.484,7.001v7.463c0,2.863,0.899,5.217,2.699,7.063c1.799,1.846,4.131,2.768,6.996,2.768
			c2.041,0,3.696-0.215,4.968-0.645s2.193-0.938,2.767-1.521v-7.209h-7.762v-4.443h14.287V524.104z"/>
		<path fill="#58595B" d="M873.276,528.912h-6.525v-35.547h6.525V528.912z"/>
		<path fill="#58595B" d="M913.222,512.922h-17.106v11.23h19.847v4.76h-26.373v-35.547h26.185v4.762h-19.658v10.033h17.106V512.922z
			"/>
		<path fill="#58595B" d="M950.884,519.755c0-1.476-0.604-2.683-1.813-3.622c-1.209-0.939-3.344-1.782-6.405-2.527
			c-4.368-1.042-7.73-2.422-10.084-4.139c-2.354-1.717-3.532-3.967-3.532-6.75c0-2.865,1.303-5.225,3.908-7.08
			c2.604-1.855,5.966-2.783,10.084-2.783c4.297,0,7.748,1.054,10.353,3.161c2.605,2.108,3.863,4.635,3.773,7.581l-0.054,0.146
			h-6.258c0-1.823-0.68-3.301-2.041-4.432c-1.36-1.131-3.303-1.697-5.827-1.697c-2.381,0-4.212,0.472-5.492,1.414
			c-1.28,0.941-1.92,2.159-1.92,3.653c0,1.349,0.693,2.469,2.081,3.362c1.388,0.893,3.684,1.736,6.889,2.533
			c4.207,1.025,7.403,2.441,9.588,4.248c2.184,1.807,3.275,4.109,3.275,6.908c0,2.963-1.302,5.318-3.907,7.068
			c-2.604,1.75-6.028,2.625-10.272,2.625c-4.082,0-7.662-0.989-10.742-2.967c-3.079-1.978-4.574-4.676-4.484-8.094l0.054-0.146
			h6.284c0,2.166,0.823,3.781,2.471,4.847c1.647,1.066,3.787,1.599,6.418,1.599c2.418,0,4.297-0.441,5.641-1.324
			C950.212,522.457,950.884,521.262,950.884,519.755z"/>
	</g>
	<g>
	</g>
	<g>
	</g>
	<g>
	</g>
	<g>
	</g>
	<g>
	</g>
	<g>
	</g>
</g>
</svg>
