<svg version="1.1" id="Layer_1" xmlns="http://www.w3.org/2000/svg" xmlns:xlink="http://www.w3.org/1999/xlink" x="0px" y="0px"
	 width="569.5px" height="88px" viewBox="0 0 569.5 88" enable-background="new 0 0 569.5 88" xml:space="preserve">
<g>
	<g>
		<g>
			<g>
				<defs>
					<rect id="SVGID_1_" x="-25" y="9.45" width="612" height="69.1"/>
				</defs>
				<clipPath id="SVGID_2_">
					<use xlink:href="#SVGID_1_"  overflow="visible"/>
				</clipPath>
				<g clip-path="url(#SVGID_2_)">
					<g>
						<polygon fill="#FBD118" points="152.6,17.55 40.1,17.55 61.2,40.65 40.1,63.65 152.6,63.65 173.7,40.65 						"/>
						<polygon fill="#FAA31A" points="270.9,17.55 158.4,17.55 179.5,40.65 158.4,63.65 270.9,63.65 292,40.65 						"/>
						<polygon fill="#5EC5BE" points="389.199,17.55 276.699,17.55 297.8,40.65 276.699,63.65 389.199,63.65 410.3,40.65 						"/>
						<polygon fill="#90C73E" points="507.6,17.55 395,17.55 416.1,40.65 395,63.65 507.6,63.65 528.6,40.65 						"/>
						<g>
							<rect x="58" y="36.55" fill="none" width="106" height="34.601"/>
							<g enable-background="new    ">
								<path fill="#333333" d="M91.5,44.45v-8.7h3c0.7,0,1.2,0,1.5,0.1c0.5,0.101,0.899,0.301,1.3,0.601c0.5,0.399,0.8,0.899,1,1.5
									c0.2,0.6,0.3,1.3,0.3,2.1c0,0.7-0.1,1.2-0.2,1.8c-0.199,0.5-0.399,0.9-0.6,1.301c-0.2,0.399-0.5,0.6-0.8,0.8
									s-0.601,0.3-1,0.399c-0.4,0.101-0.9,0.101-1.4,0.101H91.5L91.5,44.45z M92.6,43.45h1.9c0.6,0,1-0.101,1.399-0.2
									c0.301-0.1,0.601-0.3,0.801-0.5c0.3-0.3,0.5-0.6,0.6-1.1s0.2-1,0.2-1.7c0-0.9-0.101-1.601-0.4-2.101s-0.7-0.8-1.1-1
									c-0.3-0.1-0.8-0.199-1.5-0.199h-1.8v6.8H92.6z"/>
								<path fill="#333333" d="M100.1,37.05v-1.2h1.101v1.2H100.1z M100.1,44.45v-6.3h1.101v6.3H100.1z"/>
								<path fill="#333333" d="M102.4,42.65l1.101-0.2c0.1,0.399,0.2,0.7,0.5,1c0.3,0.2,0.6,0.3,1.1,0.3s0.9-0.1,1.101-0.3
									c0.199-0.2,0.399-0.4,0.399-0.7c0-0.2-0.1-0.4-0.3-0.6c-0.1-0.101-0.5-0.2-1.1-0.4c-0.801-0.2-1.301-0.4-1.601-0.5
									s-0.5-0.3-0.7-0.6c-0.199-0.301-0.199-0.5-0.199-0.801c0-0.3,0.1-0.5,0.199-0.8c0.101-0.2,0.301-0.399,0.5-0.6
									c0.2-0.101,0.4-0.2,0.7-0.3c0.3-0.101,0.601-0.101,0.9-0.101c0.5,0,0.899,0.101,1.3,0.2c0.4,0.101,0.6,0.3,0.8,0.6
									c0.2,0.2,0.3,0.601,0.4,1l-1,0.101c0-0.3-0.2-0.601-0.4-0.8c-0.2-0.2-0.5-0.301-1-0.301s-0.8,0.101-1.1,0.2
									c-0.2,0.2-0.3,0.4-0.3,0.601c0,0.1,0,0.3,0.1,0.399c0.1,0.101,0.2,0.2,0.4,0.3c0.1,0,0.399,0.101,0.899,0.301
									c0.8,0.199,1.3,0.399,1.601,0.5c0.3,0.1,0.5,0.3,0.699,0.6c0.2,0.2,0.301,0.5,0.301,0.9c0,0.399-0.101,0.699-0.301,1
									c-0.199,0.3-0.5,0.6-0.899,0.699c-0.4,0.2-0.8,0.301-1.3,0.301c-0.801,0-1.4-0.2-1.9-0.5
									C102.8,43.75,102.5,43.25,102.4,42.65z"/>
								<path fill="#333333" d="M113,42.15l1.1,0.1c-0.1,0.7-0.399,1.3-0.899,1.7c-0.5,0.399-1.101,0.6-1.7,0.6
									c-0.9,0-1.601-0.3-2.101-0.8c-0.5-0.6-0.8-1.4-0.8-2.4c0-0.699,0.101-1.3,0.3-1.8c0.2-0.5,0.601-0.899,1-1.1
									c0.5-0.3,1-0.4,1.5-0.4c0.7,0,1.2,0.2,1.7,0.5c0.4,0.3,0.7,0.8,0.8,1.5l-1,0.2c-0.1-0.4-0.3-0.7-0.5-1
									c-0.3-0.2-0.6-0.3-0.899-0.3c-0.5,0-1,0.2-1.3,0.6c-0.301,0.4-0.5,1-0.5,1.8c0,0.801,0.199,1.5,0.5,1.801
									c0.3,0.3,0.699,0.6,1.3,0.6c0.399,0,0.8-0.1,1.1-0.4C112.8,43.15,112.9,42.75,113,42.15z"/>
								<path fill="#333333" d="M114.6,41.35c0-1.199,0.3-2,1-2.6c0.5-0.5,1.2-0.7,2-0.7c0.9,0,1.601,0.3,2.101,0.9
									c0.5,0.6,0.8,1.399,0.8,2.399c0,0.801-0.101,1.5-0.4,1.9c-0.2,0.5-0.6,0.8-1.1,1.1c-0.5,0.301-1,0.4-1.5,0.4
									c-0.9,0-1.601-0.3-2.101-0.8C114.9,43.25,114.6,42.45,114.6,41.35z M115.7,41.35c0,0.801,0.199,1.4,0.5,1.801
									c0.399,0.399,0.8,0.6,1.3,0.6s1-0.2,1.3-0.6c0.4-0.4,0.5-1,0.5-1.801c0-0.8-0.2-1.399-0.5-1.8c-0.3-0.399-0.8-0.6-1.3-0.6
									s-1,0.2-1.3,0.6C115.9,39.95,115.7,40.55,115.7,41.35z"/>
								<path fill="#333333" d="M123.5,44.45l-2.4-6.3h1.101l1.399,3.8c0.101,0.399,0.3,0.8,0.4,1.3c0.1-0.3,0.2-0.7,0.399-1.2
									l1.4-3.8h1.1l-2.399,6.3h-1V44.45z"/>
								<path fill="#333333" d="M132.1,42.45l1.101,0.1c-0.2,0.601-0.5,1.101-1,1.5c-0.5,0.4-1.101,0.5-1.801,0.5
									c-0.899,0-1.699-0.3-2.199-0.899c-0.5-0.601-0.801-1.4-0.801-2.4c0-1.1,0.301-1.9,0.801-2.5s1.3-0.9,2.1-0.9
									s1.5,0.301,2.1,0.9c0.5,0.6,0.801,1.4,0.801,2.4c0,0.1,0,0.199,0,0.3h-4.7c0,0.7,0.2,1.2,0.6,1.6
									c0.4,0.4,0.8,0.601,1.3,0.601c0.4,0,0.7-0.101,1-0.301C131.8,43.25,132,42.95,132.1,42.45z M128.6,40.75h3.5
									c0-0.5-0.2-0.9-0.399-1.2c-0.301-0.399-0.801-0.6-1.301-0.6s-0.899,0.2-1.199,0.5C128.9,39.75,128.7,40.15,128.6,40.75z"/>
								<path fill="#333333" d="M134.6,44.45v-6.3h1v1c0.2-0.4,0.5-0.7,0.7-0.9c0.2-0.1,0.4-0.2,0.7-0.2c0.399,0,0.7,0.101,1.1,0.3
									l-0.399,1c-0.301-0.199-0.5-0.199-0.801-0.199c-0.199,0-0.399,0.1-0.6,0.199c-0.2,0.101-0.3,0.301-0.4,0.601
									c-0.1,0.399-0.199,0.8-0.199,1.2v3.3H134.6L134.6,44.45z"/>
							</g>
						</g>
						<g>
							<rect x="178.6" y="36.55" fill="none" width="106" height="34.601"/>
							<g enable-background="new    ">
								<path fill="#333333" d="M216.2,44.45v-8.7h3c0.699,0,1.199,0,1.5,0.1c0.5,0.101,0.899,0.301,1.3,0.601
									c0.5,0.399,0.8,0.899,1,1.5c0.2,0.6,0.3,1.3,0.3,2.1c0,0.7-0.1,1.2-0.2,1.8c-0.2,0.5-0.399,0.9-0.6,1.301
									c-0.2,0.399-0.5,0.6-0.8,0.8c-0.301,0.2-0.601,0.3-1,0.399c-0.4,0.101-0.9,0.101-1.4,0.101H216.2L216.2,44.45z M217.4,43.45
									h1.9c0.6,0,1-0.101,1.3-0.2s0.601-0.3,0.8-0.5c0.301-0.3,0.5-0.6,0.601-1.1c0.1-0.5,0.2-1,0.2-1.7
									c0-0.9-0.101-1.601-0.4-2.101s-0.7-0.8-1.1-1c-0.301-0.1-0.801-0.199-1.5-0.199H217.4V43.45z"/>
								<path fill="#333333" d="M229.2,42.45l1.1,0.1c-0.2,0.601-0.5,1.101-1,1.5c-0.5,0.4-1.1,0.5-1.8,0.5
									c-0.9,0-1.7-0.3-2.2-0.899c-0.5-0.601-0.8-1.4-0.8-2.4c0-1.1,0.3-1.9,0.8-2.5s1.3-0.9,2.1-0.9c0.801,0,1.5,0.301,2.101,0.9
									c0.5,0.6,0.8,1.4,0.8,2.4c0,0.1,0,0.199,0,0.3h-4.7c0,0.7,0.2,1.2,0.601,1.6c0.399,0.4,0.8,0.601,1.3,0.601
									c0.399,0,0.7-0.101,1-0.301C228.8,43.25,229,42.95,229.2,42.45z M225.7,40.75h3.5c0-0.5-0.2-0.9-0.4-1.2
									c-0.3-0.399-0.8-0.6-1.3-0.6s-0.9,0.2-1.2,0.5C225.9,39.75,225.7,40.15,225.7,40.75z"/>
								<path fill="#333333" d="M231.2,42.65l1.1-0.2c0.1,0.399,0.2,0.7,0.5,1s0.7,0.3,1.1,0.3c0.5,0,0.9-0.1,1.101-0.3
									s0.399-0.4,0.399-0.7c0-0.2-0.1-0.4-0.3-0.6c-0.1-0.101-0.5-0.2-1.1-0.4c-0.8-0.2-1.3-0.4-1.601-0.5
									c-0.3-0.1-0.5-0.3-0.699-0.6c-0.2-0.301-0.2-0.5-0.2-0.801c0-0.3,0.1-0.5,0.2-0.8c0.1-0.2,0.3-0.399,0.5-0.6
									c0.199-0.101,0.399-0.2,0.699-0.3c0.301-0.101,0.601-0.101,0.9-0.101c0.5,0,0.9,0.101,1.3,0.2c0.4,0.101,0.601,0.3,0.8,0.6
									c0.2,0.2,0.301,0.601,0.4,1l-1,0.101c0-0.3-0.2-0.601-0.4-0.8c-0.199-0.2-0.5-0.301-1-0.301s-0.8,0.101-1,0.2
									c-0.199,0.2-0.3,0.4-0.3,0.601c0,0.1,0,0.3,0.101,0.399c0.1,0.101,0.199,0.2,0.399,0.3c0.101,0,0.4,0.101,0.9,0.301
									c0.8,0.199,1.3,0.399,1.6,0.5c0.3,0.1,0.5,0.3,0.7,0.6c0.2,0.2,0.3,0.5,0.3,0.9c0,0.399-0.1,0.699-0.3,1
									c-0.2,0.3-0.5,0.6-0.9,0.699c-0.399,0.2-0.8,0.301-1.3,0.301c-0.8,0-1.399-0.2-1.899-0.5
									C231.6,43.75,231.3,43.25,231.2,42.65z"/>
								<path fill="#333333" d="M237.7,37.05v-1.2h1.1v1.2H237.7z M237.7,44.45v-6.3h1.1v6.3H237.7z"/>
								<path fill="#333333" d="M240.2,45.05l1,0.2c0,0.3,0.199,0.6,0.399,0.7c0.3,0.2,0.601,0.3,1.101,0.3s0.899-0.1,1.1-0.3
									c0.3-0.2,0.5-0.5,0.5-0.8c0.1-0.2,0.1-0.7,0.1-1.4c-0.5,0.5-1,0.8-1.699,0.8c-0.9,0-1.5-0.3-2-0.899
									c-0.5-0.601-0.7-1.4-0.7-2.301c0-0.6,0.1-1.199,0.3-1.699s0.5-0.9,0.9-1.2c0.399-0.3,0.899-0.4,1.5-0.4
									c0.699,0,1.399,0.3,1.8,0.9v-0.8h1v5.399c0,1-0.101,1.7-0.3,2.101c-0.2,0.399-0.5,0.699-0.9,1c-0.4,0.3-1,0.399-1.6,0.399
									c-0.801,0-1.4-0.2-1.801-0.5C240.4,46.25,240.2,45.75,240.2,45.05z M241.1,41.25c0,0.8,0.2,1.4,0.5,1.8
									c0.3,0.4,0.7,0.601,1.2,0.601s0.9-0.2,1.2-0.601c0.3-0.399,0.5-1,0.5-1.8s-0.2-1.4-0.5-1.7c-0.3-0.399-0.8-0.6-1.2-0.6
									c-0.5,0-0.9,0.2-1.2,0.6C241.2,39.95,241.1,40.45,241.1,41.25z"/>
								<path fill="#333333" d="M247.2,44.45v-6.3h1v0.899c0.5-0.7,1.1-1,2-1c0.399,0,0.699,0.101,1,0.2c0.3,0.1,0.6,0.3,0.699,0.5
									c0.101,0.2,0.301,0.5,0.301,0.8c0,0.2,0.1,0.5,0.1,1v3.9h-1.1v-3.8c0-0.4,0-0.801-0.101-1c-0.1-0.2-0.2-0.4-0.399-0.5
									c-0.2-0.101-0.5-0.2-0.7-0.2c-0.5,0-0.8,0.1-1.2,0.399c-0.3,0.301-0.5,0.801-0.5,1.601v3.399h-1.1V44.45z"/>
							</g>
						</g>
						<g>
							<rect x="294.699" y="36.55" fill="none" width="106" height="34.601"/>
							<g enable-background="new    ">
								<path fill="#333333" d="M327.699,44.45V35.85h6.2v1h-5.1v2.601h4.8v1h-4.8v2.899h5.3v1h-6.4V44.45z"/>
								<path fill="#333333" d="M335.5,44.45v-6.2h1v0.9c0.5-0.7,1.1-1,2-1c0.399,0,0.699,0.1,1,0.199
									c0.3,0.101,0.6,0.301,0.699,0.5c0.2,0.2,0.301,0.5,0.301,0.801c0,0.199,0.1,0.5,0.1,1v3.8h-1.1v-3.8c0-0.4,0-0.801-0.101-1
									c-0.1-0.2-0.2-0.4-0.399-0.5c-0.2-0.101-0.5-0.2-0.7-0.2c-0.5,0-0.8,0.1-1.2,0.399c-0.3,0.301-0.5,0.801-0.5,1.601v3.399
									h-1.1V44.45z"/>
								<path fill="#333333" d="M342.1,44.95l1,0.2c0,0.3,0.2,0.5,0.4,0.699c0.3,0.2,0.6,0.301,1.1,0.301s0.9-0.101,1.1-0.301
									c0.301-0.199,0.4-0.5,0.5-0.8c0.101-0.2,0.101-0.7,0.101-1.399c-0.5,0.5-1,0.8-1.7,0.8c-0.9,0-1.5-0.3-2-0.9
									c-0.5-0.6-0.7-1.399-0.7-2.2c0-0.6,0.101-1.1,0.3-1.6c0.2-0.5,0.5-0.9,0.9-1.2c0.399-0.3,0.899-0.399,1.399-0.399
									c0.7,0,1.301,0.3,1.801,0.899v-0.8h1v5.4c0,1-0.101,1.699-0.301,2.1c-0.199,0.4-0.5,0.7-0.899,1c-0.4,0.2-1,0.4-1.601,0.4
									c-0.699,0-1.3-0.2-1.8-0.5C342.3,46.15,342,45.65,342.1,44.95z M342.9,41.15c0,0.8,0.2,1.399,0.5,1.8
									c0.3,0.399,0.7,0.6,1.2,0.6s0.9-0.2,1.2-0.6c0.3-0.4,0.5-1,0.5-1.8c0-0.801-0.2-1.301-0.5-1.7c-0.3-0.4-0.7-0.601-1.2-0.601
									s-0.9,0.2-1.2,0.601C343.1,39.85,342.9,40.45,342.9,41.15z"/>
								<path fill="#333333" d="M348.9,37.05v-1.2H350v1.2H348.9z M348.9,44.45v-6.2H350v6.2H348.9z"/>
								<path fill="#333333" d="M351.6,44.45v-6.2h1v0.9c0.5-0.7,1.1-1,2-1c0.4,0,0.7,0.1,1,0.199c0.3,0.101,0.6,0.301,0.7,0.5
									c0.2,0.2,0.3,0.5,0.3,0.801c0,0.199,0.1,0.5,0.1,1v3.8h-1.1v-3.8c0-0.4,0-0.801-0.1-1c-0.101-0.2-0.2-0.4-0.4-0.5
									c-0.2-0.101-0.5-0.2-0.7-0.2c-0.5,0-0.8,0.1-1.2,0.399c-0.3,0.301-0.5,0.801-0.5,1.601v3.399h-1.1V44.45z"/>
								<path fill="#333333" d="M362.6,42.45l1.1,0.1c-0.199,0.601-0.5,1.101-1,1.5c-0.5,0.4-1.1,0.5-1.8,0.5
									c-0.899,0-1.6-0.3-2.2-0.8c-0.6-0.5-0.8-1.4-0.8-2.4s0.3-1.899,0.8-2.399s1.2-0.9,2.101-0.9c0.8,0,1.5,0.3,2,0.9
									c0.5,0.6,0.8,1.399,0.8,2.399c0,0.101,0,0.2,0,0.301H359c0,0.699,0.199,1.199,0.6,1.6c0.3,0.4,0.8,0.5,1.3,0.5
									c0.4,0,0.7-0.1,1-0.3C362.199,43.15,362.4,42.85,362.6,42.45z M359.1,40.65h3.5c0-0.5-0.2-0.9-0.4-1.2
									c-0.3-0.4-0.8-0.601-1.3-0.601s-0.899,0.2-1.2,0.5C359.4,39.65,359.1,40.15,359.1,40.65z"/>
								<path fill="#333333" d="M369.3,42.45l1.1,0.1c-0.2,0.601-0.5,1.101-1,1.5c-0.5,0.4-1.1,0.5-1.8,0.5c-0.9,0-1.6-0.3-2.2-0.8
									c-0.6-0.5-0.8-1.4-0.8-2.4s0.3-1.899,0.8-2.399s1.2-0.9,2.101-0.9c0.8,0,1.5,0.3,2,0.9c0.5,0.6,0.8,1.399,0.8,2.399
									c0,0.101,0,0.2,0,0.301h-4.7c0,0.699,0.2,1.199,0.6,1.6c0.3,0.4,0.8,0.5,1.3,0.5c0.4,0,0.7-0.1,1-0.3
									C368.9,43.15,369.1,42.85,369.3,42.45z M365.8,40.65h3.5c0-0.5-0.2-0.9-0.4-1.2c-0.3-0.4-0.8-0.601-1.3-0.601
									s-0.9,0.2-1.2,0.5C366.1,39.65,365.8,40.15,365.8,40.65z"/>
								<path fill="#333333" d="M371.699,44.45v-6.2h1v0.9c0.2-0.4,0.5-0.7,0.7-0.9c0.2-0.1,0.4-0.2,0.7-0.2
									c0.4,0,0.7,0.101,1.1,0.3l-0.399,1c-0.3-0.199-0.5-0.199-0.8-0.199c-0.2,0-0.4,0.1-0.601,0.199
									c-0.2,0.101-0.3,0.301-0.399,0.601c-0.101,0.399-0.2,0.8-0.2,1.2v3.3H371.699L371.699,44.45z"/>
							</g>
						</g>
						<g>
							<rect x="409.6" y="36.55" fill="none" width="106" height="34.601"/>
							<g enable-background="new    ">
								<path fill="#333333" d="M449.8,44.45v-7.7h-2.9v-1h6.9v1H451v7.7H449.8z"/>
								<path fill="#333333" d="M454.4,44.45v-6.3h1v1c0.2-0.4,0.5-0.7,0.7-0.9s0.4-0.2,0.7-0.2c0.399,0,0.7,0.101,1.1,0.3l-0.399,1
									c-0.301-0.199-0.5-0.199-0.801-0.199c-0.199,0-0.399,0.1-0.6,0.199c-0.2,0.101-0.3,0.301-0.4,0.601
									c-0.1,0.399-0.199,0.8-0.199,1.2v3.3H454.4L454.4,44.45z"/>
								<path fill="#333333" d="M462.6,43.75c-0.4,0.3-0.8,0.6-1.1,0.7c-0.4,0.1-0.801,0.2-1.2,0.2c-0.7,0-1.2-0.2-1.601-0.5
									c-0.399-0.301-0.6-0.801-0.6-1.301c0-0.3,0.1-0.6,0.2-0.8c0.1-0.3,0.3-0.5,0.6-0.6c0.3-0.101,0.5-0.3,0.8-0.4
									c0.2-0.1,0.5-0.1,0.9-0.2c0.899-0.1,1.5-0.199,1.899-0.399c0-0.101,0-0.2,0-0.3c0-0.4-0.1-0.7-0.3-0.9
									c-0.3-0.2-0.7-0.4-1.2-0.4s-0.899,0.101-1.1,0.301c-0.2,0.199-0.4,0.5-0.5,0.899l-1-0.1c0.1-0.4,0.3-0.8,0.5-1.101
									c0.2-0.3,0.5-0.5,0.9-0.6c0.399-0.1,0.899-0.2,1.399-0.2s1,0.101,1.3,0.2c0.301,0.1,0.601,0.3,0.7,0.5
									c0.2,0.2,0.3,0.4,0.3,0.7c0,0.2,0.101,0.5,0.101,1v1.399c0,1,0,1.601,0.1,1.9c0,0.3,0.101,0.5,0.3,0.8h-1.1
									C462.699,44.25,462.6,44.05,462.6,43.75z M462.5,41.35c-0.4,0.2-1,0.301-1.7,0.4c-0.4,0.1-0.7,0.1-0.9,0.2
									c-0.2,0.1-0.3,0.2-0.399,0.3c-0.101,0.2-0.101,0.3-0.101,0.5c0,0.3,0.101,0.5,0.3,0.7c0.2,0.2,0.5,0.3,0.9,0.3
									c0.399,0,0.8-0.1,1.1-0.3s0.601-0.4,0.7-0.7c0.101-0.2,0.2-0.6,0.2-1.1V41.35H462.5z"/>
								<path fill="#333333" d="M465.199,44.45v-6.3h1v0.899c0.5-0.7,1.101-1,2-1c0.4,0,0.7,0.101,1,0.2
									c0.301,0.1,0.601,0.3,0.7,0.5c0.101,0.2,0.3,0.5,0.3,0.8c0,0.2,0.101,0.5,0.101,1v3.9h-1.101v-3.8c0-0.4,0-0.801-0.1-1
									c-0.1-0.2-0.2-0.4-0.4-0.5c-0.199-0.101-0.5-0.2-0.699-0.2c-0.5,0-0.801,0.1-1.2,0.399c-0.4,0.301-0.5,0.801-0.5,1.601
									v3.399h-1.101V44.45z"/>
								<path fill="#333333" d="M471.6,42.65l1.1-0.2c0.101,0.399,0.2,0.7,0.5,1c0.301,0.2,0.7,0.3,1.101,0.3
									c0.5,0,0.899-0.1,1.1-0.3s0.4-0.4,0.4-0.7c0-0.2-0.101-0.4-0.3-0.6c-0.101-0.101-0.5-0.2-1.101-0.4
									c-0.8-0.2-1.3-0.4-1.6-0.5s-0.5-0.3-0.7-0.6c-0.2-0.301-0.2-0.5-0.2-0.801c0-0.3,0.101-0.5,0.2-0.8
									c0.1-0.2,0.3-0.399,0.5-0.6c0.2-0.101,0.4-0.2,0.7-0.3c0.3-0.101,0.6-0.101,0.899-0.101c0.5,0,0.9,0.101,1.301,0.2
									c0.399,0.101,0.6,0.3,0.8,0.6c0.2,0.2,0.3,0.601,0.399,1l-1,0.101c0-0.3-0.2-0.601-0.399-0.8c-0.2-0.2-0.5-0.301-1-0.301
									s-0.8,0.101-1.101,0.2c-0.3,0.101-0.3,0.4-0.3,0.601c0,0.1,0,0.3,0.101,0.399c0.1,0.101,0.199,0.2,0.399,0.3
									c0.101,0,0.4,0.101,0.9,0.301c0.8,0.199,1.3,0.399,1.6,0.5c0.3,0.1,0.5,0.3,0.7,0.6c0.2,0.2,0.3,0.5,0.3,0.9
									c0,0.399-0.1,0.699-0.3,1c-0.2,0.3-0.5,0.6-0.9,0.699c-0.399,0.2-0.8,0.301-1.3,0.301c-0.8,0-1.399-0.2-1.899-0.5
									C472,43.75,471.699,43.25,471.6,42.65z"/>
								<path fill="#333333" d="M478.3,44.45v-5.5h-0.9v-0.8h0.9v-0.7c0-0.4,0-0.7,0.1-0.9c0.101-0.3,0.3-0.5,0.5-0.7
									c0.3-0.199,0.601-0.3,1.101-0.3c0.3,0,0.6,0,1,0.101l-0.2,0.899c-0.2,0-0.4-0.1-0.601-0.1c-0.3,0-0.6,0.1-0.699,0.2
									c-0.101,0.1-0.2,0.399-0.2,0.8v0.6h1.2v0.8h-1.2v5.5h-1V44.45z"/>
								<path fill="#333333" d="M485.8,42.45l1.1,0.1c-0.2,0.601-0.5,1.101-1,1.5c-0.5,0.4-1.1,0.5-1.8,0.5
									c-0.9,0-1.7-0.3-2.2-0.899c-0.5-0.601-0.8-1.4-0.8-2.4c0-1.1,0.3-1.9,0.8-2.5s1.3-0.9,2.101-0.9c0.8,0,1.5,0.301,2.1,0.9
									c0.5,0.6,0.8,1.4,0.8,2.4c0,0.1,0,0.199,0,0.3h-4.7c0,0.7,0.2,1.2,0.601,1.6c0.399,0.4,0.8,0.601,1.3,0.601
									c0.4,0,0.7-0.101,1-0.301C485.4,43.25,485.6,42.95,485.8,42.45z M482.3,40.75h3.5c0-0.5-0.2-0.9-0.4-1.2
									c-0.3-0.399-0.8-0.6-1.3-0.6s-0.9,0.2-1.2,0.5C482.5,39.75,482.3,40.15,482.3,40.75z"/>
								<path fill="#333333" d="M488.199,44.45v-6.3h1v1c0.2-0.4,0.5-0.7,0.7-0.9s0.4-0.2,0.7-0.2c0.4,0,0.7,0.101,1.1,0.3l-0.399,1
									c-0.3-0.199-0.5-0.199-0.8-0.199c-0.2,0-0.4,0.1-0.601,0.199c-0.2,0.101-0.3,0.301-0.399,0.601
									c-0.101,0.399-0.2,0.8-0.2,1.2v3.3H488.199L488.199,44.45z"/>
							</g>
						</g>
					</g>
					<g>
						<path fill="#333333" d="M172.6,38.35c-0.1,0.101-0.1,0.101-0.3,0.2c-3.1-3.8-6.5-7.3-9.8-11c-1.7-1.899-3.5-3.8-5.2-5.7
							c-1.5-1.6-3-3.699-5-4.8c-0.3-0.1-0.5,0.101-0.4,0.4c-8.5-1.9-17.699-1.7-26.5-1.5c-9.8,0.3-19.6,1.1-29.3,1.5
							c-9.8,0.5-19.7,0.8-29.5,0.899c-9.8,0.101-19.8-0.1-29.6,0.301c-0.601,0-1,0.8-0.5,1.199c8,6.7,14.899,14.9,21.5,22.801
							c-7.5,7.899-15.4,15.399-22.8,23.3c-0.301,0.1-0.4,0.3-0.4,0.6c-0.2,0.601,0.6,1.3,1.2,0.8c0.1-0.1,0.1-0.1,0.2-0.199
							c9.199,0.6,18.6,0.1,27.899,0c9.9-0.101,19.7,0,29.601-0.101c19.3-0.3,39-0.6,58.1-3.399c0.3-0.101,0.3-0.301,0.2-0.4
							c3.6-4,6.899-8.3,10.3-12.4c3.1-3.699,6.4-7,10-10.199c0.3,0,0.6-0.301,0.6-0.601c0.101-0.1,0.301-0.3,0.4-0.399
							C174.1,39.05,173.3,37.95,172.6,38.35z M162,48.95c-3.7,4.399-7.4,8.899-10.7,13.6c-0.1,0.101-0.1,0.101-0.1,0.3
							C132.1,64.15,112.9,65.45,93.8,65.65c-9.5,0.1-19.1,0.199-28.6,0.199c-9.2,0-18.4-0.5-27.601-0.1
							c7.5-7.3,14.5-15.2,22.101-22.6c0.3-0.301,0.3-0.7,0-1.101c-6.301-8-13.7-14.899-20.801-22c8.9,0.3,17.801,0,26.801-0.1
							c9.899-0.101,19.699-0.4,29.5-0.9c9.5-0.399,18.899-1.3,28.399-1.6c9.7-0.4,19.2,0.3,28.8,0.8c0.9,1.4,2.101,2.6,3.301,3.8
							c1.699,1.9,3.399,3.8,5.199,5.8c3.4,3.801,6.801,7.801,10.301,11.5C167.7,42.25,164.7,45.65,162,48.95z"/>
						<path fill="#333333" d="M290.3,40.35c-3.3,3.601-6.3,7.601-9.601,11.301c-3.3,3.699-6.7,7.3-9.999,11
							c-0.601,0.699,0.399,1.699,1.1,1.1c3.5-3.4,6.8-7.3,9.899-11c3.2-3.8,6.5-7.6,9.2-11.8C291.199,40.45,290.6,39.95,290.3,40.35
							z"/>
						<path fill="#333333" d="M290.199,39.65c-3.3-4.101-6.5-8.301-10-12.2c-2.8-3.2-5.899-7.101-9.3-9.7
							c-0.1-0.1-0.1-0.3-0.399-0.4c-0.101,0-0.101,0-0.101,0l-0.1-0.1c-0.2-0.1-0.4-0.1-0.6,0c-9.101-0.6-18.2-0.4-27.301-0.4
							c-9.399-0.1-18.699-0.1-28-0.1c-18.399-0.1-36.699-0.4-55.1-0.1c1.1,0.399,2.2,1,3.3,1.699c17.2,0.4,34.5,0.101,51.7,0.101
							c9.4,0,18.7,0.1,28,0.1c9,0,18.1,0.4,27-0.3c0,0.1,0.1,0.1,0.1,0.1c7.2,6.801,13.8,14.2,20.101,21.7
							C289.9,40.55,290.4,40.05,290.199,39.65z"/>
						<path fill="#333333" d="M269.8,63.45c-18.4-2.7-37.1-0.101-55.6,0.3c-18.2,0.4-36.5-1.5-54.7-2.4c7.5-5.8,14.8-12,21.8-18.399
							c0.3-0.3,0.3-0.7,0-1c-3.6-4.2-7.3-8.4-10.9-12.601c-2.199-2.6-4.5-5.3-6.8-7.8c-0.1,0-0.1,0-0.1-0.1
							c-0.101-0.101-0.2-0.101-0.3-0.2c-0.9-1.1-1.801-2.4-2.9-3.4c-0.5-0.6-1.3,0.301-0.8,0.801c0.7,0.899,1.5,1.8,2.399,2.6
							c0.101,0.1,0.2,0.3,0.301,0.4c0.1,0.1,0.1,0.1,0.1,0.199c2.1,2.601,4.4,5.101,6.6,7.7c3.7,4.3,7.4,8.5,11.101,12.8
							c-6.8,6.301-13.9,12.301-21.2,18c-0.9,0.9-1.7,1.801-2.5,2.7c0.1,0,0.1,0,0.1,0l0.7,0.4c0.101,0,0.101-0.101,0.101-0.101
							c0.1-0.1,0.3-0.199,0.399-0.3c9.2,0.601,18.4,0.9,27.5,1.3c9.5,0.4,18.9,1,28.4,0.801c18.899-0.4,37.6-2.601,56.5-1.301
							C270,64.05,270.2,63.45,269.8,63.45z"/>
						<path fill="#333333" d="M410,40.85c-3.301-4-6.801-7.899-10-11.899c-3.301-3.9-6.601-8.101-10.5-11.3
							c-0.2-0.101-0.4-0.101-0.601-0.101c-0.1,0-0.1,0-0.1,0c-9.2-0.2-18.4,0.601-27.601,0.9c-9.2,0.2-18.5,0.3-27.7,0.1
							c-18.899-0.1-37.6-1.1-56.399-2.3c-0.8-0.1-0.8,1-0.101,1.2c-0.199,0-0.399,0.3-0.199,0.399c7,7.7,13.8,15.601,19.8,24
							c-6.8,7.801-14.3,14.5-22,21.4c-0.2,0.1-0.2,0.4-0.101,0.6c-0.399,0.4-0.3,1.101,0.4,1.101c9.3-0.3,18.6-1.101,27.9-1.4
							c9.699-0.3,19.3-0.399,28.899-0.1c19,0.399,38,1.3,57,0.1c0.5-0.1,0.5-0.8,0-0.8c-19,0.4-38-0.3-57-0.6
							c-9.3-0.2-18.6-0.2-28,0c-9.2,0.199-18.6,0.399-27.7,1.5c8-6.101,15.2-13.601,21.801-21.2c0.199-0.2,0.3-0.601,0.1-0.8
							c-6-8.9-12.9-17.101-20.9-24.2c-0.1-0.101-0.1-0.101-0.1-0.101h0.1c18.4,1.5,36.9,2,55.4,2.2c9.2,0.101,18.5,0,27.7-0.1
							c9.399-0.2,18.899-0.101,28.2-1.101c0.1,0.101,0.1,0.101,0.1,0.101c3.6,3.3,6.4,7.3,9.6,10.899c3.4,4,6.9,8,10.301,12
							c-5.5,6.9-11.801,12.9-17.5,19.601c-0.2,0.3,0.1,0.7,0.399,0.399c7.2-5.3,13.101-12.699,18.7-19.6
							C410.199,41.55,410.199,41.25,410,40.85z"/>
						<path fill="#333333" d="M528.6,40.25c-3.8-4.5-7.8-8.9-11.9-13.2c-2-2.2-4-4.3-6-6.5c-1.5-1.6-2.6-2.5-4.8-2.5
							c-12.2-0.399-24.5-0.399-36.8-0.5c-12.2-0.1-24.5-0.399-36.8-0.5c-6.3-0.1-12.601-0.1-18.9-0.3c-6.2-0.1-12.6-0.4-18.899-0.1
							c-0.601,0.1-0.601,1,0,1c5.6,0.399,11.3,0.3,16.899,0.399c6,0.101,12,0.101,17.8,0.2c12,0.1,23.8,0.3,35.8,0.5
							s23.801,0.4,35.801,0.6c3.3,0.101,6.2-0.399,8.7,2.2c2,2.2,4.1,4.3,6.1,6.4c4.1,4.3,8.2,8.5,12.4,12.7
							C528.5,40.95,528.9,40.55,528.6,40.25z"/>
						<path fill="#333333" d="M527.6,40.65c-3.4,3.6-6.6,7.3-10,11c-3.6,3.899-7,8.199-11.3,11.5c-0.101,0.1-0.101,0.1-0.101,0.1
							c-8.5-2.1-18-0.6-26.6-0.1c-9.3,0.6-18.7,0.3-28,0.3c-19.1,0-38.3-0.101-57.4,0.1c8.7-5.7,17-13.5,22.301-22.5
							c0.899-1.5-1.101-3.1-1.9-4c-2.1-2.399-4.3-4.6-6.4-6.899c-4.1-4.301-8.3-8.9-13.1-12.4c-0.4-0.4-0.9,0.4-0.6,0.8
							c3.3,3.8,7.199,7.101,10.699,10.601c1.801,1.8,3.5,3.6,5.301,5.399c1.6,1.7,5.8,4.601,4.1,7c-5.7,8.4-13.1,15.5-21.3,21.4
							c-0.2,0.1-0.3,0.6-0.2,0.6l0,0c-1,0-1,1.4,0,1.5c19.1,0.3,38.3,0.101,57.6,0.101c9.4,0,18.7,0.199,28-0.301
							c4.5-0.199,9-0.6,13.5-0.899c4.801-0.3,9.5,0.1,14.301,0.5c0.3,0,0.399-0.101,0.5-0.3c0.1-0.101,0.1-0.101,0.199-0.101
							c3.9-3.1,7-7.5,10.301-11.2c3.5-4,7.1-7.8,10.6-11.699C528.3,40.75,527.9,40.35,527.6,40.65z"/>
					</g>
				</g>
			</g>
		</g>
	</g>
</g>
</svg>
