<svg version="1.1" id="Capa_1" xmlns="http://www.w3.org/2000/svg" xmlns:xlink="http://www.w3.org/1999/xlink" x="0px" y="0px"
	 width="190px" height="179.16px" viewBox="-82.643 -77.927 190 179.16" enable-background="new -82.643 -77.927 190 179.16"
	 xml:space="preserve">
<g>
	<path d="M3.451,17.473c4.922-3.332,12.023-9.23,20.492-17.004c-1.531-0.922-3.152-2.105-4.68-3.602
		c-1.676-1.582-3.027-3.25-4.039-4.852C7.885,0.727,2.373,8.02-0.779,13.082c-1.016,0-9.848,0.156-16.004,6.574
		c-6.527,6.832-6.16,23.387-6.16,23.387s4.188-6.492,12.012-8.328C-1.861,32.621,2.236,26.887,3.451,17.473z"/>
	<polygon points="-5.619,58.746 -4.998,59.321 17.588,47.586 5.572,36.035 	"/>
	<path d="M55.51-16.051l-6.93,7.223v-14.969c1.375-1.395,2.246-2.273,2.246-2.273s21.43-21.66,15.402-25.801
		c-6.035-4.133-25.77,15.91-25.77,15.91s-3.395,3.652-7.758,8.398h-88.309V75.735H48.58V15.289L67.541-4.492L55.51-16.051z
		 M39.998,67.141c-7.457,0-79.559,0-87.02,0c0-7.449,0-78.668,0-86.121c5.641,0,48.238,0,71.898,0
		c-3.238,3.578-6.301,7.016-8.383,9.477c1.016,1.637,2.41,3.352,4.102,4.988c1.57,1.488,3.215,2.738,4.77,3.648
		c3.617-3.375,9.453-9.141,14.633-14.316c0,3.531,0,8.93,0,15.316L8.029,33.485l12.031,11.555l19.938-20.797
		C39.998,43.856,39.998,63.426,39.998,67.141z"/>
	<path d="M79.65-21.144l-8.043-7.68c-1.082-1.063-3.203-0.688-4.633,0.828l-9.082,9.453L69.936-6.98l9.066-9.48
		C80.475-17.972,80.748-20.101,79.65-21.144z"/>
</g>
</svg>
