<?xml version="1.0" encoding="utf-8"?>
<!-- Generator: Adobe Illustrator 16.0.0, SVG Export Plug-In . SVG Version: 6.00 Build 0)  -->
<!DOCTYPE svg PUBLIC "-//W3C//DTD SVG 1.1//EN" "http://www.w3.org/Graphics/SVG/1.1/DTD/svg11.dtd">
<svg version="1.1" id="Layer_1" xmlns="http://www.w3.org/2000/svg" xmlns:xlink="http://www.w3.org/1999/xlink" x="0px" y="0px"
	 width="190px" height="158.9px" viewBox="0 0 190 158.9" enable-background="new 0 0 190 158.9" xml:space="preserve">
<g>
	<path fill="#010101" d="M139.7,35.6l0,96.8h7.4v-4.1h14.7v4.1h7.4V35.6H139.7z M154.4,43.6c3.5,0,6.3,2.8,6.3,6.3
		c0,3.5-2.8,6.3-6.3,6.3c-3.5,0-6.3-2.8-6.3-6.3C148.1,46.4,150.9,43.6,154.4,43.6z M164.3,100.5h-19.8v-3.9h19.8V100.5z
		 M164.3,92.3h-19.8v-3.9h19.8V92.3z M164.3,84.6h-19.8v-3.9h19.8V84.6z M164.3,76.4h-19.8v-3.9h19.8V76.4z"/>
	<path fill="#010101" d="M21.9,121.2h43.4v5.3c-6.8,0.4-11.2,1.2-11.2,2.1c0,1.4,11.4,2.5,25.4,2.5s25.4-1.1,25.4-2.5
		c0-0.9-4.8-1.7-12-2.1v-5.2h43.4v-73H21.9V121.2z M29.4,53.8h99.3v61.1H29.4V53.8z"/>
</g>
<g>
	<g>
		<polygon fill="#010101" points="97.1,65.4 97.1,72.7 108,83.6 97.1,94.5 97.1,101.7 115.3,83.6 		"/>
		<polygon fill="#010101" points="60.5,72.7 60.5,65.4 42.3,83.6 60.5,101.7 60.5,94.5 49.6,83.6 		"/>
	</g>
	<g>
		<path fill="#010101" d="M86.5,82.3l1.9-1.9l-1.9-1.9l-1.9,1.9c-0.8-0.5-1.7-0.9-2.7-1.1v-2.7h-2.7v2.7c-1,0.2-1.9,0.6-2.7,1.1
			l-1.9-1.9l-1.9,1.9l1.9,1.9c-0.5,0.8-0.9,1.7-1.1,2.7h-2.7v2.7h2.7c0.2,1,0.6,1.9,1.1,2.7l-1.9,1.9l1.9,1.9l1.9-1.9
			c0.8,0.5,1.7,0.9,2.7,1.1v2.7h2.7v-2.7c1-0.2,1.9-0.6,2.7-1.1l1.9,1.9l1.9-1.9l-1.9-1.9c0.5-0.8,0.9-1.7,1.1-2.7h2.7v-2.7h-2.7
			C87.4,84,87.1,83.1,86.5,82.3z M80.5,89.3c-1.7,0-3-1.3-3-3c0-1.6,1.3-3,3-3c1.7,0,3,1.3,3,3C83.5,88,82.2,89.3,80.5,89.3z"/>
		<path fill="#010101" d="M89.2,73c-2.4-1.5-5.2-2.4-8.3-2.4c-8.5,0-15.4,6.9-15.4,15.4c0,3.6,1.2,6.8,3.2,9.4l1.9-1.9
			c-1.5-2.1-2.5-4.7-2.5-7.5c0-7,5.7-12.7,12.7-12.7c2.3,0,4.5,0.7,6.4,1.8l-1.5,1.6l6,0.5l-0.6-6.3L89.2,73z"/>
	</g>
</g>
</svg>
