<?xml version="1.0" encoding="utf-8"?>
<!-- Generator: Adobe Illustrator 16.0.0, SVG Export Plug-In . SVG Version: 6.00 Build 0)  -->
<!DOCTYPE svg PUBLIC "-//W3C//DTD SVG 1.1//EN" "http://www.w3.org/Graphics/SVG/1.1/DTD/svg11.dtd">
<svg version="1.1" id="Capa_1" xmlns="http://www.w3.org/2000/svg" xmlns:xlink="http://www.w3.org/1999/xlink" x="0px" y="0px"
	 width="190px" height="190px" viewBox="-69 -69 190 190" enable-background="new -69 -69 190 190" xml:space="preserve">
<g>
	<path d="M65.541-30.856c0.803,0,1.611,0,2.467,0c1.365,0,2.402-0.475,2.346-1.074c-0.035-0.377-0.096-0.777-0.225-1.064
		c-1.041-2.342-2.836-3.799-4.957-5.203c-5.871-3.891-12.557-5.273-19.354-6.305c-9.299-1.41-18.529-0.912-27.711,1.271
		c-3.826,0.912-7.521,2.076-10.992,3.898c-3.023,1.586-5.721,3.086-7.221,6.307c-0.838,1.807-0.311,2.17,1.586,2.17
		C22.834-30.856,44.189-30.856,65.541-30.856z"/>
	<path d="M32.615,60.972c-0.746-2.426-1.971-4.658-2.076-7.316c-0.209-5.328,0.346-10.566,1.645-15.711
		c0.967-3.838,2.232-7.605,3.396-11.402c0.318-1.047,0.66-2.09,1.027-3.191c0.521-1.572-0.402-2.848-2.057-2.85
		c-4.219-0.006-8.193-0.012-12.166,0.061c-0.432,0.006-1.004,0.662-1.25,1.148c-1.314,2.578-2.426,5.277-3.838,7.803
		c-3.453,6.17-7.344,12.053-13.166,16.266c-1.797,1.301-4.111,1.865-6.049,3.002c-1.482,0.871-2.797,0.912-4.26,0.18
		c-0.84-0.422-1.686-0.828-2.564-1.148c-2.012-0.732-4.586,0.066-5.775,1.938c-0.676,1.057-1.063,2.301-1.539,3.477
		c-2.221,5.484-4.473,10.949-6.617,16.465c-1.184,3.023,0.322,5.742,3.496,6.813c2.254,0.754,4.072,1.645,5.012,4.391
		C-12.188,86.7-8.154,91.159-2.74,93.989c8.16,4.271,16.473,4.207,24.705-0.104c0.578-0.301,1.5-0.201,2.182-0.004
		c1.545,0.447,3.002,1.426,4.555,1.561c3.301,0.307,4.748-1.17,6.213-4.9c2.139-5.447,4.23-10.918,6.424-16.34
		c1.352-3.34,0.432-6.156-2.955-7.414C35.471,65.7,33.576,64.101,32.615,60.972z M-5.787,71.601
		c-0.059-6.627,4.975-13.764,12.148-15.012c1.633-0.281,4.344-0.27,5.982-0.012c7.309,1.178,12.301,7.986,12.459,14.582
		C25,79.312,18.184,86.909,9.451,86.864C1.004,86.812-5.723,79.54-5.787,71.601z"/>
	<path d="M35.043-15.126c-11.193,0-22.385-0.008-33.58,0c-2.09,0-2.154,0.063-2.154,2.203c0,8.5,0.002,16.996,0.006,25.494
		c0,1.656,1.344,3,3,3l65.41,0.049c1.654,0,3-1.344,3-3c-0.004-8.557-0.021-17.105,0.025-25.662
		c0.012-1.605-0.475-2.131-2.131-2.125C57.432-15.099,46.234-15.126,35.043-15.126z M35.002,8.618
		c-3.883,0.186-8.414-3.252-8.453-8.27C26.51-5.044,30.6-8.485,35.143-8.362c5.051,0.135,8.32,3.775,8.391,8.434
		C43.604,4.556,40.164,8.542,35.002,8.618z"/>
	<path d="M69.721-27.856H0.264c-0.566,0-1.031,0.443-1.031,0.992v1.016c0,0.549,0.461,0.992,1.031,0.992h69.461
		c0.568,0,1.508-0.443,1.508-0.992v-1.016C71.232-27.413,70.293-27.856,69.721-27.856z"/>
	<path d="M69.721-21.856H0.264c-0.566,0-1.031,0.443-1.031,0.992v1.016c0,0.549,0.461,0.992,1.031,0.992h69.461
		c0.568,0,1.508-0.443,1.508-0.992v-1.016C71.232-21.413,70.293-21.856,69.721-21.856z"/>
</g>
</svg>
