<?xml version="1.0" encoding="utf-8"?>
<!DOCTYPE svg PUBLIC "-//W3C//DTD SVG 1.1//EN" "http://www.w3.org/Graphics/SVG/1.1/DTD/svg11.dtd">
<svg version="1.1" id="Layer_4" xmlns="http://www.w3.org/2000/svg" xmlns:xlink="http://www.w3.org/1999/xlink" x="0px" y="0px"
	 width="335px" height="335px" viewBox="0 0 335 335" enable-background="new 0 0 335 335" xml:space="preserve">
	<path fill="#D2EDF3" d="M317.2,189.3c-1-7.3-2.9-14.6-5.5-21.8c2.5-7,4.3-14.1,5.4-21.1c1-6.6,1.3-13.3,0.9-19.7
		c-0.1-3.3-0.6-6.5-1-9.7l0-0.2l-0.9-4.8c-0.1-0.8-0.3-1.6-0.6-2.5l-0.6-2.4c-1.9-6.6-4.3-12.7-7.3-18l-0.9-1.8l0,0l-0.1-0.1
		c-0.1-0.2-0.2-0.3-0.3-0.5l0,0l-2.8-4.5c-0.1-0.2-0.3-0.5-0.5-0.7l-0.2-0.3c-0.9-1.2-1.7-2.4-2.6-3.6l-0.3-0.5
		c-0.7-0.9-1.4-1.7-2-2.5c-0.3-0.4-0.7-0.8-1-1.2l-1.6-1.8l-1.6-1.7c-0.4-0.4-0.7-0.7-1.1-1.1c-0.7-0.7-1.4-1.5-2.2-2.2l-3.4-3
		c-0.8-0.7-1.7-1.4-2.5-2c-0.4-0.3-0.7-0.5-1.1-0.8c-1.7-1.4-3.6-2.6-5.4-3.7c-0.7-0.4-1.3-0.9-2-1.3c-1.3-0.7-2.5-1.5-3.8-2.2
		l-1.9-1.1l-1.9-0.9c-5.2-2.7-10.6-4.6-15.6-6.2c-4.8-1.4-9.1-2.4-13.2-3.2c-2.7-3.2-5.9-6.5-9.7-10.2c-3.9-3.5-8.2-7.1-13-10.2
		l-1.8-1.2l-1.8-1.1l-3.8-2.2c-0.7-0.3-1.4-0.7-2.1-1.1c-1.9-0.9-3.8-1.9-5.8-2.7c-5.1-2.2-10.9-4-17.4-5.3c-0.5-0.1-1-0.2-1.5-0.3
		c-1-0.2-2-0.4-3.1-0.5l-4.6-0.5c-1.1-0.1-2.1-0.2-3.1-0.2c-0.5,0-1,0-1.6-0.1l-2.3-0.1v0c-0.1,0-0.2,0-0.3,0c-0.2,0-0.3,0-0.4,0
		l-5.6,0.2l-0.6,0.1L156,7.9c-0.8,0.1-1.5,0.2-2.2,0.3l-2.7,0.5l-2.4,0.5l-4.6,1.2c-0.9,0.2-1.7,0.5-2.4,0.7l-4.6,1.6
		c-2.9,1.2-6,2.4-8.9,3.9c-5.7,2.8-11.3,6.4-16.5,10.5c-5.8,4.5-11.1,9.7-16.1,15.6c-7.3,1.3-14.4,3.3-21,5.9
		c-6.3,2.5-12.2,5.5-17.5,9c-2.8,1.7-5.4,3.7-7.9,5.7L49,63.4l-3.7,3.2c-0.6,0.5-1.2,1.1-1.8,1.7l-1.7,1.7C37,75,33,80.2,29.9,85.4
		l-1.1,1.7l0,0l-0.1,0.1c-0.1,0.2-0.2,0.3-0.3,0.5l0,0L26,92.4c-0.1,0.2-0.2,0.5-0.4,0.8l-0.2,0.4c-0.6,1.3-1.2,2.7-1.8,4l-0.2,0.5
		c-0.4,1-0.8,2-1.1,3c-0.2,0.5-0.3,1-0.5,1.5l-0.8,2.2l-0.6,2.2c-0.1,0.5-0.3,1-0.4,1.5c-0.3,1-0.6,2-0.8,3l-0.9,4.4
		c-0.2,1.1-0.4,2.1-0.5,3.2c-0.1,0.5-0.1,0.9-0.2,1.3c-0.3,2.2-0.4,4.4-0.6,6.5c0,0.8-0.1,1.6-0.1,2.4c0,1.5,0,2.9,0,4.4l0,2.2
		l0.2,2.1c0.3,5.9,1.3,11.4,2.4,16.6c1.2,4.8,2.4,9.1,3.8,12.9c-1.4,4-2.7,8.4-4,13.6c-1,5.1-2,10.6-2.3,16.4l-0.1,2.2l0,2.1l0,4.4
		c0.1,0.8,0.1,1.6,0.1,2.3c0.1,2.1,0.2,4.3,0.6,6.4c0.6,5.5,2,11.5,4.1,17.7c0.2,0.5,0.3,1,0.5,1.4c0.3,1,0.7,1.9,1.1,2.9l1.9,4.2
		c0.4,1,0.9,1.9,1.4,2.8c0.2,0.5,0.5,0.9,0.7,1.4l1.1,2.1l0,0c0,0.1,0.1,0.1,0.1,0.2c0.1,0.2,0.2,0.3,0.2,0.4l3,4.7l0.4,0.5l2.9,4
		c0.5,0.6,0.9,1.2,1.4,1.7l1.7,2.1l1.6,1.9l3.4,3.4c0.6,0.7,1.2,1.2,1.8,1.7l3.7,3.2c2.5,2,5.1,4,7.9,5.7c5.3,3.6,11.2,6.6,17.3,9
		c6.8,2.7,14,4.8,21.5,6.1c4.8,5.7,10.1,10.8,15.7,15.3c5.3,4.2,10.8,7.8,16.6,10.6c2.9,1.5,5.9,2.8,8.9,4l0.2,0.1l4.6,1.6
		c0.8,0.3,1.6,0.5,2.4,0.7l2.4,0.6c6.6,1.7,13.1,2.6,19.2,2.7l2,0.1l0,0h0.1c0.2,0,0.4,0,0.6,0v0l5.3-0.2c0.2,0,0.5,0,0.9-0.1l0.4,0
		c1.5-0.1,2.9-0.3,4.4-0.5l0.6-0.1c1.1-0.1,2.1-0.3,3.1-0.5c0.5-0.1,1-0.2,1.5-0.3l2.3-0.5l2.2-0.6c0.5-0.1,1-0.3,1.5-0.4
		c1-0.2,2-0.5,3-0.8l4.3-1.5c1-0.3,2-0.8,3-1.2c0.4-0.2,0.8-0.4,1.2-0.5c2.1-0.8,4-1.8,5.9-2.8c0.7-0.4,1.4-0.7,2.1-1.1
		c1.3-0.7,2.5-1.4,3.8-2.2l1.9-1.1l1.7-1.2c5-3.2,9.2-6.9,13.1-10.4c3.6-3.5,6.7-6.7,9.3-9.8c4.1-0.7,8.7-1.8,13.8-3.4
		c4.9-1.6,10.2-3.5,15.3-6.2l1.9-1l1.9-1l3.8-2.2c0.6-0.4,1.3-0.9,2-1.3c1.8-1.1,3.6-2.3,5.2-3.7c4.5-3.3,8.9-7.5,13.3-12.4
		c0.3-0.4,0.7-0.8,1-1.2c0.7-0.8,1.3-1.6,2-2.4l2.7-3.7c0.6-0.9,1.2-1.8,1.7-2.6c0.3-0.4,0.6-0.9,0.9-1.3l1.2-2l0,0
		c0-0.1,0.1-0.1,0.1-0.2c0.1-0.2,0.2-0.3,0.2-0.4l2.6-5l0.3-0.6l2-4.5c0.3-0.7,0.6-1.4,0.8-2.1l0.9-2.5l0.8-2.3l1.3-4.6
		c0.3-0.9,0.4-1.7,0.6-2.4l1-4.8c0.4-3.2,0.9-6.4,1-9.7C318.4,202.4,318.2,195.9,317.2,189.3z M299.7,207.2
		c-0.7,5.5-1.8,10.7-3.4,15.3l-0.6,1.8l-0.7,1.8l-0.8,2.1c-0.2,0.5-0.4,1-0.6,1.4l-1.5,3.3l-0.1,0.3l-2.5,4.7l-1.1,1.7
		c-0.3,0.4-0.5,0.8-0.7,1.2c-0.4,0.7-0.8,1.3-1.2,1.9l-2.2,3c-0.4,0.6-0.9,1.2-1.4,1.8c-0.3,0.4-0.6,0.7-0.9,1.1L281,250l-1.2,1.3
		c-0.3,0.3-0.6,0.7-0.9,1c-0.5,0.6-1,1.1-1.5,1.6l-2.7,2.6c-0.4,0.4-0.9,0.8-1.3,1.2l-1.4,1.2c-1.2,1.1-2.5,2.1-3.8,3.1
		c-0.6,0.5-1.2,0.9-1.8,1.3l-3,2l-1.4,1c0,0-2.3,1.4-2.7,1.6c-0.6,0.4-1.2,0.8-1.8,1.1l-2.7,1.4c4.8-8.6,8.8-17.9,12.2-28.2l1-2.8
		l0.8-2.8c0.2-0.6,0.4-1.3,0.6-1.9c0.4-1.2,0.7-2.4,1-3.6l1-3.9c4-3.9,7.8-7.8,11.3-11.9c1.8-2,3.6-4.2,5.3-6.3l1-1.2
		c0.7-0.8,1.3-1.7,1.9-2.5c0.3-0.5,0.7-0.9,1-1.4l1.5-2l1.4-2c1.9-2.7,3.8-5.7,5.7-8.9C300.6,196.1,300.4,201.3,299.7,207.2z
		 M205.6,296.4l-1.6,0.8l-3.1,1.5c-0.7,0.3-1.4,0.6-2.1,0.9c-1.5,0.6-3,1.2-4.5,1.7l-1.7,0.6c-0.5,0.2-1.1,0.4-1.6,0.5l-3.5,1
		c-0.7,0.2-1.4,0.3-2.1,0.5c-0.5,0.1-0.9,0.2-1.3,0.3l-1.7,0.4l-1.8,0.3c-0.5,0.1-0.9,0.1-1.4,0.2c-0.8,0.1-1.5,0.2-2.1,0.3l-0.5,0
		c-1,0.1-2,0.2-2.9,0.3c-0.1,0-0.2,0-0.3,0c-0.1,0-0.3,0-0.5,0l-5.1,0.2l-1.6-0.1c-4.4,0-9.3-0.6-14.8-1.7l-1.9-0.4
		c-0.7-0.1-1.3-0.3-1.8-0.4l-3.7-1c-0.7-0.2-1.3-0.5-2-0.7c-1.8-0.6-3.6-1.2-5.4-2c-4.1-1.7-7.6-3.5-10.8-5.3c2-0.1,3.9-0.2,5.7-0.3
		l2.4-0.2l2.4-0.3c0.6-0.1,1.1-0.1,1.7-0.2c1.1-0.1,2.1-0.2,3.2-0.4l1.6-0.2c2.6-0.4,5.3-0.8,8-1.3c5.6-1.1,11.3-2.4,17-4l4.9,1.3
		c1.2,0.3,2.5,0.6,3.7,0.9c0.6,0.1,1.2,0.3,1.9,0.4l2.9,0.7l2.9,0.6c8.9,1.7,17.4,2.8,25.7,3.1c-0.4,0.2-0.8,0.5-1.3,0.7
		C207.9,295.2,205.6,296.4,205.6,296.4z M53.1,248.6l-1.4-1.7c-0.3-0.4-0.7-0.8-0.9-1.2l-2.1-2.9l-0.2-0.3l-2.8-4.5l-1-1.8
		c-0.2-0.4-0.4-0.8-0.7-1.2c-0.4-0.7-0.7-1.3-1-2l-1.5-3.4c-0.3-0.7-0.6-1.4-0.8-2.1c-0.2-0.4-0.3-0.9-0.5-1.3l-0.7-1.7l-0.5-1.7
		c-0.1-0.4-0.3-0.9-0.4-1.3c-0.2-0.7-0.5-1.4-0.6-2.1l-0.9-3.6c-0.2-0.6-0.3-1.2-0.4-1.7l-0.3-1.8c-0.4-1.6-0.6-3.2-0.8-4.8
		c-0.1-0.8-0.2-1.5-0.3-2.2l-0.2-3.6l-0.1-1.7c0,0,0-2.7-0.1-3.2c0-0.7,0-1.5,0-2.1l0.1-3C40,199.8,46,208,53.2,216.1l2,2.3l2,2.1
		c0.5,0.5,0.9,1,1.3,1.4c0.8,0.9,1.7,1.8,2.6,2.7l2.7,2.7c1.4,5.5,2.9,10.7,4.7,15.8c0.8,2.6,1.8,5.2,2.8,7.7l0.6,1.5
		c0.4,1,0.8,2,1.2,2.9c0.2,0.5,0.4,1,0.7,1.6l1,2.3l1,2.2c1.4,3,3,6.1,4.8,9.3c-4.3-2.2-8.6-4.9-13.4-8.5
		c-4.4-3.4-8.3-6.9-11.6-10.5l-1.3-1.4L53.1,248.6z M36.9,139c0-0.5,0.1-3.1,0.1-3.1l0.2-1.8l0.3-3.5c0.1-0.7,0.2-1.5,0.3-2.2
		c0.2-1.6,0.4-3.2,0.8-4.8l0.4-1.8c0.1-0.5,0.2-1.1,0.4-1.7l0.9-3.5c0.2-0.7,0.4-1.4,0.6-2.1c0.1-0.4,0.3-0.9,0.4-1.3l0.5-1.7
		l0.7-1.7c0.2-0.4,0.3-0.9,0.5-1.3c0.3-0.7,0.5-1.4,0.8-2l0.2-0.4c0.4-0.9,0.8-1.8,1.2-2.7c0.1-0.1,0.1-0.2,0.1-0.3
		c0.1-0.1,0.1-0.3,0.2-0.4l2.4-4.5l0.9-1.4c2.2-3.8,5.1-7.7,8.9-11.9l1.3-1.4c0.5-0.6,0.9-1,1.3-1.3l2.7-2.7
		c0.5-0.5,1.1-0.9,1.6-1.4c1.4-1.2,2.9-2.5,4.4-3.6c3.5-2.7,6.7-4.8,9.9-6.6c-0.9,1.7-1.8,3.4-2.5,5.1l-1.1,2.2l-1,2.2
		c-0.2,0.5-0.4,1-0.7,1.5c-0.4,1-0.9,1.9-1.3,2.9l-0.6,1.5c-1,2.5-2,5-2.8,7.6c-1.9,5.4-3.6,10.9-5,16.7l-3.6,3.6
		c-0.9,0.9-1.8,1.8-2.6,2.7c-0.4,0.5-0.9,0.9-1.3,1.4l-2,2.2l-1.9,2.2c-5.9,6.8-11,13.6-15.5,20.6C36.9,139.9,36.9,139.5,36.9,139z
		 M169.6,26.8c0.5,0,0.9,0,1.4,0c0.8,0,1.5,0,2.3,0.1l3.7,0.4c0.7,0.1,1.5,0.2,2.2,0.3c0.5,0.1,0.9,0.2,1.4,0.2l1.8,0.3l1.8,0.4
		c0.5,0.1,0.9,0.2,1.4,0.3c0.8,0.2,1.5,0.3,2.2,0.5l3.5,1c0.6,0.1,1.1,0.4,1.7,0.5l1.8,0.6c1.5,0.5,3.1,1.1,4.6,1.8
		c0.7,0.3,1.4,0.6,2,0.8l3.2,1.6l1.6,0.8c0,0,2.4,1.3,2.8,1.5c0.6,0.4,1.3,0.7,1.9,1l2.5,1.6c-9.8,0.2-19.9,1.3-30.5,3.5l-2.9,0.6
		l-2.8,0.7c-0.6,0.2-1.3,0.3-1.9,0.5c-1.2,0.3-2.4,0.6-3.6,0.9l-3.8,1c-5.4-1.5-10.7-2.8-15.9-3.8c-2.7-0.6-5.4-1-8.1-1.4l-1.5-0.2
		c-1-0.2-2.1-0.3-3.1-0.4c-0.6-0.1-1.1-0.1-1.7-0.2l-2.4-0.3l-2.4-0.2c-3.3-0.3-6.8-0.5-10.5-0.5c4-2.6,8.6-5,14-7.3
		c5.1-2.2,10.1-3.7,14.9-4.7l1.8-0.4l1.9-0.3l2.2-0.4c0.5-0.1,1-0.2,1.5-0.2l3.6-0.4l0.4,0l5.3-0.1L169.6,26.8z M260.2,70.1l1.5,1
		l2.9,2c0.6,0.5,1.2,0.9,1.8,1.4c1.3,1,2.6,2,3.8,3.1l1.4,1.2c0.4,0.3,0.9,0.7,1.3,1.2l2.6,2.5c0.5,0.5,1,1.1,1.5,1.6
		c0.3,0.3,0.6,0.7,0.9,1l1.2,1.3l1.1,1.4c0.3,0.4,0.6,0.7,0.9,1.1c0.5,0.6,0.9,1.2,1.3,1.7l0.3,0.4c0.6,0.8,1.1,1.6,1.7,2.4
		c0.1,0.1,0.1,0.2,0.2,0.3c0.1,0.1,0.2,0.2,0.3,0.4l2.7,4.4l0.8,1.5c2.2,3.9,4.1,8.3,5.9,13.7l0.6,1.8c0.2,0.7,0.4,1.2,0.5,1.8
		l0.9,3.7c0.1,0.7,0.3,1.4,0.4,2.1c0.4,1.8,0.7,3.7,0.9,5.7c0.5,4.4,0.8,8.2,0.8,11.9c-1-1.6-2.1-3.2-3.1-4.7l-1.4-2l-1.4-2
		c-0.3-0.4-0.7-0.9-1-1.3c-0.6-0.9-1.3-1.7-1.9-2.6l-1-1.3c-1.7-2.1-3.4-4.2-5.1-6.2c-3.7-4.4-7.7-8.6-12-12.8l-1.3-4.8
		c-0.3-1.2-0.7-2.4-1.1-3.6c-0.2-0.6-0.4-1.2-0.6-1.8l-0.9-2.8l-1-2.8c-2.9-8.5-6.3-16.5-10.2-23.8c0.4,0.2,0.8,0.5,1.2,0.7
		C258,68.8,260.2,70.1,260.2,70.1z M229.5,279.5c-0.3,0.3-0.6,0.5-0.8,0.7c-13.8,3.5-28.6,4.8-43.9,3.8c-1.8-0.1-3.6-0.3-5.4-0.5
		c2.8-0.9,5.5-1.9,8.4-3c12.2-4.8,24-10.4,34.8-16.7l-0.1-0.1l0.1,0.1c11.2-6.5,21.9-13.8,31.9-21.8c2.2-1.8,4.3-3.5,6.4-5.3
		c-0.4,0.8-0.8,1.6-1.2,2.4C251.7,255.1,241.6,268.6,229.5,279.5z M108.5,259.1c-0.8-0.5-1.7-1-2.7-1.7l-4.2-2.8c-1-0.6-2-1.4-3-2.2
		c-0.6-0.4-1.2-0.9-1.8-1.4c-1.4-1-2.9-2.2-4.5-3.5l-1-0.8c-1.6-1.2-3.2-2.7-4.8-4.1l-1.1-1c-0.6-0.5-1.2-1.1-1.8-1.7
		c4.1,3,8.4,5.9,12.7,8.8l53.9-31.1l0,60.3c0,0,0.1,0,0.1,0c-1.5-0.5-3.1-0.9-4.6-1.5l-1.5-0.5c-2.1-0.7-4.1-1.4-6-2.1l-0.7-0.3
		c-2-0.8-4-1.5-5.7-2.3c-0.7-0.3-1.4-0.6-2.1-0.9c-1.2-0.5-2.3-1-3.4-1.5l-4.5-2.2c-1.8-0.9-3.2-1.7-4.4-2.3
		c-0.6-0.3-1.2-0.6-1.6-0.9l-2-1.1L108.5,259.1z M185,217.6l53.8,31.1c4.6-3,9-6.1,13.3-9.2c0,0,0,0,0,0c-8.8,8.3-19.1,16-30.6,22.7
		l-0.4,0.2c-5.4,2.9-11,6-16.7,8.4c-2.5,1.1-5.1,2.2-7.6,3.1l-1.2,0.5c-1,0.4-2.1,0.8-3.1,1.1c-0.5,0.2-0.9,0.3-1.3,0.5
		c-0.5,0.2-1.1,0.4-1.6,0.5c-1,0.3-1.9,0.7-2.9,0.9c-0.6,0.2-1.2,0.3-1.8,0.5c0.1,0,0.2-0.1,0.2-0.1L185,217.6z M257.2,234.5
		l-72.9-42.1c-0.5,0.4-1.1,0.7-1.6,1c-10.3,5.9-22.6,5.1-31.8-1L78,234.5c-3.2-3.2-6.2-6.7-9.1-10.2c-1.6-4.2-3-8.6-4.3-13.1
		l72.8-42c-0.1-0.6-0.1-1.3-0.1-1.9c0-11.9,6.8-22.1,16.8-27.1V56.4c4.4-1.1,8.9-2.1,13.5-2.8c4.4,0.7,8.9,1.7,13.4,2.8l0,83.8
		c0.6,0.3,1.1,0.6,1.7,0.9c10.3,5.9,15.7,17,15,28.1l72.9,42.1c-1.2,4.5-2.7,8.9-4.4,13.2C263.4,227.9,260.4,231.2,257.2,234.5z
		 M117.8,70.5c0.8-0.5,1.8-1,2.8-1.5l4.5-2.2c1-0.5,2.2-1,3.4-1.5c0.7-0.3,1.4-0.6,2.1-0.9c1.6-0.7,3.4-1.4,5.2-2.1l1.2-0.5
		c1.9-0.8,3.9-1.4,6-2.1l0.5-0.2c-3.6,1.7-7.3,3.4-10.9,5.2V127L80.9,97c1.1-1,2.2-2.1,3.4-3.1l1.2-1c1.7-1.5,3.2-2.9,4.8-4.1
		l0.6-0.5c1.7-1.4,3.3-2.7,4.9-3.8c0.6-0.5,1.2-0.9,1.8-1.4c1.1-0.8,2-1.5,3-2.2l4.2-2.8c1.6-1.1,3.1-2,4.2-2.7
		c0.6-0.4,1.1-0.7,1.6-1l2-1.2L117.8,70.5z M62.6,203.2c-2.6-11.4-3.9-23.6-4-36.3l0-0.5c0.1-6.1,0.3-12.5,1.1-18.7
		c0.3-2.7,0.7-5.5,1.1-8.2l0.2-1.3c0.2-1.1,0.4-2.2,0.6-3.3c0.1-0.5,0.2-0.9,0.3-1.4c0.1-0.6,0.2-1.1,0.3-1.7c0.2-1,0.4-2,0.6-3
		c0.1-0.6,0.3-1.2,0.5-1.8l51.9,30l-53.9,31.1C61.7,193.3,62.1,198.3,62.6,203.2z M59.5,128.4c-2,13-3,25.9-3,38.5l0.1,0l-0.1,0
		c0,12.9,1,25.9,2.9,38.5c0.4,2.7,0.9,5.4,1.4,8c-0.5-0.7-1-1.4-1.4-2.1c-9.6-14.8-16.3-30.3-19.8-46.2c-0.1-0.4-0.2-0.8-0.3-1.2
		c3.9-13.7,10.1-27.1,18.6-39.9c1-1.5,2-3,3.1-4.4C60.6,122.5,60,125.4,59.5,128.4z M271.9,127.2c0.4,1.6,0.8,3.3,1.1,4.9l0.3,1.5
		c0.4,2.2,0.9,4.2,1.1,6.2l0.1,0.8c0.3,2.2,0.6,4.2,0.8,6.1c0.1,0.8,0.2,1.5,0.3,2.3c0.2,1.3,0.3,2.5,0.4,3.7l0.3,5
		c0.1,2,0.2,3.6,0.2,5c0,0.7,0,1.3,0,1.8l0.1,2.3l-0.1,6c0,0.9,0,2-0.1,3.2l-0.3,5c-0.1,1.2-0.2,2.4-0.4,3.7
		c-0.1,0.7-0.2,1.5-0.3,2.3c-0.2,1.8-0.5,3.6-0.8,5.6l-0.2,1.3c-0.3,2-0.7,4.1-1.2,6.3l-0.3,1.5c-0.1,0.4-0.2,0.9-0.3,1.3
		c0.5-4.9,0.9-9.8,1.2-14.8l-53.9-31.1L271.9,127.2z M245.2,88.9l1,0.8c0.9,0.7,1.7,1.4,2.5,2.1c0.4,0.3,0.7,0.6,1.1,0.9
		c0.4,0.4,0.9,0.8,1.3,1.1c0.8,0.7,1.5,1.3,2.3,2c0.3,0.3,0.7,0.6,1,1l-51.9,29.9l0-62.2c-3.8-1.9-7.6-3.7-11.4-5.5
		c10.6,3.4,21.2,8.2,31.6,14.1l0.4,0.2c5.2,3.2,10.6,6.5,15.6,10.3C240.9,85.5,243.1,87.3,245.2,88.9z M285.2,194.7l-1,2l-1.1,2
		c-0.3,0.5-0.5,1-0.8,1.5c-0.5,0.9-0.9,1.7-1.4,2.6c-0.4,0.6-0.7,1.2-1.1,1.9c-1.2,2-2.4,4.1-3.7,6.1c-0.6,1-1.3,2-2,3
		c0.7-3.7,1.3-7.5,1.9-11.4c1.2-9.1,2-17.9,2.2-26.1c0.1-2,0.1-3.7,0.1-5.1c0-0.7,0-1.3,0-1.8l0-2.4l-0.7,0l0.7,0l0-2.4
		c0-0.5,0-1.1,0-1.8c0-1.4,0-3.1-0.1-5.1l-0.1-1.3c-0.1-2.7-0.3-6-0.6-9.8c-0.1-2-0.3-4.1-0.6-6.3l-0.1-0.8
		c-0.1-0.5-0.1-1.1-0.2-1.6c-0.1-0.7-0.1-1.5-0.3-2.3l-0.6-4.1c-0.6-4.2-1.3-8.2-2.1-12.1c1.3,1.7,2.5,3.5,3.6,5.3
		c1.3,1.9,2.6,4,3.8,6c0.4,0.6,0.7,1.2,1.1,1.8c0.5,0.8,1,1.7,1.4,2.6c0.3,0.5,0.5,1,0.8,1.5l1.1,2l1,2.1c2.5,4.8,4.7,10.1,7,16.6
		c0.8,2.2,1.4,4.5,2.1,6.7c-1,4.7-2.2,9.4-3.8,14.1C289.8,184.6,287.7,189.8,285.2,194.7z M260,94.4c0.8,1.6,1.5,3.2,2.2,4.8
		c-2.2-1.9-4.4-3.8-6.7-5.7c-10.3-8.2-21-15.5-31.9-21.8l-0.1,0.1l0.1-0.1c-11.2-6.4-22.9-12.1-34.8-16.8c-2.6-1-5.2-2-7.8-2.8
		c0.9-0.1,1.7-0.1,2.6-0.2c17.6-1,34.4,1.1,49.9,6c0.4,0.1,0.7,0.2,1,0.3C244.7,68.4,253.2,80.6,260,94.4z M114.6,54.4
		c6.7-1.3,12.4-2.1,17.8-2.4l2.2-0.2l2.3-0.1c0.5,0,1.1,0,1.6-0.1c1,0,2-0.1,2.9-0.1c0.7,0,1.4,0,2.2,0c2.3,0,4.7,0,7.1,0.2
		c1.2,0.1,2.3,0.1,3.5,0.2c-3.6,1.2-7.1,2.6-10.8,4.1c-8.5,3.5-16.5,7.3-23.7,11.1c-1.8,0.9-3.3,1.8-4.5,2.4
		c-0.6,0.3-1.1,0.6-1.6,0.9l-2.1,1.1l0.3,0.6l-0.4-0.6l-2,1.2c-0.4,0.3-1,0.6-1.6,0.9c-1.2,0.7-2.6,1.5-4.3,2.6l-1.1,0.7
		c-2.3,1.5-5.1,3.3-8.2,5.4c-1.7,1.1-3.3,2.3-5.1,3.7l-0.6,0.5c-0.4,0.3-0.9,0.6-1.3,1c-0.6,0.4-1.2,0.9-1.8,1.4l-3.3,2.5
		c-3.3,2.6-6.3,5.1-9.3,7.8c0.9-1.9,1.8-3.8,2.7-5.6c1-2.1,2.2-4.2,3.3-6.3c0.4-0.6,0.7-1.3,1-1.9c0.5-0.9,1-1.7,1.5-2.5
		c0.3-0.5,0.6-0.9,0.9-1.4l1.2-1.9l1.3-1.9c3-4.6,6.4-9.1,10.9-14.3c1.6-1.8,3.2-3.5,4.9-5.2C105,56.7,109.7,55.5,114.6,54.4z
		 M96.2,270c-4.5-5.2-8-9.7-11-14.2l-1.3-1.9l-1.2-1.9c-0.3-0.5-0.6-0.9-0.9-1.4c-0.5-0.8-1.1-1.7-1.5-2.5c-0.4-0.6-0.7-1.2-1.1-1.9
		c-1.2-2-2.4-4.1-3.4-6.2c-0.6-1.1-1.1-2.2-1.6-3.3c2.9,2.5,5.9,4.9,9.1,7.4c7.3,5.6,14.5,10.7,21.5,15c1.7,1.1,3.2,1.9,4.3,2.6
		c0.6,0.4,1.1,0.7,1.6,0.9l2,1.2l0.4-0.6l-0.3,0.6l2.1,1.2c0.5,0.2,1,0.5,1.6,0.9c1.2,0.7,2.7,1.5,4.5,2.4l1.1,0.6
		c2.4,1.2,5.4,2.8,8.8,4.4c1.8,0.9,3.7,1.7,5.7,2.6l0.7,0.3c0.5,0.2,1,0.4,1.5,0.7c0.7,0.3,1.4,0.6,2.1,0.9l3.8,1.6
		c3.9,1.5,7.6,2.9,11.4,4.2c-2.1,0.2-4.2,0.4-6.3,0.5c-2.3,0.2-4.8,0.2-7.1,0.2c-0.7,0-1.4,0-2.1,0c-1,0-2,0-2.9-0.1
		c-0.6,0-1.1,0-1.7,0l-2.3-0.1l-2.3-0.2c-5.4-0.3-11.1-1-17.8-2.3c-2.4-0.5-4.7-1-7-1.6C102.9,277.1,99.5,273.7,96.2,270z"/>
	<circle fill="#D2EDF3" cx="167.6" cy="167.9" r="20"/>
</svg>
