<svg xmlns="http://www.w3.org/2000/svg" viewBox="0 0 952 340"> <path fill="#2E67B2" d="M150.7,57.4v85.3c-9.9,4.9-16.8,15.2-16.8,27.1c0,0.6,0,1.3,0.1,1.9l-73.9,42.6c-1-7.7-1.7-15.5-2.2-23.5 l53.9-31.1l-52.2-30.1c0.7-6.3,1.6-12.5,2.7-18.6c4.7-4,9.7-7.8,14.8-11.6l52.2,30.1V67.3C136.3,63.7,143.5,60.4,150.7,57.4z"/> <path fill="#2E67B2" d="M268.1,214.3l-73.9-42.7c0.7-11.1-4.8-22.1-15-28.1c-0.6-0.3-1.1-0.6-1.7-0.9l0-85.3 c7.2,3,14.3,6.3,21.5,9.9l0,62.2l52.2-30.1c5.1,3.8,10,7.7,14.8,11.6c1.1,6.1,2,12.3,2.7,18.6l-52.2,30.1l53.9,31.1 C269.8,198.8,269.1,206.6,268.1,214.3z"/> <path fill="#2E67B2" d="M73.5,237.5l73.9-42.6c9.2,6.1,21.5,6.9,31.8,1c0.6-0.3,1.1-0.7,1.6-1l73.9,42.7 c-6.2,4.7-12.6,9.3-19.3,13.7l-53.8-31.1l0,60.2c-5.8,2.5-11.7,4.9-17.5,7c-5.8-2.1-11.6-4.4-17.4-7l0-60.3l-53.9,31.1 C86.1,246.8,79.7,242.2,73.5,237.5z"/> <path fill="#FFFFFF" d="M163.9,330.4L163.9,330.4l-2-0.1c-6.1-0.1-12.6-1-19.2-2.7l-2.4-0.6c-0.9-0.2-1.7-0.4-2.4-0.7l-4.6-1.6 l-0.2-0.1c-2.9-1.2-6-2.5-8.9-4c-5.7-2.9-11.3-6.5-16.6-10.6c-9.9-7.8-18.6-17.7-26-29.3c-3.9-6.2-7-11.8-9.4-17.1l-1-2.2l-1-2.3 c-0.2-0.5-0.4-1-0.7-1.6c-0.4-1-0.8-1.9-1.2-2.9l-0.6-1.5c-1-2.5-1.9-5.1-2.8-7.7c-4-11.6-6.9-23.9-9.1-37.6 c-1.9-12.6-2.8-25.6-2.9-38.5l0.1,0l-0.1,0c0-12.6,1-25.5,3-38.5c2.2-13.7,5.3-26,9.3-37.5c0.9-2.6,1.9-5.1,2.8-7.6l0.6-1.5 c0.4-1,0.8-2,1.3-2.9c0.2-0.5,0.4-1,0.7-1.5l1-2.2l1.1-2.2c2.5-5.3,5.6-10.8,9.5-16.9c7.4-11.4,16.2-21.2,26-28.9 c5.2-4.1,10.7-7.6,16.5-10.5c2.9-1.5,5.9-2.8,8.9-3.9l4.6-1.6c0.7-0.2,1.5-0.5,2.4-0.7l4.6-1.2l2.4-0.5l2.7-0.5 c0.7-0.1,1.4-0.3,2.2-0.3l4.9-0.5l0.6-0.1l5.6-0.2c0.1,0,0.2,0,0.4,0c0.1,0,0.2,0,0.3,0v0l2.3,0.1c0.5,0,1.1,0,1.6,0.1 c1,0,2.1,0.1,3.1,0.2l4.6,0.5c1.1,0.1,2.1,0.3,3.1,0.5c0.5,0.1,1,0.2,1.5,0.3c6.5,1.3,12.3,3.1,17.4,5.3c2,0.8,3.9,1.8,5.8,2.7 c0.7,0.4,1.4,0.7,2.1,1.1l3.8,2.2l1.8,1.1l1.8,1.2c4.9,3.1,9.1,6.7,13,10.2c4.4,4.1,7.9,7.9,10.8,11.5c11.1,13.6,19.6,29.2,26,47.7 l1,2.8l0.9,2.8c0.2,0.6,0.4,1.2,0.6,1.8c0.4,1.2,0.8,2.4,1.1,3.6l1.4,5.2l1.2,5.1c1.4,6,2.5,12.1,3.4,18.5l0.6,4.1 c0.1,0.8,0.2,1.5,0.3,2.3c0.1,0.5,0.1,1.1,0.2,1.6l0.1,0.8c0.2,2.2,0.5,4.3,0.6,6.3c0.3,3.7,0.5,7.1,0.6,9.8l0.1,1.3 c0.1,2,0.1,3.7,0.1,5.1c0,0.7,0,1.3,0,1.8l0,2.4l-0.7,0l0.7,0l0,2.4c0,0.5,0,1.1,0,1.8c0,1.4,0,3.1-0.1,5.1c-0.3,8.2-1,17-2.2,26.1 c-0.9,6.5-2,12.5-3.3,18.5c-0.3,1.1-0.5,2.2-0.7,3.3c-0.1,0.6-0.3,1.2-0.4,1.9l-1.4,5.3c-0.3,1.2-0.7,2.4-1,3.6 c-0.2,0.6-0.4,1.2-0.6,1.9l-0.8,2.8l-1,2.8c-6.2,18.7-14.6,34.5-25.7,48.2c-2.9,3.7-6.5,7.5-10.8,11.6c-3.9,3.5-8.2,7.2-13.1,10.4 l-1.7,1.2l-1.9,1.1c-1.2,0.7-2.5,1.5-3.8,2.2c-0.8,0.4-1.4,0.7-2.1,1.1c-1.9,1-3.9,2-5.9,2.8c-0.4,0.2-0.8,0.3-1.2,0.5 c-1,0.4-1.9,0.8-3,1.2l-4.3,1.5c-1,0.3-2,0.6-3,0.8c-0.5,0.1-1,0.3-1.5,0.4l-2.2,0.6l-2.3,0.5c-0.5,0.1-1,0.2-1.5,0.3 c-1,0.2-2,0.4-3.1,0.5l-0.6,0.1c-1.5,0.2-2.9,0.3-4.4,0.5l-0.4,0c-0.3,0-0.6,0.1-0.9,0.1l-5.3,0.2v0c-0.2,0-0.4,0-0.6,0H163.9z M55.1,169.4c0.1,13.3,1.5,26,4.4,37.9c3.1,12.9,7.4,24.7,12.9,35.2c1,2.1,2.2,4.2,3.4,6.2c0.4,0.6,0.7,1.2,1.1,1.9 c0.5,0.8,1,1.7,1.5,2.5c0.3,0.5,0.6,0.9,0.9,1.4l1.2,1.9l1.3,1.9c3,4.5,6.5,9,11,14.2c8.1,9,16.8,16.5,25.9,22.1 c4.1,2.7,8.6,5,14.3,7.4c1.8,0.8,3.6,1.4,5.4,2c0.7,0.2,1.3,0.4,2,0.7l3.7,1c0.5,0.2,1.1,0.3,1.8,0.4l1.9,0.4 c5.5,1.1,10.3,1.7,14.8,1.7l1.6,0.1l5.1-0.2c0.2,0,0.3,0,0.5,0c0.1,0,0.2,0,0.3,0c1-0.1,1.9-0.2,2.9-0.3l0.5,0 c0.7-0.1,1.4-0.2,2.1-0.3c0.5-0.1,0.9-0.2,1.4-0.2l1.8-0.3l1.7-0.4c0.4-0.1,0.9-0.2,1.3-0.3c0.7-0.2,1.4-0.3,2.1-0.5l3.5-1 c0.6-0.1,1.2-0.3,1.6-0.5l1.7-0.6c1.6-0.5,3.1-1.1,4.5-1.7c0.7-0.3,1.4-0.6,2.1-0.9l3.1-1.5l1.6-0.8c0,0,2.3-1.3,2.7-1.5 c0.6-0.3,1.3-0.7,1.9-1l3-1.8c0.2-0.1,0.5-0.3,0.7-0.4c0.3-0.2,0.5-0.3,0.8-0.5l4.3-3c3.9-2.9,7.4-5.7,10.6-8.7 c12-10.9,22.2-24.5,30.2-40.2c6.1-12.1,10.5-24.7,13.2-37.6l0.3-1.5c0.5-2.2,0.9-4.3,1.2-6.3l0.2-1.3c0.3-2,0.6-3.8,0.8-5.6 c0.1-0.8,0.2-1.5,0.3-2.3c0.2-1.3,0.3-2.5,0.4-3.7l0.3-5c0.1-1.2,0.1-2.2,0.1-3.2l0.1-6l-0.1-2.3c0-0.5,0-1.1,0-1.8 c0-1.3-0.1-3-0.2-5l-0.3-5c-0.1-1.2-0.2-2.4-0.4-3.7c-0.1-0.7-0.2-1.5-0.3-2.3c-0.2-1.9-0.5-4-0.8-6.1l-0.1-0.8 c-0.3-2-0.7-4.1-1.1-6.2l-0.3-1.5c-2.6-12.9-7-25.6-13-37.7c-7.9-15.9-17.9-29.6-29.9-40.6c-3.3-3.1-6.9-6-10.6-8.9l-4.3-3 c-0.2-0.2-0.5-0.3-0.8-0.5c-0.2-0.1-0.5-0.3-0.7-0.4l-3-1.9c-0.6-0.3-1.2-0.7-1.9-1c-0.4-0.2-2.8-1.5-2.8-1.5l-1.6-0.8l-3.2-1.6 c-0.6-0.3-1.3-0.6-2-0.8c-1.5-0.6-3-1.3-4.6-1.8l-1.8-0.6c-0.5-0.2-1.1-0.4-1.7-0.5l-3.5-1c-0.7-0.2-1.4-0.4-2.2-0.5 c-0.5-0.1-0.9-0.2-1.4-0.3l-1.8-0.4l-1.8-0.3c-0.5-0.1-0.9-0.1-1.4-0.2c-0.8-0.1-1.5-0.3-2.2-0.3l-3.7-0.4 c-0.8-0.1-1.5-0.1-2.3-0.1c-0.5,0-0.9,0-1.4,0l-2-0.1l-5.3,0.1l-0.4,0l-3.6,0.4c-0.5,0-1,0.1-1.5,0.2l-2.2,0.4l-1.9,0.3l-1.8,0.4 c-4.8,1-9.8,2.6-14.9,4.7c-5.6,2.4-10.3,4.9-14.4,7.6c-9.2,5.8-17.9,13.4-25.9,22.6c-4.5,5.2-7.9,9.8-10.9,14.3L80,82.2l-1.2,1.9 c-0.3,0.5-0.6,0.9-0.9,1.4c-0.5,0.8-1,1.7-1.5,2.5c-0.3,0.6-0.7,1.2-1,1.9c-1.1,2-2.3,4.1-3.3,6.3c-5.4,10.6-9.6,22.5-12.7,35.4 c-0.2,1-0.4,2-0.6,3c-0.1,0.6-0.2,1.1-0.3,1.7c-0.1,0.5-0.2,0.9-0.3,1.4c-0.2,1.1-0.4,2.2-0.6,3.3l-0.2,1.3 c-0.4,2.7-0.8,5.4-1.1,8.2c-0.8,6.2-0.9,12.5-1.1,18.7L55.1,169.4z"/> <path fill="#99CA3C" d="M274.1,169.4c0,0,0-0.8-0.1-2.4c-0.1-1.6,0-3.9-0.2-6.9c-0.1-1.5-0.2-3.2-0.3-5c-0.1-1.8-0.4-3.8-0.6-6 c-0.2-2.2-0.6-4.5-1-7c-0.3-2.5-0.9-5.1-1.5-7.8c-2.2-11-6.2-24.1-13-38c-6.8-13.8-16.6-28.4-30.1-40.9c-3.3-3.2-7-6.1-10.7-8.9 c-1-0.7-1.9-1.3-2.9-2l-1.5-1c-0.5-0.3-1-0.6-1.5-0.9c-1-0.6-2-1.3-3-1.9c-1-0.6-2.1-1.2-3.1-1.7l-1.6-0.9l-1.6-0.8 c-1.1-0.5-2.2-1.1-3.2-1.6c-2.2-0.9-4.4-1.9-6.7-2.7l-1.7-0.6c-0.6-0.2-1.1-0.4-1.7-0.6c-1.2-0.3-2.3-0.7-3.5-1 c-1.2-0.3-2.4-0.5-3.6-0.8l-1.8-0.4l-1.8-0.3c-1.2-0.2-2.4-0.4-3.7-0.6c-1.2-0.1-2.5-0.2-3.7-0.4c-1.2-0.1-2.5-0.1-3.8-0.2 l-1.9-0.1c-0.4,0,0.2,0,0.1,0l-0.3,0l-0.5,0l-1.1,0l-2.1,0.1l-1.1,0l-0.5,0l-0.4,0c-1.2,0.1-2.4,0.2-3.6,0.4 c-0.6,0-1.2,0.2-1.9,0.3l-1.9,0.3l-1.9,0.3l-1.9,0.4c-5.1,1-10.1,2.7-15.1,4.8c-4.9,2.1-9.9,4.6-14.5,7.7 c-9.5,6-18.3,13.7-26.1,22.7c-3.9,4.5-7.6,9.3-11,14.4l-1.3,1.9l-1.2,2c-0.8,1.3-1.6,2.6-2.4,4c-1.5,2.7-3.1,5.4-4.4,8.2 c-5.7,11.1-9.8,23.2-12.7,35.6c-0.4,1.5-0.6,3.1-1,4.7c-0.3,1.6-0.7,3.1-0.9,4.7c-0.5,3.2-1,6.3-1.3,9.5c-0.8,6.4-1,12.8-1.1,19.2 c0.1,12.8,1.4,25.7,4.4,38.1c3,12.4,7.2,24.4,13,35.5c1.4,2.8,3,5.5,4.5,8.1c0.8,1.3,1.6,2.6,2.4,3.9l1.2,1.9l1.3,1.9 c3.4,5.1,7.2,9.8,11.1,14.3c7.9,8.9,16.7,16.5,26.1,22.3c4.6,3,9.5,5.4,14.4,7.5c2.4,1.1,5,1.8,7.4,2.7c1.3,0.4,2.5,0.7,3.7,1.1 c0.6,0.2,1.2,0.3,1.9,0.5l1.9,0.4c5,1,10,1.7,15,1.7l0.9,0l0.5,0l0.2,0c0.1,0-0.5,0-0.1,0l2.1-0.1l2.1-0.1l1.1,0 c0.4,0,0.6-0.1,0.9-0.1c1.1-0.1,2.3-0.2,3.4-0.3c1.1-0.1,2.4-0.4,3.6-0.5l1.8-0.3l1.8-0.4c1.2-0.3,2.4-0.5,3.5-0.8 c1.2-0.3,2.3-0.7,3.5-1c0.6-0.1,1.1-0.3,1.7-0.6l1.7-0.6c2.3-0.7,4.5-1.7,6.7-2.6c1.1-0.5,2.1-1,3.2-1.5l1.6-0.8l1.6-0.8 c1-0.6,2.1-1.1,3.1-1.7c1-0.6,2-1.2,3-1.9c0.5-0.3,1-0.6,1.5-0.9l1.4-1c1-0.7,1.9-1.3,2.9-2c3.7-2.8,7.4-5.6,10.7-8.8 c13.5-12.3,23.4-26.8,30.4-40.5c7-13.8,11-26.9,13.3-37.8c0.6-2.7,1.1-5.3,1.5-7.8c0.4-2.5,0.8-4.8,1-6.9c0.2-2.2,0.5-4.2,0.6-6 c0.1-1.8,0.2-3.5,0.3-5c0.1-1.5,0.1-2.8,0.2-4c0-1.1,0-2.1,0.1-2.9C274.1,170.2,274.1,169.4,274.1,169.4z M274.1,169.4 c0,0,0,0.8,0,2.4c0,1.6,0,3.9-0.1,6.9c-0.2,6-0.7,14.8-2.2,26c-0.8,5.6-1.8,11.8-3.3,18.4c-0.4,1.7-0.8,3.4-1.2,5.1 c-0.5,1.7-0.9,3.5-1.4,5.3c-0.4,1.8-1,3.6-1.6,5.4c-0.3,0.9-0.6,1.9-0.8,2.8c-0.3,0.9-0.6,1.9-0.9,2.8c-5,15.1-12.7,31.9-25.5,47.8 c-3.2,4-6.8,7.8-10.7,11.5c-4,3.6-8.2,7.2-13,10.3l-1.8,1.2l-1.8,1.1c-1.2,0.7-2.5,1.5-3.7,2.2c-2.6,1.3-5.2,2.7-7.9,3.8 c-1.4,0.6-2.7,1.2-4.2,1.7c-1.4,0.5-2.9,1-4.3,1.5c-1.4,0.5-2.9,0.8-4.4,1.2l-2.2,0.6l-2.3,0.4c-1.5,0.3-3,0.6-4.6,0.8 c-1.6,0.2-3.3,0.4-4.9,0.5c-0.4,0-0.9,0.1-1.2,0.1l-1,0l-2.1,0.1l-2.1,0.1c0.2,0-0.6,0-0.6,0l-0.3,0l-0.6,0l-1.2,0 c-6.4-0.1-12.8-1-19-2.6l-2.4-0.6c-0.8-0.2-1.6-0.4-2.3-0.7c-1.5-0.5-3.1-1-4.6-1.6c-3-1.2-6-2.5-8.9-4 c-5.8-2.9-11.3-6.5-16.4-10.5c-10.2-8.1-18.8-18.1-25.8-29c-3.4-5.5-6.6-11.1-9.3-17l-1-2.2l-1-2.2c-0.6-1.5-1.3-3-1.9-4.5 c-1.1-3-2.3-6-3.3-9.1c-4.2-12.2-7.1-24.8-9-37.5c-1.9-12.7-2.8-25.5-2.9-38.4c0-12.8,1-25.7,2.9-38.4c2-12.7,5-25.2,9.3-37.4 c1-3,2.2-6,3.4-9c0.6-1.5,1.3-3,1.9-4.4l1-2.2l1.1-2.2c2.7-5.8,6-11.4,9.4-16.8c7-10.8,15.6-20.7,25.8-28.6 c5.1-4,10.5-7.5,16.3-10.4c2.9-1.5,5.8-2.7,8.8-3.9c1.5-0.5,3-1,4.6-1.5c0.8-0.3,1.5-0.5,2.3-0.7l2.3-0.6l2.3-0.6l2.3-0.5l2.3-0.4 c0.8-0.1,1.5-0.3,2.4-0.4c1.7-0.2,3.3-0.4,4.9-0.5l0.6-0.1l0.5,0l1.1,0l2.1-0.1l1.1,0l0.5,0l0.3,0c0,0,0.8,0,0.6,0l2.3,0.1 c1.6,0.1,3.1,0.1,4.6,0.3c1.5,0.2,3.1,0.3,4.6,0.5c1.5,0.2,3,0.5,4.5,0.8c6,1.2,11.8,2.9,17.1,5.3c2.7,1.1,5.3,2.5,7.9,3.7 c1.2,0.7,2.5,1.4,3.7,2.1l1.8,1.1l1.8,1.2c4.7,3,8.9,6.6,12.9,10.1c3.9,3.7,7.5,7.4,10.7,11.3c12.9,15.7,20.7,32.4,25.8,47.4 c0.3,0.9,0.6,1.9,1,2.8c0.3,0.9,0.6,1.9,0.9,2.8c0.5,1.8,1.2,3.6,1.6,5.4c0.5,1.8,1,3.5,1.4,5.3c0.4,1.7,0.8,3.4,1.2,5.1 c1.5,6.7,2.6,12.8,3.4,18.4c0.2,1.4,0.4,2.8,0.6,4.1c0.2,1.3,0.3,2.6,0.4,3.9c0.3,2.5,0.6,4.8,0.7,7c0.4,4.4,0.5,8.1,0.7,11.1 s0.1,5.3,0.1,6.9C274.1,168.6,274.1,169.4,274.1,169.4z"/> <path fill="#FFFFFF" d="M303.1,89.9L303.1,89.9l1,1.8c3,5.3,5.4,11.4,7.3,18l0.6,2.4c0.2,0.9,0.4,1.7,0.6,2.5l0.9,4.8l0,0.2 c0.4,3.2,0.9,6.4,1,9.7c0.4,6.4,0.1,13-0.9,19.7c-1.9,12.5-6,25-12.4,37.1c-3.4,6.5-6.7,11.9-10.1,16.7l-1.4,2l-1.5,2 c-0.3,0.5-0.7,0.9-1,1.4c-0.6,0.8-1.3,1.7-1.9,2.5l-1,1.2c-1.7,2.1-3.4,4.2-5.3,6.3c-8,9.2-17.2,17.9-28.1,26.7 c-10,7.9-20.8,15.3-31.9,21.8l-0.1-0.1l0.1,0.1c-10.9,6.3-22.6,11.9-34.8,16.7c-13,5-25.2,8.5-37.2,10.7c-2.6,0.5-5.3,0.9-8,1.3 l-1.6,0.2c-1.1,0.2-2.1,0.3-3.2,0.4c-0.6,0.1-1.1,0.1-1.7,0.2l-2.4,0.3l-2.4,0.2c-5.8,0.5-12.1,0.6-19.4,0.2 c-13.6-0.7-26.4-3.4-38-8.1c-6.1-2.4-12-5.5-17.3-9c-2.8-1.7-5.4-3.8-7.9-5.7l-3.7-3.2c-0.6-0.5-1.2-1-1.8-1.7l-3.4-3.4l-1.6-1.9 l-1.7-2.1c-0.5-0.5-0.9-1.1-1.4-1.7l-2.9-4l-0.4-0.5l-3-4.7c-0.1-0.1-0.1-0.2-0.2-0.4c0-0.1-0.1-0.2-0.1-0.2l0,0l-1.1-2.1 c-0.2-0.5-0.5-0.9-0.7-1.4c-0.5-0.9-1-1.8-1.4-2.8l-1.9-4.2c-0.4-1-0.8-2-1.1-2.9c-0.2-0.5-0.3-1-0.5-1.4 c-2.1-6.2-3.5-12.2-4.1-17.7c-0.3-2.1-0.4-4.3-0.6-6.4c0-0.8-0.1-1.6-0.1-2.3l0-4.4l0-2.1l0.1-2.2c0.3-5.8,1.3-11.3,2.3-16.4 c1.4-5.8,2.9-10.8,4.5-15.1c6.2-16.4,15.5-31.6,28.3-46.4l1.9-2.2l2-2.2c0.4-0.5,0.9-0.9,1.3-1.4c0.8-0.9,1.7-1.9,2.6-2.7l3.8-3.9 l3.8-3.6C68.9,102,73.6,98,78.7,94l3.3-2.5c0.6-0.5,1.2-0.9,1.8-1.4c0.4-0.3,0.9-0.6,1.3-1l0.6-0.5c1.8-1.3,3.5-2.6,5.1-3.7 c3.1-2.1,5.9-4,8.2-5.4l1.1-0.7c1.7-1.1,3.2-2,4.3-2.6c0.6-0.3,1.1-0.7,1.6-0.9l2-1.2l0.4,0.6l-0.3-0.6l2.1-1.1 c0.5-0.3,1-0.6,1.6-0.9c1.2-0.7,2.7-1.5,4.5-2.4c7.2-3.9,15.2-7.6,23.7-11.1c6.1-2.5,11.9-4.5,17.7-6.4c1.1-0.3,2.1-0.6,3.2-1 c0.6-0.2,1.2-0.4,1.8-0.6l5.3-1.4c1.2-0.3,2.4-0.6,3.6-0.9c0.6-0.1,1.3-0.3,1.9-0.5l2.8-0.7l2.9-0.6c19.3-4,37.2-4.6,54.5-1.8 c4.7,0.7,9.7,1.9,15.4,3.5c5,1.6,10.3,3.5,15.6,6.2l1.9,0.9l1.9,1.1c1.3,0.7,2.5,1.4,3.8,2.2c0.7,0.5,1.4,0.9,2,1.3 c1.8,1.2,3.6,2.4,5.4,3.7c0.3,0.3,0.7,0.5,1.1,0.8c0.8,0.6,1.7,1.3,2.5,2l3.4,3c0.8,0.7,1.5,1.4,2.2,2.2c0.4,0.4,0.7,0.7,1.1,1.1 l1.6,1.7l1.6,1.8c0.3,0.4,0.7,0.8,1,1.2c0.7,0.8,1.4,1.6,2,2.5l0.3,0.5c0.9,1.2,1.8,2.4,2.6,3.6l0.2,0.3c0.2,0.2,0.4,0.5,0.5,0.7 l2.8,4.5l0,0c0.1,0.2,0.2,0.4,0.3,0.5L303.1,89.9z M218.1,264.7c11.5-6.7,21.8-14.3,30.6-22.7c9.6-9.1,17.7-18.8,24.1-28.8 c1.3-2,2.5-4,3.7-6.1c0.4-0.6,0.7-1.2,1.1-1.9c0.5-0.8,0.9-1.7,1.4-2.6c0.3-0.5,0.5-1,0.8-1.5l1.1-2l1-2c2.4-4.9,4.6-10.1,6.8-16.6 c3.8-11.5,5.9-22.8,6.2-33.5c0.3-4.9,0-10-0.7-16.1c-0.2-1.9-0.6-3.8-0.9-5.7c-0.1-0.7-0.3-1.4-0.4-2.1l-0.9-3.7 c-0.1-0.5-0.3-1.1-0.5-1.8l-0.6-1.8c-1.8-5.3-3.7-9.8-5.9-13.7l-0.8-1.5l-2.7-4.4c-0.1-0.2-0.2-0.3-0.3-0.4 c-0.1-0.1-0.1-0.2-0.2-0.3c-0.6-0.8-1.1-1.6-1.7-2.4l-0.3-0.4c-0.4-0.5-0.9-1.1-1.3-1.7c-0.3-0.4-0.6-0.7-0.9-1.1l-1.1-1.4 l-1.2-1.3c-0.3-0.3-0.6-0.7-0.9-1c-0.5-0.5-1-1.1-1.5-1.6l-2.6-2.5c-0.4-0.4-0.9-0.8-1.3-1.2l-1.4-1.2c-1.2-1.1-2.5-2.1-3.8-3.1 c-0.6-0.5-1.2-0.9-1.8-1.4l-2.9-2l-1.5-1c0,0-2.2-1.4-2.6-1.6c-0.6-0.4-1.2-0.8-1.8-1.1l-3.1-1.6c-0.2-0.1-0.5-0.3-0.7-0.4 c-0.3-0.1-0.5-0.3-0.8-0.4l-4.7-2.3c-4.5-1.9-8.6-3.6-12.8-4.8c-15.5-5-32.3-7-49.9-6c-13.5,0.8-26.7,3.2-39.2,7.4l-1.4,0.5 c-2.1,0.7-4.2,1.4-6,2.1l-1.2,0.5c-1.9,0.7-3.6,1.4-5.2,2.1c-0.7,0.3-1.4,0.6-2.1,0.9c-1.2,0.5-2.4,1-3.4,1.5l-4.5,2.2 c-1.1,0.5-2,1-2.8,1.5l-5.3,2.9l-2,1.2c-0.4,0.3-1,0.6-1.6,1c-1.2,0.7-2.6,1.6-4.2,2.7l-4.2,2.8c-1,0.6-2,1.4-3,2.2 c-0.6,0.4-1.2,0.9-1.8,1.4c-1.6,1.1-3.2,2.4-4.9,3.8l-0.6,0.5c-1.6,1.2-3.2,2.6-4.8,4.1l-1.2,1c-9.9,8.7-18.7,18.9-26.2,30.1 c-9.8,14.8-16.6,30.3-20.3,46.2c-1.1,4.4-1.7,8.9-2.4,13.6l-0.4,5.2c0,0.3,0,0.6,0,0.9c0,0.3,0,0.5,0,0.8l-0.1,3.5 c0,0.7,0,1.4,0,2.1c0,0.5,0.1,3.2,0.1,3.2l0.1,1.7l0.2,3.6c0.1,0.7,0.2,1.4,0.3,2.2c0.2,1.6,0.4,3.2,0.8,4.8l0.3,1.8 c0.1,0.5,0.2,1.1,0.4,1.7l0.9,3.6c0.2,0.7,0.4,1.4,0.6,2.1c0.1,0.4,0.3,0.9,0.4,1.3l0.5,1.7l0.7,1.7c0.2,0.4,0.3,0.9,0.5,1.3 c0.3,0.7,0.5,1.4,0.8,2.1l1.5,3.4c0.3,0.7,0.7,1.3,1,2c0.2,0.4,0.5,0.8,0.7,1.2l1,1.8l2.8,4.5l0.2,0.3l2.1,2.9 c0.3,0.4,0.6,0.8,0.9,1.2l1.4,1.7l1.2,1.5l1.3,1.4c3.2,3.7,7.1,7.2,11.6,10.5c4.9,3.6,9.4,6.5,13.8,8.7c9.6,5,20.5,8.8,32.5,11.2 c6.7,1.3,12.4,2,17.8,2.3l2.3,0.2l2.3,0.1c0.5,0,1.1,0,1.7,0c1,0,2,0.1,2.9,0.1c0.7,0,1.4,0,2.1,0c2.3,0,4.7-0.1,7.1-0.2 c11.8-0.6,24.3-2.9,37-6.7c1-0.3,1.9-0.6,2.9-0.9c0.5-0.2,1.1-0.4,1.6-0.5c0.4-0.2,0.9-0.3,1.3-0.5c1-0.3,2.1-0.7,3.1-1.1l1.2-0.5 c2.5-1,5.1-2,7.6-3.1c5.8-2.4,11.3-5.4,16.7-8.4L218.1,264.7z"/> <path fill="#99CA3C" d="M108.6,75c0,0-0.7,0.4-2,1.2c-1.3,0.8-3.3,2-5.8,3.6c-1.3,0.8-2.7,1.8-4.2,2.8c-1.5,1-3.1,2.3-4.9,3.6 c-1.8,1.3-3.6,2.7-5.5,4.3c-2,1.5-3.9,3.3-6,5.2c-8.4,7.4-17.8,17.4-26.3,30.3c-8.5,12.8-16.3,28.6-20.4,46.5 c-1.1,4.5-1.8,9.1-2.4,13.7c-0.1,1.2-0.2,2.3-0.3,3.5l-0.1,1.8c0,0.6,0,1.2-0.1,1.8c0,1.2-0.1,2.4-0.1,3.6c0,1.2,0,2.4,0.1,3.6 l0,1.8l0.1,1.8c0.1,1.2,0.2,2.4,0.2,3.6c0.3,2.4,0.5,4.8,1.1,7.2l0.3,1.8c0.1,0.6,0.2,1.2,0.4,1.8c0.3,1.2,0.6,2.4,0.9,3.6 c0.3,1.2,0.7,2.3,1.1,3.5l0.6,1.8l0.7,1.7c0.5,1.1,0.8,2.3,1.3,3.5c0.5,1.1,1,2.3,1.5,3.4c0.5,1.1,1.2,2.2,1.7,3.3l0.9,1.7 c0.2,0.3-0.1-0.2,0,0l0.1,0.2l0.3,0.5l0.6,0.9l1.1,1.8l0.6,0.9l0.3,0.5l0.3,0.4c0.7,1,1.4,1.9,2.1,2.9c0.3,0.5,0.7,1,1.2,1.5 l1.2,1.5l1.2,1.5l1.3,1.4c3.4,3.9,7.4,7.4,11.7,10.7c4.3,3.2,8.9,6.3,13.9,8.8c9.9,5.2,21,8.9,32.7,11.3c5.9,1.1,11.9,2,18,2.3 l2.3,0.2l2.3,0.1c1.5,0,3.1,0.1,4.6,0.1c3.1-0.1,6.2,0,9.3-0.3c12.5-0.7,25-3.1,37.2-6.8c1.5-0.5,3-1,4.5-1.5c1.5-0.5,3-1,4.5-1.6 c3-1.2,6-2.3,8.9-3.6c5.9-2.5,11.6-5.6,17.2-8.6c11.1-6.5,21.5-14.1,30.8-22.8c9.2-8.8,17.5-18.5,24.2-29c1.8-2.6,3.3-5.3,4.8-8 c0.8-1.3,1.5-2.7,2.2-4.1l1.1-2l1-2.1c2.7-5.5,4.9-11.1,6.8-16.7c3.7-11.3,5.9-22.7,6.3-33.8c0.3-5.5-0.1-11-0.7-16.2 c-0.3-2.6-0.9-5.2-1.4-7.8c-0.3-1.3-0.6-2.5-1-3.8c-0.1-0.6-0.3-1.2-0.5-1.9l-0.6-1.8c-1.6-4.8-3.5-9.5-6-13.8l-0.4-0.8l-0.2-0.4 l-0.1-0.2c-0.1-0.1,0.3,0.4,0,0.1l-1.1-1.8l-1.1-1.8l-0.6-0.9c-0.2-0.3-0.3-0.5-0.5-0.7c-0.7-0.9-1.3-1.9-2-2.8 c-0.7-0.9-1.5-1.9-2.3-2.8l-1.1-1.4l-1.2-1.3c-0.8-0.9-1.6-1.8-2.5-2.7c-0.9-0.8-1.7-1.7-2.6-2.5c-0.4-0.4-0.9-0.8-1.3-1.2 l-1.4-1.2c-1.8-1.6-3.7-3-5.6-4.5c-1-0.7-2-1.3-2.9-2l-1.5-1l-1.5-0.9c-1-0.6-2-1.2-3-1.8c-1-0.6-2.1-1.1-3.1-1.7 c-0.5-0.3-1-0.6-1.5-0.8l-1.6-0.8c-1.1-0.5-2.1-1-3.2-1.5c-4.3-1.8-8.6-3.6-12.9-4.9c-17.4-5.6-34.9-6.9-50.3-6.1 c-15.4,0.9-28.8,3.9-39.4,7.4c-2.7,0.9-5.2,1.7-7.5,2.6c-2.3,0.9-4.5,1.7-6.5,2.6c-2,0.9-3.9,1.6-5.5,2.5c-1.7,0.8-3.2,1.6-4.5,2.2 c-1.4,0.6-2.5,1.3-3.5,1.9c-1,0.6-1.9,1-2.5,1.4C109.3,74.7,108.6,75,108.6,75z M108.6,75c0,0,0.7-0.4,2.1-1.1 c1.4-0.7,3.4-1.9,6-3.3c5.3-2.8,13.2-6.8,23.6-11.1c5.2-2.1,11.1-4.3,17.6-6.3c1.6-0.5,3.3-1,5-1.5c1.7-0.5,3.5-0.9,5.3-1.4 c1.8-0.5,3.6-0.9,5.5-1.4c0.9-0.2,1.9-0.4,2.8-0.7c1-0.2,1.9-0.4,2.9-0.6c15.6-3.2,34-5,54.2-1.8c5,0.8,10.1,2,15.3,3.5 c5.1,1.7,10.3,3.5,15.4,6.1l1.9,0.9l1.9,1c1.3,0.7,2.5,1.4,3.8,2.2c2.4,1.6,4.9,3.1,7.3,5c1.2,0.9,2.4,1.7,3.5,2.8 c1.1,1,2.3,2,3.4,3c1.1,1,2.2,2.1,3.3,3.2l1.6,1.6l1.5,1.7c1,1.2,2,2.3,3,3.6c1,1.3,2,2.6,2.9,4c0.2,0.3,0.5,0.7,0.7,1l0.6,0.9 l1.1,1.8l1.1,1.8c-0.1-0.2,0.3,0.5,0.3,0.5l0.1,0.3l0.3,0.5l0.6,1.1c3.1,5.5,5.5,11.6,7.2,17.8l0.6,2.3c0.2,0.8,0.4,1.6,0.6,2.4 c0.3,1.6,0.6,3.2,0.9,4.8c0.4,3.2,0.9,6.5,1,9.7c0.4,6.5,0.1,13.1-0.9,19.5c-1.9,12.9-6.3,25.3-12.3,36.8 c-3,5.7-6.3,11.3-10.1,16.6l-1.4,2l-1.5,1.9c-1,1.3-1.9,2.6-2.9,3.9c-2,2.5-4.1,5-6.2,7.4c-8.5,9.7-17.9,18.5-27.9,26.6 c-10.1,8-20.7,15.2-31.8,21.7c-11.1,6.4-22.7,12-34.7,16.6c-12,4.6-24.3,8.3-37,10.6c-3.2,0.6-6.3,1.1-9.5,1.6 c-1.6,0.2-3.2,0.4-4.8,0.6l-2.4,0.3l-2.4,0.2c-6.4,0.6-12.9,0.5-19.3,0.2c-12.9-0.7-25.7-3.2-37.7-8c-6-2.4-11.8-5.4-17.1-8.9 c-2.7-1.7-5.3-3.7-7.8-5.7c-1.2-1.1-2.4-2.1-3.6-3.2c-0.6-0.5-1.2-1.1-1.7-1.7l-1.7-1.7l-1.7-1.7l-1.6-1.8l-1.5-1.8 c-0.5-0.6-1-1.2-1.5-1.9c-1-1.3-2-2.7-2.9-4l-0.4-0.5l-0.3-0.5l-0.6-0.9l-1.1-1.8l-0.6-0.9l-0.3-0.4l-0.1-0.2c0,0-0.4-0.7-0.3-0.5 l-1.1-2.1c-0.7-1.4-1.5-2.7-2.1-4.2c-0.6-1.4-1.2-2.8-1.9-4.2c-0.6-1.4-1.1-2.9-1.6-4.3c-1.9-5.8-3.4-11.6-4-17.5 c-0.4-2.9-0.5-5.8-0.7-8.7c0-1.4,0-2.9,0-4.3l0-2.1l0.1-2.1c0.2-5.6,1.2-11,2.3-16.2c1.2-5.2,2.7-10.2,4.5-14.9 c7.2-19,17.7-34.1,28.2-46.1c0.7-0.8,1.3-1.5,1.9-2.2c0.7-0.7,1.3-1.4,2-2.1c1.3-1.4,2.6-2.8,3.9-4.1c1.3-1.3,2.6-2.6,3.8-3.9 c1.3-1.2,2.6-2.4,3.8-3.6c5-4.6,9.8-8.7,14.2-12.1c1.1-0.9,2.2-1.7,3.3-2.5c1-0.8,2.1-1.5,3.1-2.3c2-1.5,3.9-2.9,5.7-4.1 c3.6-2.5,6.7-4.5,9.3-6.1c2.5-1.6,4.6-2.7,5.9-3.6C107.9,75.5,108.6,75,108.6,75z"/> <path fill="#FFFFFF" d="M25.3,89.7L25.3,89.7l1.1-1.7c3.1-5.3,7.1-10.4,11.9-15.3l1.7-1.7c0.6-0.6,1.2-1.2,1.8-1.7l3.7-3.2l0.2-0.1 c2.5-1.9,5.1-4,7.9-5.7c5.4-3.5,11.3-6.6,17.5-9c11.7-4.6,24.6-7.3,38.3-7.8c7.3-0.3,13.7-0.1,19.5,0.4l2.4,0.2l2.4,0.3 c0.6,0.1,1.1,0.1,1.7,0.2c1.1,0.1,2.1,0.2,3.1,0.4l1.5,0.2c2.6,0.4,5.4,0.9,8.1,1.4c12,2.3,24.1,5.9,37.1,11 c11.9,4.7,23.6,10.3,34.8,16.8l-0.1,0.1l0.1-0.1c10.9,6.3,21.6,13.6,31.9,21.8c10.8,8.8,19.9,17.6,27.8,26.8c1.8,2,3.5,4.2,5.1,6.2 l1,1.3c0.7,0.8,1.3,1.7,1.9,2.6c0.3,0.4,0.7,0.9,1,1.3l1.4,2l1.4,2c3.3,4.8,6.6,10.2,9.9,16.7c6.2,12.1,10.3,24.6,12,37 c1,6.5,1.2,13.1,0.8,19.5c-0.1,3.3-0.6,6.5-1,9.7l-1,4.8c-0.1,0.7-0.3,1.5-0.6,2.4l-1.3,4.6l-0.8,2.3l-0.9,2.5 c-0.2,0.7-0.5,1.3-0.8,2.1l-2,4.5l-0.3,0.6l-2.6,5c0,0.1-0.1,0.2-0.2,0.4c0,0.1-0.1,0.1-0.1,0.2l0,0l-1.2,2 c-0.3,0.5-0.6,0.9-0.9,1.3c-0.5,0.9-1.1,1.8-1.7,2.6l-2.7,3.7c-0.6,0.8-1.3,1.6-2,2.4c-0.3,0.4-0.7,0.8-1,1.2 c-4.4,4.9-8.8,9.1-13.3,12.4c-1.7,1.3-3.5,2.5-5.2,3.7c-0.7,0.4-1.3,0.9-2,1.3l-3.8,2.2l-1.9,1l-1.9,1c-5.1,2.7-10.4,4.6-15.3,6.2 c-5.7,1.7-10.8,2.9-15.3,3.6c-17.3,2.9-35.1,2.4-54.3-1.4l-2.9-0.6l-2.9-0.7c-0.6-0.2-1.3-0.3-1.9-0.4c-1.2-0.3-2.5-0.6-3.7-0.9 l-5.2-1.4l-5-1.5c-5.9-1.8-11.7-3.9-17.7-6.3l-3.8-1.6c-0.7-0.3-1.4-0.6-2.1-0.9c-0.5-0.2-1-0.4-1.5-0.7l-0.7-0.3 c-2-0.9-4-1.7-5.7-2.6c-3.4-1.6-6.4-3.1-8.8-4.4l-1.1-0.6c-1.8-0.9-3.3-1.8-4.5-2.4c-0.6-0.3-1.1-0.6-1.6-0.9l-2.1-1.2l0.3-0.6 l-0.4,0.6l-2-1.2c-0.5-0.3-1-0.6-1.6-0.9c-1.2-0.7-2.6-1.6-4.3-2.6c-7-4.3-14.2-9.4-21.5-15c-5.2-4-9.9-8-14.4-12.1 c-0.8-0.8-1.6-1.5-2.5-2.3c-0.5-0.4-0.9-0.9-1.4-1.3l-3.9-3.9c-0.9-0.9-1.8-1.8-2.6-2.7c-0.4-0.5-0.9-1-1.3-1.4l-2-2.1l-2-2.3 c-13.1-14.8-22.5-29.9-28.9-46.3c-1.7-4.4-3.2-9.3-4.7-15.1c-1.1-5.1-2.1-10.7-2.4-16.6l-0.2-2.1l0-2.2c0-1.4,0-2.9,0-4.4 c0.1-0.8,0.1-1.6,0.1-2.4c0.1-2.1,0.2-4.3,0.6-6.5c0.1-0.4,0.1-0.9,0.2-1.3c0.1-1,0.2-2.1,0.5-3.2l0.9-4.4c0.2-1,0.5-2,0.8-3 c0.1-0.5,0.3-1,0.4-1.5l0.6-2.2l0.8-2.2c0.2-0.5,0.4-1,0.5-1.5c0.3-1,0.7-2,1.1-3l0.2-0.5c0.6-1.3,1.2-2.7,1.8-4l0.2-0.4 c0.1-0.3,0.3-0.6,0.4-0.8l2.5-4.7l0,0c0.1-0.2,0.2-0.4,0.3-0.5L25.3,89.7z M219.2,75.9c-11.5-6.6-23.3-11.7-35-15.2 c-12.7-3.8-25.1-5.9-37-6.5c-2.4-0.2-4.8-0.2-7.1-0.2c-0.7,0-1.4,0-2.2,0c-1,0-2,0-2.9,0.1c-0.5,0-1.1,0-1.6,0.1l-2.3,0.1l-2.2,0.2 c-5.4,0.3-11.1,1.1-17.8,2.4C99.2,59.4,88.4,63.2,79,68.3c-4.3,2.2-8.6,5-13.6,8.7c-1.6,1.1-3,2.4-4.4,3.6c-0.5,0.5-1,0.9-1.6,1.4 l-2.7,2.7c-0.4,0.4-0.8,0.8-1.3,1.3l-1.3,1.4c-3.7,4.2-6.6,8.1-8.9,11.9l-0.9,1.4l-2.4,4.5c-0.1,0.2-0.2,0.3-0.2,0.4 c0,0.1-0.1,0.2-0.1,0.3c-0.4,0.9-0.8,1.8-1.2,2.7l-0.2,0.4c-0.3,0.6-0.5,1.3-0.8,2c-0.2,0.4-0.3,0.9-0.5,1.3l-0.7,1.7l-0.5,1.7 c-0.1,0.4-0.3,0.9-0.4,1.3c-0.2,0.7-0.5,1.4-0.6,2.1l-0.9,3.5c-0.2,0.6-0.3,1.2-0.4,1.7l-0.4,1.8c-0.4,1.6-0.6,3.2-0.8,4.8 c-0.1,0.8-0.2,1.5-0.3,2.2l-0.3,3.5l-0.2,1.8c0,0-0.1,2.6-0.1,3.1c0,0.7,0,1.4,0,2.1l0.1,3.5c0,0.3,0,0.5,0,0.8c0,0.3,0,0.6,0,0.9 l0.4,5.2c0.6,4.8,1.2,9.2,2.2,13.5c3.5,15.9,10.1,31.5,19.8,46.2c7.4,11.3,16.1,21.5,26,30.2l1.1,1c1.7,1.5,3.3,2.9,4.8,4.1l1,0.8 c1.6,1.3,3,2.5,4.5,3.5c0.6,0.5,1.3,0.9,1.8,1.4c1.1,0.8,2.1,1.5,3,2.2l4.2,2.8c1,0.7,1.9,1.2,2.7,1.7l5.1,3.1l2,1.1 c0.5,0.2,1,0.5,1.6,0.9c1.2,0.7,2.6,1.5,4.4,2.3l4.5,2.2c1,0.5,2.2,1,3.4,1.5c0.7,0.3,1.4,0.6,2.1,0.9c1.8,0.8,3.7,1.6,5.7,2.3 l0.7,0.3c1.9,0.8,3.8,1.4,6,2.1l1.5,0.5c12.5,4.2,25.7,6.7,39.1,7.6c17.7,1.1,34.6-0.7,50.1-5.5c4.3-1.3,8.6-3,13-4.8l4.8-2.2 c0.3-0.1,0.5-0.3,0.8-0.4c0.2-0.1,0.5-0.3,0.7-0.4l3.1-1.7c0.6-0.3,1.2-0.7,1.8-1.1c0.4-0.2,2.7-1.6,2.7-1.6l1.4-1l3-2 c0.5-0.4,1.1-0.9,1.8-1.3c1.3-1,2.6-2,3.8-3.1l1.4-1.2c0.4-0.3,0.9-0.7,1.3-1.2l2.7-2.6c0.5-0.5,1-1.1,1.5-1.6 c0.3-0.3,0.6-0.7,0.9-1l1.2-1.3l1.1-1.4c0.3-0.4,0.6-0.7,0.9-1.1c0.5-0.6,1-1.2,1.4-1.8l2.2-3c0.5-0.6,0.8-1.3,1.2-1.9 c0.2-0.4,0.5-0.8,0.7-1.2l1.1-1.7l2.5-4.7l0.1-0.3l1.5-3.3c0.2-0.4,0.4-0.9,0.6-1.4l0.8-2.1l0.7-1.8l0.6-1.8 c1.5-4.6,2.7-9.8,3.4-15.3c0.7-6,0.9-11.4,0.6-16.2c-0.4-10.8-2.6-22.2-6.6-33.7c-2.3-6.5-4.5-11.7-7-16.6l-1-2.1l-1.1-2 c-0.3-0.5-0.5-1-0.8-1.5c-0.5-0.9-0.9-1.7-1.4-2.6c-0.4-0.6-0.7-1.2-1.1-1.8c-1.2-2-2.4-4.1-3.8-6c-6.5-9.9-14.6-19.6-24.3-28.7 c-0.7-0.7-1.5-1.4-2.3-2c-0.4-0.4-0.9-0.7-1.3-1.1c-0.3-0.3-0.7-0.6-1.1-0.9c-0.8-0.7-1.7-1.5-2.5-2.1l-1-0.8 c-2.1-1.7-4.3-3.4-6.5-5c-5-3.8-10.4-7.1-15.6-10.3L219.2,75.9z"/> <path fill="#99CA3C" d="M109.7,265.5c0,0,0.7,0.4,2.1,1.1c1.4,0.7,3.4,1.9,6.1,3.2c1.3,0.7,2.9,1.4,4.5,2.2 c1.7,0.8,3.5,1.6,5.5,2.5c2,0.9,4.2,1.7,6.5,2.7c2.3,1,4.8,1.8,7.5,2.7c10.6,3.5,24,6.7,39.4,7.7c15.4,1,32.9-0.2,50.5-5.6 c4.4-1.3,8.7-3,13.1-4.8c1.1-0.5,2.1-1,3.2-1.5l1.6-0.8c0.5-0.3,1-0.6,1.6-0.8c1-0.5,2.1-1.1,3.2-1.7c1-0.6,2-1.2,3.1-1.8l1.5-0.9 l1.5-1c1-0.7,2-1.3,3-2c1.9-1.5,3.9-2.9,5.7-4.5l1.4-1.2c0.5-0.4,0.9-0.8,1.4-1.2c0.9-0.8,1.8-1.7,2.6-2.5c0.9-0.8,1.7-1.8,2.5-2.7 l1.2-1.4l1.2-1.4c0.8-1,1.6-1.9,2.3-2.9c0.7-1,1.4-2,2.2-3c0.7-1,1.3-2.1,2-3.2l1-1.6c0.2-0.3-0.1,0.2,0,0.1l0.1-0.2l0.3-0.5 l0.5-0.9l1-1.9l0.5-0.9l0.3-0.5l0.2-0.4c0.5-1.1,1-2.2,1.5-3.3c0.3-0.5,0.5-1.1,0.7-1.7l0.7-1.8l0.7-1.8l0.6-1.9 c1.6-4.9,2.7-10.1,3.4-15.5c0.6-5.3,1-10.8,0.6-16.4c-0.4-11.2-2.8-22.7-6.6-34c-2-5.6-4.2-11.3-7-16.7l-1-2.1l-1.1-2 c-0.7-1.3-1.4-2.7-2.2-4.1c-1.6-2.6-3.1-5.4-4.9-7.9c-6.8-10.5-15.2-20.1-24.4-28.8c-1.2-1.1-2.4-2.1-3.6-3.2 c-1.2-1-2.4-2.1-3.6-3.1c-2.5-2-5-4-7.6-5.9c-5.1-3.9-10.6-7.2-16.1-10.6c-11.2-6.3-23-11.6-35.2-15.3c-12.2-3.6-24.7-5.9-37.2-6.5 c-3.1-0.2-6.2-0.2-9.3-0.2c-1.5,0-3.1,0.1-4.6,0.2l-2.3,0.1l-2.3,0.2c-6.1,0.4-12.1,1.3-17.9,2.5c-11.6,2.4-22.7,6.2-32.4,11.5 c-4.9,2.5-9.5,5.6-13.7,8.7c-2.2,1.6-4.1,3.4-6,5.1c-0.9,0.9-1.9,1.8-2.8,2.7c-0.5,0.4-0.9,0.9-1.3,1.4l-1.3,1.4 c-3.4,3.8-6.5,7.8-9,12.1l-0.5,0.8l-0.2,0.4l-0.1,0.2c-0.1,0.1,0.2-0.4,0-0.1l-1,1.9l-1,1.9l-0.5,0.9c-0.2,0.3-0.2,0.5-0.4,0.8 c-0.5,1-0.9,2.1-1.4,3.1c-0.5,1-0.9,2.3-1.3,3.4l-0.7,1.7l-0.5,1.7c-0.3,1.2-0.8,2.3-1.1,3.5c-0.3,1.2-0.6,2.3-0.9,3.5 c-0.2,0.6-0.3,1.2-0.4,1.8L34,126c-0.5,2.3-0.7,4.7-1.1,7.1c-0.1,1.2-0.2,2.4-0.3,3.6l-0.1,1.8l0,1.8c0,1.2-0.1,2.4-0.1,3.5 c0,1.2,0.1,2.4,0.1,3.5c0,0.6,0,1.2,0,1.8l0.1,1.8c0.1,1.2,0.2,2.3,0.3,3.5c0.6,4.6,1.2,9.2,2.3,13.6c3.9,17.9,11.5,33.7,19.9,46.6 c8.5,12.9,17.8,23,26.1,30.4c2.1,1.9,4,3.7,6,5.2c1.9,1.6,3.7,3.1,5.5,4.3c1.8,1.3,3.4,2.5,4.9,3.6c1.5,1,2.9,2,4.2,2.8 c1.2,0.9,2.4,1.5,3.4,2.1c1,0.6,1.8,1.1,2.5,1.5C109,265.1,109.7,265.5,109.7,265.5z M109.7,265.5c0,0-0.7-0.4-2-1.2 c-1.3-0.8-3.3-1.9-5.9-3.6c-5.1-3.2-12.5-8.1-21.4-14.9c-4.4-3.5-9.3-7.5-14.3-12.1c-1.2-1.2-2.5-2.3-3.8-3.6 c-1.3-1.3-2.6-2.5-3.9-3.8c-1.3-1.3-2.6-2.7-3.9-4.1c-0.7-0.7-1.3-1.4-2-2.1c-0.6-0.7-1.3-1.5-2-2.2c-10.6-11.9-21.3-27-28.7-46 c-1.9-4.7-3.3-9.8-4.6-15c-1.1-5.3-2.1-10.7-2.4-16.4l-0.2-2.1l0-2.1c0-1.4,0-2.9,0-4.3c0.2-2.9,0.2-5.8,0.7-8.8 c0.2-1.5,0.3-3,0.6-4.4c0.3-1.5,0.6-3,0.9-4.4c0.3-1.5,0.8-2.9,1.2-4.4l0.6-2.2l0.8-2.2c0.5-1.5,1-2.9,1.6-4.4c0.7-1.5,1.3-3,2-4.5 c0.2-0.4,0.3-0.8,0.5-1.1l0.5-0.9l1-1.9l1-1.9c-0.1,0.2,0.3-0.5,0.3-0.5l0.2-0.3l0.3-0.5l0.6-1c3.3-5.5,7.3-10.5,11.8-15.2l1.7-1.7 c0.6-0.6,1.1-1.1,1.8-1.7c1.2-1.1,2.4-2.1,3.7-3.2c2.6-2,5.2-4,7.9-5.7c5.4-3.6,11.3-6.6,17.3-9c12.1-4.8,25.1-7.2,38-7.8 c6.5-0.2,13-0.2,19.4,0.4l2.4,0.2l2.4,0.3c1.6,0.2,3.2,0.4,4.8,0.6c3.2,0.5,6.4,1,9.5,1.7c12.7,2.5,25,6.3,37,10.9 c11.9,4.7,23.5,10.3,34.7,16.7c11.1,6.4,21.7,13.7,31.8,21.7c10,8.1,19.3,16.9,27.7,26.7c2.1,2.4,4.1,4.9,6.1,7.5 c1,1.3,1.9,2.6,2.9,3.9l1.4,1.9l1.4,2c3.7,5.3,6.9,10.9,9.9,16.6c5.9,11.5,10.1,23.8,11.9,36.6c0.9,6.4,1.2,12.9,0.8,19.3 c-0.1,3.2-0.6,6.4-1,9.6c-0.3,1.6-0.6,3.2-1,4.7c-0.1,0.8-0.3,1.6-0.6,2.3l-0.6,2.3l-0.6,2.3l-0.8,2.3l-0.8,2.2 c-0.3,0.7-0.5,1.5-0.9,2.3c-0.7,1.5-1.3,3-2,4.5l-0.3,0.6l-0.2,0.5l-0.5,0.9l-1,1.9l-0.5,0.9l-0.2,0.5l-0.1,0.2 c0,0-0.4,0.7-0.3,0.5l-1.2,2c-0.9,1.3-1.6,2.7-2.5,3.9c-0.9,1.2-1.8,2.5-2.7,3.7c-0.9,1.2-2,2.4-2.9,3.5c-4,4.6-8.4,8.7-13.1,12.2 c-2.3,1.8-4.8,3.3-7.2,4.9c-1.2,0.7-2.5,1.4-3.7,2.1l-1.9,1l-1.9,0.9c-5,2.6-10.1,4.5-15.2,6.2c-5.1,1.5-10.2,2.8-15.2,3.6 c-20,3.3-38.4,1.7-54-1.4c-1-0.2-1.9-0.4-2.9-0.6c-1-0.2-1.9-0.4-2.8-0.7c-1.9-0.4-3.7-0.8-5.5-1.3c-1.8-0.5-3.5-0.9-5.3-1.4 c-1.7-0.5-3.4-1-5-1.5c-6.5-2-12.4-4.2-17.6-6.3c-1.3-0.5-2.6-1.1-3.8-1.6c-1.2-0.5-2.4-1.1-3.6-1.6c-2.3-1-4.5-1.9-6.4-2.9 c-3.9-1.9-7.2-3.6-9.9-5c-2.7-1.4-4.7-2.6-6-3.3C110.4,265.9,109.7,265.5,109.7,265.5z"/> <circle fill="#F26739" cx="164.1" cy="170.4" r="20"/> <path fill="#2E67B2" d="M479,153.9c0,15.1-2.2,28.3-6.7,39.4c-4.5,11.2-10.8,20.5-19.1,28c-8.2,7.5-18.2,13-29.8,16.6 c-11.6,3.6-24.4,5.4-38.5,5.4c-6.7,0-14.3-0.3-22.8-0.9c-8.5-0.6-16.6-1.8-24.2-3.7V69.2c7.7-1.8,15.8-3,24.5-3.5 c8.6-0.5,16.3-0.8,23-0.8c13.9,0,26.6,1.7,38.2,5.2c11.5,3.4,21.4,8.8,29.6,16.1c8.2,7.3,14.6,16.5,19.1,27.7 C476.8,125.2,479,138.5,479,153.9z M368.2,215.2c1.8,0.2,4.1,0.3,7,0.4c2.9,0.1,6.8,0.1,11.8,0.1c20.3,0,35.5-5.4,45.5-16.3 c10-10.8,15-26,15-45.5c0-19.8-4.9-35-14.6-45.6c-9.8-10.6-24.9-15.9-45.4-15.9c-9,0-15.4,0.3-19.2,0.8V215.2z"/> <path fill="#2E67B2" d="M478.1,176.1c0-11.6,1.6-21.8,4.9-30.5c3.3-8.7,7.6-16,13.1-21.8c5.4-5.8,11.7-10.2,18.7-13.1 c7-2.9,14.2-4.4,21.6-4.4c17.3,0,30.8,5.6,40.4,16.9c9.7,11.3,14.5,28.1,14.5,50.4c0,1.7,0,3.6-0.1,5.7c-0.1,2.1-0.2,4-0.4,5.7 h-82.8c0.8,10.6,4.4,18.8,10.7,24.6c6.3,5.8,15.5,8.7,27.5,8.7c7,0,13.5-0.7,19.3-2c5.8-1.3,10.4-2.8,13.8-4.3l3.8,24.9 c-1.6,0.8-3.8,1.7-6.6,2.6c-2.8,0.9-6,1.8-9.6,2.5c-3.6,0.8-7.5,1.4-11.6,1.9c-4.2,0.5-8.4,0.8-12.7,0.8c-11,0-20.6-1.7-28.8-5.2 c-8.2-3.4-14.9-8.2-20.2-14.4c-5.3-6.1-9.2-13.4-11.8-21.7C479.4,195.1,478.1,186,478.1,176.1z M562.3,162.5c0-4.2-0.6-8.2-1.7-12 c-1.1-3.8-2.8-7.1-4.9-9.8c-2.2-2.8-4.8-5-7.9-6.6c-3.1-1.6-6.8-2.4-11.2-2.4c-4.5,0-8.4,0.9-11.8,2.6c-3.4,1.8-6.2,4.1-8.5,6.9 c-2.3,2.9-4.1,6.1-5.4,9.8c-1.3,3.7-2.2,7.5-2.6,11.3H562.3z"/> <path fill="#2E67B2" d="M653.8,65c24.2,0,42.7,4.6,55.6,13.9c12.9,9.2,19.3,23.7,19.3,43.3c0,10.3-1.7,19-5.2,26.3 c-3.4,7.3-8.4,13.3-15,17.9c-6.6,4.6-14.6,8-24,10.2c-9.4,2.2-20.2,3.3-32.4,3.3H637v61.5h-30.2V69.2c7-1.7,14.8-2.8,23.4-3.4 C638.7,65.3,646.6,65,653.8,65z M655.9,92.4c-7.7,0-14,0.3-19,0.8v59.5h14.6c14.6,0,25.8-2.1,33.6-6.4c7.8-4.3,11.8-12.4,11.8-24.3 c0-5.7-1-10.5-3.1-14.4c-2.1-3.9-5-6.9-8.6-9.1c-3.7-2.2-8-3.7-13.1-4.7C667.1,92.9,661.7,92.4,655.9,92.4z"/> <path fill="#2E67B2" d="M728.6,241.4V50.8l29-5v65.3c3.2-1.2,6.9-2.2,11.2-3c4.2-0.8,8.4-1.3,12.6-1.3c10.1,0,18.4,1.5,25.1,4.4 c6.6,2.9,12,7.1,16,12.3c4,5.3,6.8,11.6,8.5,19c1.7,7.4,2.5,15.6,2.5,24.7v74.1h-29v-69.3c0-7.1-0.4-13.1-1.3-18 c-0.9-5-2.3-9-4.3-12.1c-2-3.1-4.7-5.4-8-6.8c-3.4-1.4-7.5-2.1-12.5-2.1c-3.8,0-7.8,0.4-11.8,1.3c-4,0.8-7,1.6-8.9,2.3v104.8H728.6 z"/> <path fill="#2E67B2" d="M940.3,109.6c-12.9,50.1-28,95.4-45,136.1c-3.2,7.6-6.5,14-9.9,19.4c-3.4,5.4-7.1,9.8-11.3,13.4 c-4.2,3.5-8.8,6.1-13.9,7.7c-5.1,1.6-11.1,2.4-17.8,2.4c-4.5,0-8.9-0.5-13.3-1.5c-4.4-1-7.7-2.1-10-3.3l5.3-24.4 c5.8,2.4,11.5,3.5,17.1,3.5c7.6,0,13.5-1.9,17.7-5.7c4.3-3.8,8-9.6,11.2-17.5c-9.2-18.5-18-38.6-26.4-60.5 c-8.4-21.8-15.9-45-22.5-69.6h31c1.6,7.1,3.6,14.7,5.9,22.9c2.3,8.2,4.9,16.6,7.6,25.1c2.7,8.5,5.6,16.9,8.7,25.3 c3.1,8.4,6.1,16.2,9.2,23.4c5.1-15,9.9-30.9,14.3-47.8c4.5-16.9,8.5-33.2,12.2-49H940.3z"/> <path fill="#6D6E71" d="M368.4,257.6h-11.6v30.8h-6.4v-30.8h-11.6v-4.8h29.6V257.6z"/> <path fill="#6D6E71" d="M404.2,272.4h-16.8v11.2h19.5v4.8H381v-35.5h25.7v4.8h-19.3v10h16.8V272.4z"/> <path fill="#6D6E71" d="M447,276.6l0.1,0.1c0.1,3.6-1.2,6.5-3.8,8.8c-2.6,2.3-6.1,3.4-10.5,3.4c-4.5,0-8.1-1.4-10.9-4.2 c-2.8-2.8-4.2-6.4-4.2-10.7v-6.8c0-4.3,1.4-7.9,4.2-10.7s6.4-4.2,10.8-4.2c4.5,0,8.1,1.1,10.7,3.3c2.6,2.2,3.9,5.2,3.8,8.9 l-0.1,0.1h-6.2c0-2.4-0.7-4.3-2.1-5.6c-1.4-1.3-3.5-2-6.2-2c-2.6,0-4.7,1-6.2,2.9c-1.5,1.9-2.3,4.3-2.3,7.2v6.8 c0,2.9,0.8,5.3,2.4,7.3c1.6,1.9,3.7,2.9,6.4,2.9c2.7,0,4.7-0.7,6-2s2.1-3.2,2.1-5.6H447z"/> <path fill="#6D6E71" d="M490.5,288.4h-6.4v-15.2h-17.2v15.2h-6.4v-35.5h6.4v15.6h17.2v-15.6h6.4V288.4z"/> <path fill="#6D6E71" d="M535.8,288.4h-6.4l-17-26l-0.2,0v25.9h-6.4v-35.5h6.4l17,25.9l0.2,0v-25.9h6.4V288.4z"/> <path fill="#6D6E71" d="M581.2,273.8c0,4.3-1.5,7.9-4.4,10.8c-2.9,2.9-6.8,4.3-11.5,4.3c-4.6,0-8.3-1.4-11.2-4.3s-4.3-6.5-4.3-10.8 v-6.4c0-4.3,1.4-7.9,4.3-10.8c2.9-2.9,6.6-4.3,11.2-4.3c4.7,0,8.5,1.4,11.5,4.3c3,2.9,4.4,6.5,4.4,10.8V273.8z M574.9,267.4 c0-3-0.9-5.4-2.6-7.3s-4-2.9-6.9-2.9c-2.8,0-5,1-6.7,2.9s-2.5,4.3-2.5,7.3v6.4c0,3,0.8,5.4,2.5,7.4c1.6,1.9,3.9,2.9,6.7,2.9 c2.9,0,5.3-1,6.9-2.9c1.7-1.9,2.5-4.4,2.5-7.4V267.4z"/> <path fill="#6D6E71" d="M601.7,283.7h17.6v4.8h-24v-35.5h6.4V283.7z"/> <path fill="#6D6E71" d="M661.2,273.8c0,4.3-1.5,7.9-4.4,10.8c-2.9,2.9-6.8,4.3-11.5,4.3c-4.6,0-8.3-1.4-11.2-4.3s-4.3-6.5-4.3-10.8 v-6.4c0-4.3,1.4-7.9,4.3-10.8c2.9-2.9,6.6-4.3,11.2-4.3c4.7,0,8.5,1.4,11.5,4.3c3,2.9,4.4,6.5,4.4,10.8V273.8z M654.8,267.4 c0-3-0.9-5.4-2.6-7.3s-4-2.9-6.9-2.9c-2.8,0-5,1-6.7,2.9s-2.5,4.3-2.5,7.3v6.4c0,3,0.8,5.4,2.5,7.4c1.6,1.9,3.9,2.9,6.7,2.9 c2.9,0,5.3-1,6.9-2.9c1.7-1.9,2.5-4.4,2.5-7.4V267.4z"/> <path fill="#6D6E71" d="M704,283.6c-1,1.4-2.7,2.6-5,3.7c-2.3,1.1-5.3,1.6-9,1.6c-4.6,0-8.4-1.4-11.4-4.1s-4.5-6.2-4.5-10.5v-7.4 c0-4.3,1.4-7.8,4.2-10.5s6.5-4.1,10.9-4.1c4.5,0,8,1,10.5,3.1s3.8,4.7,3.8,8l-0.1,0.1h-6.1c-0.1-2-0.9-3.5-2.3-4.7 c-1.4-1.2-3.3-1.8-5.9-1.8c-2.7,0-4.8,0.9-6.4,2.8c-1.6,1.8-2.4,4.2-2.4,7v7.5c0,2.9,0.9,5.2,2.7,7.1s4.1,2.8,6.9,2.8 c2,0,3.6-0.2,4.9-0.6s2.2-0.9,2.7-1.5v-7.2H690v-4.4h14V283.6z"/> <path fill="#6D6E71" d="M725.3,288.4h-6.4v-35.5h6.4V288.4z"/> <path fill="#6D6E71" d="M764,272.4h-16.8v11.2h19.5v4.8h-25.9v-35.5h25.7v4.8h-19.3v10H764V272.4z"/> <path fill="#6D6E71" d="M800.5,279.3c0-1.5-0.6-2.7-1.8-3.6s-3.3-1.8-6.3-2.5c-4.3-1-7.6-2.4-9.9-4.1c-2.3-1.7-3.5-4-3.5-6.8 c0-2.9,1.3-5.2,3.8-7.1s5.9-2.8,9.9-2.8c4.2,0,7.6,1.1,10.2,3.2c2.6,2.1,3.8,4.6,3.7,7.6l-0.1,0.1h-6.1c0-1.8-0.7-3.3-2-4.4 s-3.2-1.7-5.7-1.7c-2.3,0-4.1,0.5-5.4,1.4c-1.3,0.9-1.9,2.2-1.9,3.7c0,1.3,0.7,2.5,2,3.4c1.4,0.9,3.6,1.7,6.8,2.5 c4.1,1,7.3,2.4,9.4,4.2s3.2,4.1,3.2,6.9c0,3-1.3,5.3-3.8,7.1s-5.9,2.6-10.1,2.6c-4,0-7.5-1-10.5-3s-4.5-4.7-4.4-8.1l0.1-0.1h6.2 c0,2.2,0.8,3.8,2.4,4.8c1.6,1.1,3.7,1.6,6.3,1.6c2.4,0,4.2-0.4,5.5-1.3S800.5,280.8,800.5,279.3z"/> </svg>