<?xml version="1.0" encoding="utf-8"?>
<!-- Generator: Adobe Illustrator 16.0.0, SVG Export Plug-In . SVG Version: 6.00 Build 0)  -->
<!DOCTYPE svg PUBLIC "-//W3C//DTD SVG 1.1//EN" "http://www.w3.org/Graphics/SVG/1.1/DTD/svg11.dtd">
<svg version="1.1" id="Layer_1" xmlns="http://www.w3.org/2000/svg" xmlns:xlink="http://www.w3.org/1999/xlink" x="0px" y="0px"
	 width="190px" height="168.152px" viewBox="-81.252 -71.909 190 168.152" enable-background="new -81.252 -71.909 190 168.152"
	 xml:space="preserve">
<g id="c183_binoculars">
	<path d="M46.876,21.925c-9.496,0-17.203,7.383-17.203,16.516h34.422C64.099,29.308,56.392,21.925,46.876,21.925z"/>
	<path d="M-19.385,21.925c-9.516,0-17.223,7.383-17.223,16.516h34.441C-2.167,29.308-9.885,21.925-19.385,21.925z"/>
	<path d="M74.794,31.573L55.751-33.786c0,0-18.035-20.625-39.586,1.281l0.297,9.574h-5.73l0.273-10.105
		c-25.406-20.637-41.582-0.348-41.582-0.348l-16.723,64.957c-0.512,2.117-0.816,4.332-0.816,6.625
		c0,15.828,13.254,28.727,28.73,28.719c15.453,0,28.711-12.891,28.711-28.719c0-2.293,0-6.625,0-6.625l0.348-13.262h8.074
		l0.418,13.262c0,0,0.016,4.332,0.016,6.625c0,15.828,12.855,28.719,28.699,28.719c15.848,0,28.734-12.891,28.734-28.719
		C75.615,35.905,75.314,33.69,74.794,31.573z M-19.385,58.077c-10.98,0-19.891-8.918-19.891-19.879
		c0-10.969,8.906-19.883,19.891-19.883c10.961,0,19.875,8.914,19.875,19.883C0.49,49.159-8.428,58.077-19.385,58.077z
		 M46.876,58.077c-10.953,0-19.867-8.918-19.867-19.879c0-10.969,8.914-19.883,19.867-19.883c10.984,0,19.891,8.914,19.891,19.883
		C66.767,49.159,57.861,58.077,46.876,58.077z"/>
</g>
<g id="Capa_1">
</g>
</svg>
