<?xml version="1.0" encoding="iso-8859-1"?>
<!-- Generator: Adobe Illustrator 16.0.0, SVG Export Plug-In . SVG Version: 6.00 Build 0)  -->
<!DOCTYPE svg PUBLIC "-//W3C//DTD SVG 1.1//EN" "http://www.w3.org/Graphics/SVG/1.1/DTD/svg11.dtd">
<svg version="1.1" xmlns="http://www.w3.org/2000/svg" xmlns:xlink="http://www.w3.org/1999/xlink" x="0px" y="0px"
	 width="27.495px" height="24.334px" viewBox="0 0 27.495 24.334" style="enable-background:new 0 0 27.495 24.334;"
	 xml:space="preserve">
<g id="c183_binoculars">
	<path style="fill:#000000;" d="M21.11,14.335c-2.11,0-3.824,1.641-3.824,3.671h7.65C24.937,15.976,23.224,14.335,21.11,14.335z"/>
	<path style="fill:#000000;" d="M6.385,14.335c-2.115,0-3.828,1.641-3.828,3.671h7.654C10.211,15.976,8.496,14.335,6.385,14.335z"/>
	<path style="fill:#000000;" d="M27.314,16.479L23.081,1.955c0,0-4.008-4.583-8.796,0.285l0.066,2.127h-1.274l0.061-2.245
		C7.492-2.464,3.898,2.045,3.898,2.045L0.181,16.479C0.068,16.95,0,17.443,0,17.952c0,3.517,2.946,6.383,6.385,6.382
		c3.434,0,6.38-2.865,6.38-6.382c0-0.509,0-1.473,0-1.473l0.077-2.947h1.794l0.093,2.947c0,0,0.004,0.964,0.004,1.473
		c0,3.517,2.856,6.382,6.378,6.382s6.385-2.865,6.385-6.382C27.495,17.443,27.429,16.95,27.314,16.479z M6.385,22.369
		c-2.44,0-4.42-1.981-4.42-4.417c0-2.438,1.979-4.419,4.42-4.419c2.436,0,4.417,1.981,4.417,4.419
		C10.802,20.388,8.82,22.369,6.385,22.369z M21.11,22.369c-2.434,0-4.415-1.981-4.415-4.417c0-2.438,1.981-4.419,4.415-4.419
		c2.44,0,4.42,1.981,4.42,4.419C25.53,20.388,23.551,22.369,21.11,22.369z"/>
</g>
<g id="Capa_1">
</g>
</svg>
